<svg width="current" height="" viewBox="0 0 30 30" fill="none" xmlns="http://www.w3.org/2000/svg">
<path d="M5 16.25H11.25M15 20V10H18.75C19.413 10 20.0489 10.2634 20.5178 10.7322C20.9866 11.2011 21.25 11.837 21.25 12.5V13.75C21.25 14.413 20.9866 15.0489 20.5178 15.5178C20.0489 15.9866 19.413 16.25 18.75 16.25H15M25 10V20M11.25 20V13.125C11.25 12.2962 10.9208 11.5013 10.3347 10.9153C9.74866 10.3292 8.9538 10 8.125 10C7.2962 10 6.50134 10.3292 5.91529 10.9153C5.32924 11.5013 5 12.2962 5 13.125V20" stroke="currentColor" stroke-width="2" stroke-linecap="round" stroke-linejoin="round"/>
</svg>
