<svg width="current" height="current" viewBox="0 0 32 32" fill="none" xmlns="http://www.w3.org/2000/svg">
<path d="M30.163 15.9893C30.163 23.7213 23.895 29.9893 16.163 29.9893C8.431 29.9893 2.163 23.7213 2.163 15.9893C2.163 8.25726 8.431 1.98926 16.163 1.98926C23.895 1.98926 30.163 8.25726 30.163 15.9893Z" fill="url(#paint0_radial_157_1449)"/>
<g filter="url(#filter0_f_157_1449)">
<path d="M15.192 8.00488C15.4572 8.00488 15.7116 8.11024 15.8991 8.29778C16.0866 8.48531 16.192 8.73967 16.192 9.00488V15.2789C16.6467 15.5428 16.9785 15.976 17.115 16.4837C17.2514 16.9915 17.1813 17.5326 16.92 17.9889L19.044 21.6679C19.1107 21.7817 19.1542 21.9075 19.1721 22.0382C19.19 22.1688 19.1818 22.3017 19.1481 22.4292C19.1144 22.5567 19.0558 22.6763 18.9757 22.7811C18.8956 22.8858 18.7955 22.9737 18.6813 23.0396C18.5671 23.1056 18.441 23.1483 18.3102 23.1653C18.1794 23.1823 18.0466 23.1732 17.9193 23.1387C17.792 23.1041 17.6729 23.0448 17.5686 22.964C17.4644 22.8831 17.3772 22.7825 17.312 22.6679L15.188 18.9879C14.7518 18.9861 14.3282 18.841 13.9826 18.5749C13.6369 18.3088 13.3884 17.9364 13.2751 17.5151C13.1619 17.0939 13.1903 16.647 13.356 16.2435C13.5217 15.84 13.8154 15.5021 14.192 15.2819V9.00488C14.192 8.73967 14.2974 8.48531 14.4849 8.29778C14.6724 8.11024 14.9268 8.00488 15.192 8.00488Z" fill="#C3C0C7"/>
</g>
<g filter="url(#filter1_i_157_1449)">
<path fill-rule="evenodd" clip-rule="evenodd" d="M16.192 7.00488C16.4572 7.00488 16.7116 7.11024 16.8991 7.29778C17.0866 7.48531 17.192 7.73967 17.192 8.00488V15.9999C17.192 16.2651 17.0866 16.5195 16.8991 16.707C16.7116 16.8945 16.4572 16.9999 16.192 16.9999C15.9268 16.9999 15.6724 16.8945 15.4849 16.707C15.2974 16.5195 15.192 16.2651 15.192 15.9999V8.00488C15.192 7.73967 15.2974 7.48531 15.4849 7.29778C15.6724 7.11024 15.9268 7.00488 16.192 7.00488Z" fill="url(#paint1_linear_157_1449)"/>
</g>
<path fill-rule="evenodd" clip-rule="evenodd" d="M19.678 22.0339C19.4483 22.1665 19.1754 22.2024 18.9192 22.1338C18.663 22.0651 18.4446 21.8976 18.312 21.6679L15.328 16.4999C15.2613 16.3861 15.2178 16.2603 15.1999 16.1296C15.182 15.9989 15.1902 15.866 15.2239 15.7385C15.2576 15.611 15.3162 15.4915 15.3963 15.3867C15.4764 15.2819 15.5765 15.1941 15.6907 15.1281C15.8049 15.0622 15.931 15.0195 16.0618 15.0025C16.1926 14.9855 16.3254 14.9945 16.4527 15.0291C16.58 15.0636 16.6991 15.123 16.8034 15.2038C16.9076 15.2846 16.9948 15.3852 17.06 15.4999L20.044 20.6679C20.1766 20.8976 20.2125 21.1705 20.1439 21.4267C20.0753 21.6829 19.9077 21.9013 19.678 22.0339Z" fill="url(#paint2_linear_157_1449)"/>
<path fill-rule="evenodd" clip-rule="evenodd" d="M19.678 22.0339C19.4483 22.1665 19.1754 22.2024 18.9192 22.1338C18.663 22.0651 18.4446 21.8976 18.312 21.6679L15.328 16.4999C15.2613 16.3861 15.2178 16.2603 15.1999 16.1296C15.182 15.9989 15.1902 15.866 15.2239 15.7385C15.2576 15.611 15.3162 15.4915 15.3963 15.3867C15.4764 15.2819 15.5765 15.1941 15.6907 15.1281C15.8049 15.0622 15.931 15.0195 16.0618 15.0025C16.1926 14.9855 16.3254 14.9945 16.4527 15.0291C16.58 15.0636 16.6991 15.123 16.8034 15.2038C16.9076 15.2846 16.9948 15.3852 17.06 15.4999L20.044 20.6679C20.1766 20.8976 20.2125 21.1705 20.1439 21.4267C20.0753 21.6829 19.9077 21.9013 19.678 22.0339Z" fill="url(#paint3_linear_157_1449)"/>
<path fill-rule="evenodd" clip-rule="evenodd" d="M19.678 22.0339C19.4483 22.1665 19.1754 22.2024 18.9192 22.1338C18.663 22.0651 18.4446 21.8976 18.312 21.6679L15.328 16.4999C15.2613 16.3861 15.2178 16.2603 15.1999 16.1296C15.182 15.9989 15.1902 15.866 15.2239 15.7385C15.2576 15.611 15.3162 15.4915 15.3963 15.3867C15.4764 15.2819 15.5765 15.1941 15.6907 15.1281C15.8049 15.0622 15.931 15.0195 16.0618 15.0025C16.1926 14.9855 16.3254 14.9945 16.4527 15.0291C16.58 15.0636 16.6991 15.123 16.8034 15.2038C16.9076 15.2846 16.9948 15.3852 17.06 15.4999L20.044 20.6679C20.1766 20.8976 20.2125 21.1705 20.1439 21.4267C20.0753 21.6829 19.9077 21.9013 19.678 22.0339Z" fill="url(#paint4_radial_157_1449)"/>
<path fill-rule="evenodd" clip-rule="evenodd" d="M19.678 22.0339C19.4483 22.1665 19.1754 22.2024 18.9192 22.1338C18.663 22.0651 18.4446 21.8976 18.312 21.6679L15.328 16.4999C15.2613 16.3861 15.2178 16.2603 15.1999 16.1296C15.182 15.9989 15.1902 15.866 15.2239 15.7385C15.2576 15.611 15.3162 15.4915 15.3963 15.3867C15.4764 15.2819 15.5765 15.1941 15.6907 15.1281C15.8049 15.0622 15.931 15.0195 16.0618 15.0025C16.1926 14.9855 16.3254 14.9945 16.4527 15.0291C16.58 15.0636 16.6991 15.123 16.8034 15.2038C16.9076 15.2846 16.9948 15.3852 17.06 15.4999L20.044 20.6679C20.1766 20.8976 20.2125 21.1705 20.1439 21.4267C20.0753 21.6829 19.9077 21.9013 19.678 22.0339Z" fill="url(#paint5_linear_157_1449)"/>
<g filter="url(#filter2_ii_157_1449)">
<path fill-rule="evenodd" clip-rule="evenodd" d="M16.163 26.9893C22.238 26.9893 27.163 22.0643 27.163 15.9893C27.163 9.91426 22.238 4.98926 16.163 4.98926C10.088 4.98926 5.163 9.91426 5.163 15.9893C5.163 22.0643 10.088 26.9893 16.163 26.9893ZM16.163 29.9893C23.895 29.9893 30.163 23.7213 30.163 15.9893C30.163 8.25726 23.895 1.98926 16.163 1.98926C8.431 1.98926 2.163 8.25726 2.163 15.9893C2.163 23.7213 8.431 29.9893 16.163 29.9893Z" fill="url(#paint6_linear_157_1449)"/>
</g>
<path d="M18.183 16.0007C18.183 16.5282 17.9734 17.0341 17.6004 17.4072C17.2274 17.7802 16.7215 17.9897 16.194 17.9897C15.6665 17.9897 15.1606 17.7802 14.7876 17.4072C14.4146 17.0341 14.205 16.5282 14.205 16.0007C14.205 15.4732 14.4146 14.9673 14.7876 14.5943C15.1606 14.2213 15.6665 14.0117 16.194 14.0117C16.7215 14.0117 17.2274 14.2213 17.6004 14.5943C17.9734 14.9673 18.183 15.4732 18.183 16.0007Z" fill="url(#paint7_radial_157_1449)"/>
<path d="M18.183 16.0007C18.183 16.5282 17.9734 17.0341 17.6004 17.4072C17.2274 17.7802 16.7215 17.9897 16.194 17.9897C15.6665 17.9897 15.1606 17.7802 14.7876 17.4072C14.4146 17.0341 14.205 16.5282 14.205 16.0007C14.205 15.4732 14.4146 14.9673 14.7876 14.5943C15.1606 14.2213 15.6665 14.0117 16.194 14.0117C16.7215 14.0117 17.2274 14.2213 17.6004 14.5943C17.9734 14.9673 18.183 15.4732 18.183 16.0007Z" fill="url(#paint8_radial_157_1449)"/>
<defs>
<filter id="filter0_f_157_1449" x="11.707" y="6.50488" width="8.97434" height="18.1689" filterUnits="userSpaceOnUse" color-interpolation-filters="sRGB">
<feFlood flood-opacity="0" result="BackgroundImageFix"/>
<feBlend mode="normal" in="SourceGraphic" in2="BackgroundImageFix" result="shape"/>
<feGaussianBlur stdDeviation="0.75" result="effect1_foregroundBlur_157_1449"/>
</filter>
<filter id="filter1_i_157_1449" x="15.192" y="7.00488" width="2.6" height="9.99512" filterUnits="userSpaceOnUse" color-interpolation-filters="sRGB">
<feFlood flood-opacity="0" result="BackgroundImageFix"/>
<feBlend mode="normal" in="SourceGraphic" in2="BackgroundImageFix" result="shape"/>
<feColorMatrix in="SourceAlpha" type="matrix" values="0 0 0 0 0 0 0 0 0 0 0 0 0 0 0 0 0 0 127 0" result="hardAlpha"/>
<feOffset dx="0.6"/>
<feGaussianBlur stdDeviation="0.425"/>
<feComposite in2="hardAlpha" operator="arithmetic" k2="-1" k3="1"/>
<feColorMatrix type="matrix" values="0 0 0 0 0.635294 0 0 0 0 0.227451 0 0 0 0 0.403922 0 0 0 1 0"/>
<feBlend mode="normal" in2="shape" result="effect1_innerShadow_157_1449"/>
</filter>
<filter id="filter2_ii_157_1449" x="1.763" y="1.58926" width="28.8" height="28.8" filterUnits="userSpaceOnUse" color-interpolation-filters="sRGB">
<feFlood flood-opacity="0" result="BackgroundImageFix"/>
<feBlend mode="normal" in="SourceGraphic" in2="BackgroundImageFix" result="shape"/>
<feColorMatrix in="SourceAlpha" type="matrix" values="0 0 0 0 0 0 0 0 0 0 0 0 0 0 0 0 0 0 127 0" result="hardAlpha"/>
<feOffset dx="0.4" dy="-0.4"/>
<feGaussianBlur stdDeviation="0.3"/>
<feComposite in2="hardAlpha" operator="arithmetic" k2="-1" k3="1"/>
<feColorMatrix type="matrix" values="0 0 0 0 0.282353 0 0 0 0 0.254902 0 0 0 0 0.313726 0 0 0 1 0"/>
<feBlend mode="normal" in2="shape" result="effect1_innerShadow_157_1449"/>
<feColorMatrix in="SourceAlpha" type="matrix" values="0 0 0 0 0 0 0 0 0 0 0 0 0 0 0 0 0 0 127 0" result="hardAlpha"/>
<feOffset dx="-0.4" dy="0.4"/>
<feGaussianBlur stdDeviation="0.3"/>
<feComposite in2="hardAlpha" operator="arithmetic" k2="-1" k3="1"/>
<feColorMatrix type="matrix" values="0 0 0 0 0.533333 0 0 0 0 0.533333 0 0 0 0 0.533333 0 0 0 1 0"/>
<feBlend mode="normal" in2="effect1_innerShadow_157_1449" result="effect2_innerShadow_157_1449"/>
</filter>
<radialGradient id="paint0_radial_157_1449" cx="0" cy="0" r="1" gradientUnits="userSpaceOnUse" gradientTransform="translate(9.73694 24.4876) rotate(-46.212) scale(25.2966)">
<stop offset="0.598" stop-color="#DDDADF"/>
<stop offset="1" stop-color="#BDBABF"/>
</radialGradient>
<linearGradient id="paint1_linear_157_1449" x1="16.192" y1="7.00488" x2="16.192" y2="16.9999" gradientUnits="userSpaceOnUse">
<stop stop-color="#F83F4C"/>
<stop offset="1" stop-color="#F74093"/>
</linearGradient>
<linearGradient id="paint2_linear_157_1449" x1="19.678" y1="22.0339" x2="16.772" y2="17.0009" gradientUnits="userSpaceOnUse">
<stop stop-color="#32183D"/>
<stop offset="1" stop-color="#2C3A65"/>
</linearGradient>
<linearGradient id="paint3_linear_157_1449" x1="19.029" y1="18.9099" x2="18.163" y2="19.4099" gradientUnits="userSpaceOnUse">
<stop stop-color="#2E2840"/>
<stop offset="1" stop-color="#2E2840" stop-opacity="0"/>
</linearGradient>
<radialGradient id="paint4_radial_157_1449" cx="0" cy="0" r="1" gradientUnits="userSpaceOnUse" gradientTransform="translate(18.9531 21.9985) rotate(-120) scale(5.73026 0.81528)">
<stop stop-color="#50375F"/>
<stop offset="1" stop-color="#50375F" stop-opacity="0"/>
</radialGradient>
<linearGradient id="paint5_linear_157_1449" x1="19.678" y1="22.0339" x2="19.319" y2="21.4119" gradientUnits="userSpaceOnUse">
<stop stop-color="#3E1846"/>
<stop offset="1" stop-color="#3E1846" stop-opacity="0"/>
</linearGradient>
<linearGradient id="paint6_linear_157_1449" x1="24.674" y1="4.00226" x2="4.447" y2="28.5223" gradientUnits="userSpaceOnUse">
<stop stop-color="#6D6B70"/>
<stop offset="1" stop-color="#706C74"/>
</linearGradient>
<radialGradient id="paint7_radial_157_1449" cx="0" cy="0" r="1" gradientUnits="userSpaceOnUse" gradientTransform="translate(17.2743 15.5412) rotate(134.039) scale(3.40442)">
<stop stop-color="#C9C6CC"/>
<stop offset="1" stop-color="#928E95"/>
</radialGradient>
<radialGradient id="paint8_radial_157_1449" cx="0" cy="0" r="1" gradientUnits="userSpaceOnUse" gradientTransform="translate(16.7572 15.4939) rotate(139.399) scale(2.88111)">
<stop offset="0.527" stop-color="#776F7F" stop-opacity="0"/>
<stop offset="1" stop-color="#776F7F"/>
</radialGradient>
</defs>
</svg>
