<svg width="100%" height="100%" viewBox="0 0 20 22" fill="none" xmlns="http://www.w3.org/2000/svg">
<path d="M8.87604 20.9433C8.57873 20.9078 8.26689 20.862 8.1833 20.8414C8.0603 20.8123 7.93657 20.7862 7.81225 20.7633C7.67027 20.7358 7.5294 20.7028 7.38995 20.6644C6.74237 20.4788 6.69597 20.4636 6.20774 20.264C5.75857 20.0809 4.93101 19.6531 4.64792 19.4584C4.57043 19.4047 4.49793 19.3614 4.48684 19.3614C4.47575 19.3614 4.29468 19.2339 4.08407 19.0782C2.74516 18.0872 1.73996 16.8842 1.01364 15.4025C0.88865 15.148 0.786631 14.9222 0.786631 14.901C0.786631 14.8801 0.764133 14.8221 0.736636 14.7733C0.679924 14.672 0.599152 14.4535 0.534003 14.2278C0.506002 14.1319 0.473416 14.0373 0.436357 13.9445C0.405892 13.8727 0.381364 13.7852 0.381364 13.7499C0.381364 13.7144 0.350898 13.5991 0.313715 13.4929C0.276532 13.3874 0.246535 13.2629 0.246535 13.2163C0.246535 13.1701 0.217319 13.0101 0.18123 12.8607C0.093427 12.492 0 11.537 0 11.0017C0 10.4671 0.093427 9.51206 0.18123 9.14351C0.217163 8.99399 0.246535 8.83104 0.246535 8.78105C0.246535 8.7309 0.269189 8.63263 0.296529 8.56232C0.324651 8.49233 0.360585 8.36656 0.377145 8.28298C0.394331 8.19939 0.433389 8.05535 0.465104 7.96192L0.557281 7.69226C0.62493 7.49026 0.687735 7.31934 0.717732 7.25278C0.734918 7.2156 0.801941 7.06374 0.867247 6.91532C0.97286 6.6755 1.19924 6.22321 1.33157 5.98652C1.37985 5.89981 1.39812 5.87106 1.65935 5.46283C2.07321 4.81477 2.78047 4.00846 3.43883 3.43368C3.67084 3.23104 4.44591 2.64267 4.48075 2.64267C4.49043 2.64267 4.56355 2.59877 4.6437 2.54503C4.85414 2.40411 5.06053 2.28443 5.32956 2.1496C5.42613 2.10184 5.52177 2.0522 5.6164 2.00071C5.66093 1.97509 5.74451 1.93666 6.17368 1.74449C6.2682 1.70231 6.37007 1.66388 6.66363 1.56123C6.72831 1.53873 6.85829 1.49108 6.9511 1.45624C7.04452 1.42156 7.15436 1.39281 7.19529 1.39281C7.2356 1.39281 7.34168 1.36469 7.43089 1.33001C7.51994 1.29517 7.68164 1.25548 7.79085 1.24205C7.89958 1.22924 8.0441 1.19877 8.1119 1.17487C8.17908 1.15175 8.36344 1.12175 8.52139 1.10847C8.72725 1.08984 8.93256 1.06561 9.1371 1.03582C9.55706 0.974266 10.4701 0.974266 10.8857 1.03582C11.0819 1.06399 11.2789 1.08717 11.4764 1.10534C11.6253 1.11769 11.8151 1.14878 11.8987 1.1744C11.9823 1.1994 12.1269 1.23064 12.2197 1.24205C12.3125 1.25439 12.4688 1.29282 12.5669 1.32813C12.6653 1.36407 12.7769 1.39281 12.8153 1.39281C12.8537 1.39281 12.9331 1.41422 12.991 1.44109C13.0496 1.46734 13.1735 1.51124 13.267 1.53873C13.3598 1.56686 13.519 1.62232 13.6216 1.66325C13.7235 1.70403 13.8602 1.75777 13.9255 1.78214C14.0458 1.82745 14.9347 2.27225 15.0557 2.34802C16.037 2.95998 16.5417 3.35978 17.2204 4.06095C18.0388 4.90679 18.582 5.71233 19.1349 6.89813C19.1739 6.98187 19.2336 7.10577 19.2678 7.17279C19.3014 7.2406 19.3296 7.31996 19.3296 7.34933C19.3296 7.37902 19.3577 7.46807 19.3924 7.54759C19.4864 7.76366 19.5669 8.00957 19.6048 8.19752C19.6236 8.2897 19.6584 8.40375 19.6822 8.45077C19.7061 8.49764 19.734 8.61685 19.7451 8.71449C19.7561 8.81198 19.7884 8.97196 19.8159 9.06898C19.9753 9.62064 20.0545 11.2459 19.9581 11.9648C19.9295 12.1783 19.8971 12.4366 19.8862 12.5384C19.8678 12.713 19.7756 13.164 19.6969 13.4672L19.6156 13.7883C19.4625 14.4065 19.0841 15.2872 18.6221 16.1019C18.439 16.4253 17.8252 17.2999 17.7093 17.4024C17.6988 17.4115 17.6469 17.4727 17.5944 17.5373C17.5419 17.6026 17.3735 17.785 17.221 17.9425C16.5491 18.6364 16.0071 19.0654 15.0557 19.6562C14.9429 19.7264 13.9859 20.1938 13.807 20.2665C13.7142 20.3037 13.5593 20.3665 13.4629 20.4055C13.3671 20.4441 13.2602 20.4765 13.2266 20.4771C13.1931 20.4776 13.1046 20.5075 13.0301 20.5435C12.9557 20.5794 12.8611 20.6094 12.819 20.61C12.7775 20.6107 12.6561 20.64 12.5492 20.6753C12.4425 20.7113 12.2941 20.7499 12.2196 20.7613C12.1452 20.773 11.986 20.8047 11.8651 20.8316C11.7443 20.8584 11.3792 20.9109 11.0547 20.9481C10.3308 21.0326 9.59951 21.031 8.87604 20.9433ZM9.6108 18.9904C9.65767 18.9538 9.70595 18.881 9.71876 18.8299C9.74688 18.717 14.2861 9.61689 14.3715 9.50284C14.4435 9.40645 14.4503 9.25209 14.3843 9.19772C14.3496 9.1685 13.915 9.15929 12.7548 9.16116C11.8846 9.16304 11.153 9.16366 11.1291 9.16304C11.0938 9.16179 11.0864 8.58029 11.09 6.08963C11.0925 4.39966 11.0845 3.00154 11.0724 2.98217C11.0602 2.96248 11.0125 2.9467 10.9661 2.9467C10.9008 2.9467 10.8703 2.97482 10.8302 3.07294C10.7544 3.25542 10.5451 3.66975 9.52596 5.64843C9.31428 6.05906 9.1031 6.46995 8.89244 6.8811C8.71184 7.2345 8.42687 7.78928 8.26017 8.11378C7.81147 8.98606 7.3637 9.85883 6.91688 10.7321C6.14619 12.2375 6.05292 12.417 6.01979 12.4567C5.95574 12.5342 5.9209 12.713 5.95699 12.7801C5.9898 12.8417 6.05526 12.8442 7.68226 12.8417C8.61232 12.8406 9.37942 12.8454 9.38739 12.8526C9.40879 12.8747 9.40082 18.6817 9.37879 18.8201C9.36426 18.911 9.37395 18.9591 9.41551 19.0007C9.48738 19.0727 9.50706 19.0721 9.6108 18.9904Z" fill="#049688"/>
</svg>
