<svg width="current" height="current" viewBox="0 0 42 36" fill="none" xmlns="http://www.w3.org/2000/svg">
<g filter="url(#filter0_ii_157_1530)">
<path d="M0.141874 3.45186C0.141874 2.75069 0.420412 2.07824 0.916211 1.58244C1.41201 1.08664 2.08446 0.808105 2.78562 0.808105H14.2566C15.0155 0.808056 15.745 1.10176 16.2922 1.62767L20.4885 5.66379C21.1053 6.25717 21.9249 6.58764 22.7797 6.58764H34.1449C34.8461 6.58764 35.5185 6.86617 36.0143 7.36197C36.5101 7.85777 36.7887 8.53022 36.7887 9.23139V21.2399L31.554 35.8921H6.01687C4.45873 35.8921 2.9644 35.2732 1.86262 34.1714C0.760846 33.0696 0.141874 31.5753 0.141874 30.0171V3.45186Z" fill="url(#paint0_linear_157_1530)"/>
</g>
<g filter="url(#filter1_f_157_1530)">
<path d="M7.76322 14.8578C8.52403 12.7913 10.5215 11.415 12.7614 11.415H33.6353C35.3419 11.415 34.9454 13.0365 34.4313 14.6331L31.9594 31.8057C31.7829 32.3376 31.4429 32.8001 30.9879 33.1271C30.5329 33.4542 29.9862 33.6291 29.4258 33.6269H5.78187C4.76191 33.6265 3.76325 33.335 2.90312 32.7868L2.89725 32.7839C2.62406 32.4754 1.85297 31.0082 2.251 29.9889L7.76322 14.8578Z" fill="#FCA23D"/>
</g>
<g filter="url(#filter2_ii_157_1530)">
<path d="M8.19062 14.7496C8.60131 13.6136 9.35214 12.6319 10.3409 11.938C11.3296 11.2442 12.5082 10.872 13.7161 10.8721H38.394C38.8323 10.8723 39.2644 10.9757 39.6553 11.174C40.0462 11.3723 40.3849 11.6599 40.6439 12.0135C40.9029 12.3671 41.075 12.7767 41.1463 13.2092C41.2175 13.6417 41.1859 14.0848 41.0539 14.5028L34.9395 33.8404C34.7513 34.4356 34.3783 34.9555 33.8746 35.3244C33.371 35.6934 32.7629 35.8923 32.1386 35.8922H5.99925C4.8698 35.8888 3.76527 35.5599 2.81794 34.9449L2.81059 34.9419C2.00739 34.419 1.34431 33.7075 0.879187 32.8695C1.42556 32.8284 1.7105 32.5582 1.84856 32.2982L8.19062 14.7496Z" fill="url(#paint1_linear_157_1530)"/>
</g>
<defs>
<filter id="filter0_ii_157_1530" x="-0.158126" y="0.808105" width="37.0968" height="35.2345" filterUnits="userSpaceOnUse" color-interpolation-filters="sRGB">
<feFlood flood-opacity="0" result="BackgroundImageFix"/>
<feBlend mode="normal" in="SourceGraphic" in2="BackgroundImageFix" result="shape"/>
<feColorMatrix in="SourceAlpha" type="matrix" values="0 0 0 0 0 0 0 0 0 0 0 0 0 0 0 0 0 0 127 0" result="hardAlpha"/>
<feOffset dx="-0.3" dy="0.15"/>
<feGaussianBlur stdDeviation="0.3"/>
<feComposite in2="hardAlpha" operator="arithmetic" k2="-1" k3="1"/>
<feColorMatrix type="matrix" values="0 0 0 0 1 0 0 0 0 0.843137 0 0 0 0 0.360784 0 0 0 1 0"/>
<feBlend mode="normal" in2="shape" result="effect1_innerShadow_157_1530"/>
<feColorMatrix in="SourceAlpha" type="matrix" values="0 0 0 0 0 0 0 0 0 0 0 0 0 0 0 0 0 0 127 0" result="hardAlpha"/>
<feOffset dx="0.15" dy="0.15"/>
<feGaussianBlur stdDeviation="0.3"/>
<feComposite in2="hardAlpha" operator="arithmetic" k2="-1" k3="1"/>
<feColorMatrix type="matrix" values="0 0 0 0 0.933333 0 0 0 0 0.658824 0 0 0 0 0.313726 0 0 0 1 0"/>
<feBlend mode="normal" in2="effect1_innerShadow_157_1530" result="effect2_innerShadow_157_1530"/>
</filter>
<filter id="filter1_f_157_1530" x="0.139132" y="9.41504" width="36.7339" height="26.2119" filterUnits="userSpaceOnUse" color-interpolation-filters="sRGB">
<feFlood flood-opacity="0" result="BackgroundImageFix"/>
<feBlend mode="normal" in="SourceGraphic" in2="BackgroundImageFix" result="shape"/>
<feGaussianBlur stdDeviation="1" result="effect1_foregroundBlur_157_1530"/>
</filter>
<filter id="filter2_ii_157_1530" x="0.579187" y="10.8721" width="40.9042" height="25.3205" filterUnits="userSpaceOnUse" color-interpolation-filters="sRGB">
<feFlood flood-opacity="0" result="BackgroundImageFix"/>
<feBlend mode="normal" in="SourceGraphic" in2="BackgroundImageFix" result="shape"/>
<feColorMatrix in="SourceAlpha" type="matrix" values="0 0 0 0 0 0 0 0 0 0 0 0 0 0 0 0 0 0 127 0" result="hardAlpha"/>
<feOffset dx="0.3" dy="0.3"/>
<feGaussianBlur stdDeviation="0.25"/>
<feComposite in2="hardAlpha" operator="arithmetic" k2="-1" k3="1"/>
<feColorMatrix type="matrix" values="0 0 0 0 1 0 0 0 0 0.768627 0 0 0 0 0.286275 0 0 0 1 0"/>
<feBlend mode="normal" in2="shape" result="effect1_innerShadow_157_1530"/>
<feColorMatrix in="SourceAlpha" type="matrix" values="0 0 0 0 0 0 0 0 0 0 0 0 0 0 0 0 0 0 127 0" result="hardAlpha"/>
<feOffset dx="-0.3" dy="0.3"/>
<feGaussianBlur stdDeviation="0.25"/>
<feComposite in2="hardAlpha" operator="arithmetic" k2="-1" k3="1"/>
<feColorMatrix type="matrix" values="0 0 0 0 1 0 0 0 0 0.878431 0 0 0 0 0.290196 0 0 0 1 0"/>
<feBlend mode="normal" in2="effect1_innerShadow_157_1530" result="effect2_innerShadow_157_1530"/>
</filter>
<linearGradient id="paint0_linear_157_1530" x1="6.4105" y1="1.82154" x2="10.5421" y2="16.6941" gradientUnits="userSpaceOnUse">
<stop stop-color="#FFD052"/>
<stop offset="1" stop-color="#FFBD41"/>
</linearGradient>
<linearGradient id="paint1_linear_157_1530" x1="21.0319" y1="10.8706" x2="21.0319" y2="35.8922" gradientUnits="userSpaceOnUse">
<stop stop-color="#FFDF54"/>
<stop offset="1" stop-color="#FFBA5F"/>
</linearGradient>
</defs>
</svg>
