<svg width="16" height="17" viewBox="0 0 16 17" fill="none" xmlns="http://www.w3.org/2000/svg">
<path d="M3.31931 7.22652C1.99531 6.69719 1.33331 6.43252 1.33331 6.10319C1.33331 5.77386 1.99531 5.50986 3.31931 4.97986L5.19131 4.23119C6.51531 3.70119 7.17798 3.43652 7.99998 3.43652C8.82198 3.43652 9.48465 3.70119 10.8086 4.23119L12.6806 4.97986C14.0046 5.50919 14.6666 5.77386 14.6666 6.10319C14.6666 6.43252 14.0046 6.69652 12.6806 7.22652L10.8086 7.97586C9.48465 8.50519 8.82198 8.76986 7.99998 8.76986C7.17798 8.76986 6.51531 8.50519 5.19131 7.97586L3.31931 7.22652Z" stroke="#1E1E20"/>
<path d="M3.84398 7.43652L3.31931 7.64652C1.99531 8.17586 1.33331 8.44119 1.33331 8.76986C1.33331 9.09852 1.99531 9.36319 3.31931 9.89319L5.19131 10.6425C6.51531 11.1719 7.17798 11.4365 7.99998 11.4365C8.82198 11.4365 9.48465 11.1719 10.8086 10.6425L12.6806 9.89319C14.0046 9.36386 14.6666 9.09852 14.6666 8.76986C14.6666 8.44119 14.0046 8.17652 12.6806 7.64652L12.156 7.43652" stroke="#1E1E20"/>
<path d="M3.84398 10.1035L3.31931 10.3135C1.99531 10.8428 1.33331 11.1082 1.33331 11.4368C1.33331 11.7655 1.99531 12.0302 3.31931 12.5602L5.19131 13.3095C6.51531 13.8388 7.17798 14.1035 7.99998 14.1035C8.82198 14.1035 9.48465 13.8388 10.8086 13.3088L12.6806 12.5602C14.0046 12.0308 14.6666 11.7662 14.6666 11.4368C14.6666 11.1082 14.0046 10.8435 12.6806 10.3135L12.156 10.1035" stroke="#1E1E20"/>
</svg>
