<svg width="current" height="current" viewBox="0 0 24 24" fill="none" xmlns="http://www.w3.org/2000/svg">
<path d="M20 3H15C14.4477 3 14 3.44772 14 4V9C14 9.55228 14.4477 10 15 10H20C20.5523 10 21 9.55228 21 9V4C21 3.44772 20.5523 3 20 3Z" stroke="#616161" stroke-width="1.7" stroke-linecap="round" stroke-linejoin="round"/>
<path d="M20 14H15C14.4477 14 14 14.4477 14 15V20C14 20.5523 14.4477 21 15 21H20C20.5523 21 21 20.5523 21 20V15C21 14.4477 20.5523 14 20 14Z" stroke="#616161" stroke-width="1.7" stroke-linecap="round" stroke-linejoin="round"/>
<path d="M2 7L6 3M6 3L10 7M6 3V21M6 21L2 17M6 21L10 17" stroke="#616161" stroke-width="1.7" stroke-linecap="round" stroke-linejoin="round"/>
</svg>
