<svg width="13" height="13" viewBox="0 0 13 13" fill="none" xmlns="http://www.w3.org/2000/svg">
<g clip-path="url(#clip0_538_2051)">
<path d="M12.1916 6.35684H1.69163C1.46663 6.35684 1.26038 6.54434 1.26038 6.78809C1.26038 7.01309 1.44788 7.21934 1.69163 7.21934H12.1916C12.4166 7.21934 12.6229 7.03184 12.6229 6.78809C12.6229 6.54434 12.4166 6.35684 12.1916 6.35684ZM12.1916 9.54434H1.69163C1.46663 9.54434 1.26038 9.73184 1.26038 9.97559C1.26038 10.2193 1.44788 10.4068 1.69163 10.4068H12.1916C12.4166 10.4068 12.6229 10.2193 12.6229 9.97559C12.6229 9.73184 12.4166 9.54434 12.1916 9.54434ZM1.69163 3.99434H12.1916C12.4166 3.99434 12.6229 3.80684 12.6229 3.56309C12.6229 3.31934 12.4354 3.13184 12.1916 3.13184H1.69163C1.46663 3.13184 1.26038 3.31934 1.26038 3.56309C1.26038 3.80684 1.46663 3.99434 1.69163 3.99434Z" fill="#1E1E20"/>
</g>
<defs>
<clipPath id="clip0_538_2051">
<rect width="12" height="12" fill="white" transform="translate(0.94165 0.769531)"/>
</clipPath>
</defs>
</svg>
