<svg width="16" height="17" viewBox="0 0 16 17" fill="none" xmlns="http://www.w3.org/2000/svg">
<g clip-path="url(#clip0_538_2109)">
<path d="M12.9167 6.43586C13.3237 6.43595 13.7225 6.5507 14.0673 6.76696C14.4122 6.98323 14.6891 7.29225 14.8664 7.65864C15.0438 8.02503 15.1143 8.43396 15.0699 8.83858C15.0256 9.2432 14.8682 9.62714 14.6157 9.94643C14.3632 10.2657 14.0259 10.5074 13.6424 10.6439C13.2589 10.7803 12.8448 10.8059 12.4474 10.7179C12.05 10.6298 11.6854 10.4316 11.3955 10.1459C11.1055 9.86017 10.9019 9.49859 10.808 9.10253H8.80799C8.75752 9.42589 8.6345 9.73364 8.44815 10.0027C8.2618 10.2717 8.01695 10.4951 7.73197 10.656C7.44699 10.8169 7.12928 10.9113 6.80265 10.9319C6.47602 10.9525 6.14896 10.899 5.84599 10.7752L4.80932 12.6092C5.21594 12.9507 5.48299 13.4296 5.55977 13.955C5.63655 14.4805 5.51771 15.0158 5.22582 15.4594C4.93393 15.9029 4.48931 16.2239 3.97639 16.3612C3.46347 16.4986 2.91796 16.4428 2.44345 16.2045C1.96894 15.9662 1.59846 15.5619 1.40236 15.0685C1.20627 14.575 1.19821 14.0267 1.37972 13.5277C1.56123 13.0287 1.91967 12.6137 2.38698 12.3616C2.85428 12.1094 3.39792 12.0376 3.91465 12.1599L5.02932 10.1885C4.68732 9.79483 4.49931 9.29069 4.49999 8.7692C4.49999 8.16453 4.74732 7.61786 5.14665 7.2252L4.07799 5.3332C3.75303 5.4369 3.40819 5.46249 3.07148 5.40788C2.73477 5.35328 2.41569 5.22001 2.14016 5.01892C1.86463 4.81783 1.64042 4.55457 1.48575 4.25055C1.33108 3.94653 1.2503 3.6103 1.24999 3.2692C1.24999 2.91201 1.3383 2.56036 1.50705 2.24555C1.67581 1.93074 1.91977 1.66254 2.21724 1.46481C2.5147 1.26708 2.85644 1.14596 3.21203 1.11222C3.56762 1.07849 3.92604 1.13319 4.25538 1.27146C4.58472 1.40973 4.87476 1.62727 5.0997 1.90473C5.32465 2.18219 5.4775 2.51096 5.54467 2.86178C5.61184 3.21259 5.59123 3.57457 5.48469 3.9155C5.37814 4.25642 5.18896 4.56572 4.93399 4.81586L6.00265 6.70653C6.54927 6.53045 7.14343 6.57858 7.65458 6.84034C8.16573 7.1021 8.55205 7.55608 8.72865 8.10253H10.808C10.9206 7.62792 11.19 7.20517 11.5727 6.90271C11.9553 6.60024 12.4289 6.43575 12.9167 6.43586ZM6.66665 7.60253C6.51114 7.59877 6.35645 7.62614 6.21168 7.68304C6.0669 7.73994 5.93497 7.82522 5.82364 7.93386C5.7123 8.0425 5.62382 8.17231 5.56339 8.31565C5.50297 8.45899 5.47181 8.61297 5.47177 8.76852C5.47173 8.92408 5.50279 9.07807 5.56314 9.22144C5.62348 9.36482 5.71189 9.49468 5.82316 9.60338C5.93443 9.71208 6.06631 9.79744 6.21106 9.85442C6.3558 9.91141 6.51048 9.93887 6.66599 9.9352C6.97049 9.928 7.26011 9.80201 7.47296 9.58413C7.68581 9.36626 7.80502 9.07378 7.8051 8.76919C7.80519 8.4646 7.68615 8.17205 7.47343 7.95405C7.2607 7.73606 6.97116 7.6099 6.66665 7.60253ZM3.41665 2.10253C3.10724 2.10253 2.81049 2.22545 2.5917 2.44424C2.3729 2.66303 2.24999 2.95978 2.24999 3.2692C2.24999 3.57861 2.3729 3.87536 2.5917 4.09415C2.81049 4.31295 3.10724 4.43586 3.41665 4.43586C3.72607 4.43586 4.02282 4.31295 4.24161 4.09415C4.4604 3.87536 4.58332 3.57861 4.58332 3.2692C4.58332 2.95978 4.4604 2.66303 4.24161 2.44424C4.02282 2.22545 3.72607 2.10253 3.41665 2.10253ZM11.75 8.60253C11.75 8.91195 11.8729 9.20869 12.0917 9.42749C12.3105 9.64628 12.6072 9.7692 12.9167 9.7692C13.2261 9.7692 13.5228 9.64628 13.7416 9.42749C13.9604 9.20869 14.0833 8.91195 14.0833 8.60253C14.0833 8.29311 13.9604 7.99636 13.7416 7.77757C13.5228 7.55878 13.2261 7.43586 12.9167 7.43586C12.6072 7.43586 12.3105 7.55878 12.0917 7.77757C11.8729 7.99636 11.75 8.29311 11.75 8.60253ZM2.24999 14.2692C2.25008 14.5787 2.37311 14.8755 2.59203 15.0943C2.81095 15.3131 3.10781 15.436 3.41732 15.4359C3.72683 15.4358 4.02362 15.3127 4.24242 15.0938C4.46121 14.8749 4.58408 14.578 4.58399 14.2685C4.58394 14.1153 4.55372 13.9635 4.49503 13.822C4.43634 13.6804 4.35034 13.5518 4.24195 13.4434C4.13355 13.3351 4.00488 13.2492 3.86327 13.1906C3.72167 13.132 3.56991 13.1018 3.41665 13.1019C3.2634 13.1019 3.11166 13.1321 2.97009 13.1908C2.82852 13.2495 2.69989 13.3355 2.59156 13.4439C2.48322 13.5523 2.3973 13.681 2.33869 13.8226C2.28009 13.9642 2.24994 14.1159 2.24999 14.2692Z" fill="#1E1E20"/>
</g>
<defs>
<clipPath id="clip0_538_2109">
<rect width="16" height="16" fill="white" transform="translate(0 0.769531)"/>
</clipPath>
</defs>
</svg>
