<svg width="16" height="17" viewBox="0 0 16 17" fill="none" xmlns="http://www.w3.org/2000/svg">
<path d="M4.33335 1.76953C4.51016 1.76953 4.67973 1.83977 4.80476 1.96479C4.92978 2.08982 5.00002 2.25939 5.00002 2.4362V4.10286H6.66802C6.84483 4.10286 7.0144 4.1731 7.13942 4.29813C7.26445 4.42315 7.33469 4.59272 7.33469 4.76953C7.33469 4.94634 7.26445 5.11591 7.13942 5.24094C7.0144 5.36596 6.84483 5.4362 6.66802 5.4362H5.00002V7.10286C5.00002 7.27968 4.92978 7.44924 4.80476 7.57427C4.67973 7.69929 4.51016 7.76953 4.33335 7.76953C4.15654 7.76953 3.98697 7.69929 3.86195 7.57427C3.73693 7.44924 3.66669 7.27968 3.66669 7.10286V5.4362H2.00135C1.82454 5.4362 1.65497 5.36596 1.52995 5.24094C1.40492 5.11591 1.33469 4.94634 1.33469 4.76953C1.33469 4.59272 1.40492 4.42315 1.52995 4.29813C1.65497 4.1731 1.82454 4.10286 2.00135 4.10286H3.66669V2.4362C3.66669 2.25939 3.73693 2.08982 3.86195 1.96479C3.98697 1.83977 4.15654 1.76953 4.33335 1.76953ZM9.33202 4.10286C9.15521 4.10286 8.98564 4.1731 8.86062 4.29813C8.73559 4.42315 8.66535 4.59272 8.66535 4.76953C8.66535 4.94634 8.73559 5.11591 8.86062 5.24094C8.98564 5.36596 9.15521 5.4362 9.33202 5.4362H13.9987C14.1755 5.4362 14.3451 5.36596 14.4701 5.24094C14.5951 5.11591 14.6654 4.94634 14.6654 4.76953C14.6654 4.59272 14.5951 4.42315 14.4701 4.29813C14.3451 4.1731 14.1755 4.10286 13.9987 4.10286H9.33202ZM8.66669 12.4362C8.66669 12.2594 8.73693 12.0898 8.86195 11.9648C8.98697 11.8398 9.15654 11.7695 9.33335 11.7695H14C14.1768 11.7695 14.3464 11.8398 14.4714 11.9648C14.5964 12.0898 14.6667 12.2594 14.6667 12.4362C14.6667 12.613 14.5964 12.7826 14.4714 12.9076C14.3464 13.0326 14.1768 13.1029 14 13.1029H9.33335C9.15654 13.1029 8.98697 13.0326 8.86195 12.9076C8.73693 12.7826 8.66669 12.613 8.66669 12.4362ZM11.6667 11.1029C11.8877 11.1029 12.0997 11.0151 12.2559 10.8588C12.4122 10.7025 12.5 10.4905 12.5 10.2695C12.5 10.0485 12.4122 9.83656 12.2559 9.68028C12.0997 9.524 11.8877 9.4362 11.6667 9.4362C11.4457 9.4362 11.2337 9.524 11.0774 9.68028C10.9212 9.83656 10.8334 10.0485 10.8334 10.2695C10.8334 10.4905 10.9212 10.7025 11.0774 10.8588C11.2337 11.0151 11.4457 11.1029 11.6667 11.1029ZM12.5 14.6029C12.5 14.8239 12.4122 15.0358 12.2559 15.1921C12.0997 15.3484 11.8877 15.4362 11.6667 15.4362C11.4457 15.4362 11.2337 15.3484 11.0774 15.1921C10.9212 15.0358 10.8334 14.8239 10.8334 14.6029C10.8334 14.3819 10.9212 14.1699 11.0774 14.0136C11.2337 13.8573 11.4457 13.7695 11.6667 13.7695C11.8877 13.7695 12.0997 13.8573 12.2559 14.0136C12.4122 14.1699 12.5 14.3819 12.5 14.6029ZM1.52869 9.63153C1.65371 9.50655 1.82324 9.43634 2.00002 9.43634C2.1768 9.43634 2.34634 9.50655 2.47135 9.63153L4.33335 11.4935L6.19535 9.63153C6.32109 9.51009 6.48949 9.4429 6.66429 9.44442C6.83909 9.44593 7.00629 9.51605 7.1299 9.63965C7.2535 9.76326 7.32362 9.93047 7.32514 10.1053C7.32666 10.2801 7.25946 10.4485 7.13802 10.5742L5.27602 12.4362L7.13802 14.2982C7.25946 14.4239 7.32666 14.5923 7.32514 14.7671C7.32362 14.9419 7.2535 15.1091 7.1299 15.2327C7.00629 15.3563 6.83909 15.4265 6.66429 15.428C6.48949 15.4295 6.32109 15.3623 6.19535 15.2409L4.33335 13.3789L2.47135 15.2409C2.34562 15.3623 2.17722 15.4295 2.00242 15.428C1.82762 15.4265 1.66041 15.3563 1.53681 15.2327C1.4132 15.1091 1.34309 14.9419 1.34157 14.7671C1.34005 14.5923 1.40725 14.4239 1.52869 14.2982L3.39069 12.4362L1.52869 10.5742C1.40371 10.4492 1.3335 10.2796 1.3335 10.1029C1.3335 9.92609 1.40371 9.75655 1.52869 9.63153Z" fill="#1E1E20"/>
</svg>
