<svg width="current" height="current" viewBox="0 0 43 43" fill="none" xmlns="http://www.w3.org/2000/svg">
<g clip-path="url(#clip0_188_2163)">
<mask id="mask0_188_2163" style="mask-type:luminance" maskUnits="userSpaceOnUse" x="0" y="0" width="43" height="43">
<path d="M0 0H43V43H0V0Z" fill="white"/>
</mask>
<g mask="url(#mask0_188_2163)">
<path d="M14.2196 18.4342C15.8321 17.8402 17.4002 19.4084 16.8063 21.0222L13.2897 30.5817C13.2119 30.7934 13.082 30.9822 12.912 31.1306C12.742 31.279 12.5374 31.3822 12.317 31.4306C12.0966 31.4791 11.8676 31.4713 11.651 31.4079C11.4345 31.3446 11.2374 31.2277 11.0779 31.0681L4.17368 24.1639C4.01439 24.0044 3.89778 23.8074 3.83461 23.591C3.77143 23.3746 3.76371 23.1458 3.81216 22.9256C3.86061 22.7054 3.96367 22.501 4.11185 22.3311C4.26004 22.1612 4.44858 22.0313 4.66012 21.9534L14.2196 18.4342Z" fill="url(#paint0_linear_188_2163)"/>
<path d="M14.2196 18.4342C15.8321 17.8402 17.4002 19.4084 16.8063 21.0222L13.2897 30.5817C13.2119 30.7934 13.082 30.9822 12.912 31.1306C12.742 31.279 12.5374 31.3822 12.317 31.4306C12.0966 31.4791 11.8676 31.4713 11.651 31.4079C11.4345 31.3446 11.2374 31.2277 11.0779 31.0681L4.17368 24.1639C4.01439 24.0044 3.89778 23.8074 3.83461 23.591C3.77143 23.3746 3.76371 23.1458 3.81216 22.9256C3.86061 22.7054 3.96367 22.501 4.11185 22.3311C4.26004 22.1612 4.44858 22.0313 4.66012 21.9534L14.2196 18.4342Z" fill="url(#paint1_radial_188_2163)"/>
<path d="M14.2196 18.4342C15.8321 17.8402 17.4002 19.4084 16.8063 21.0222L13.2897 30.5817C13.2119 30.7934 13.082 30.9822 12.912 31.1306C12.742 31.279 12.5374 31.3822 12.317 31.4306C12.0966 31.4791 11.8676 31.4713 11.651 31.4079C11.4345 31.3446 11.2374 31.2277 11.0779 31.0681L4.17368 24.1639C4.01439 24.0044 3.89778 23.8074 3.83461 23.591C3.77143 23.3746 3.76371 23.1458 3.81216 22.9256C3.86061 22.7054 3.96367 22.501 4.11185 22.3311C4.26004 22.1612 4.44858 22.0313 4.66012 21.9534L14.2196 18.4342Z" fill="url(#paint2_linear_188_2163)"/>
<path d="M22.2822 26.4967C23.8947 25.9027 25.4628 27.4709 24.8689 29.0847L21.3496 38.6442C21.2717 38.8557 21.1418 39.0442 20.9719 39.1924C20.8021 39.3406 20.5976 39.4437 20.3775 39.4921C20.1573 39.5406 19.9285 39.5328 19.7121 39.4697C19.4957 39.4065 19.2987 39.2899 19.1391 39.1306L12.235 32.2264C12.0757 32.0669 11.9591 31.8699 11.8959 31.6535C11.8327 31.4371 11.825 31.2083 11.8734 30.9881C11.9219 30.7679 12.025 30.5635 12.1731 30.3936C12.3213 30.2237 12.5099 30.0938 12.7214 30.0159L22.2822 26.4967Z" fill="url(#paint3_linear_188_2163)"/>
<path d="M22.2822 26.4967C23.8947 25.9027 25.4628 27.4709 24.8689 29.0847L21.3496 38.6442C21.2717 38.8557 21.1418 39.0442 20.9719 39.1924C20.8021 39.3406 20.5976 39.4437 20.3775 39.4921C20.1573 39.5406 19.9285 39.5328 19.7121 39.4697C19.4957 39.4065 19.2987 39.2899 19.1391 39.1306L12.235 32.2264C12.0757 32.0669 11.9591 31.8699 11.8959 31.6535C11.8327 31.4371 11.825 31.2083 11.8734 30.9881C11.9219 30.7679 12.025 30.5635 12.1731 30.3936C12.3213 30.2237 12.5099 30.0938 12.7214 30.0159L22.2822 26.4967Z" fill="url(#paint4_radial_188_2163)"/>
<path d="M22.2822 26.4967C23.8947 25.9027 25.4628 27.4709 24.8689 29.0847L21.3496 38.6442C21.2717 38.8557 21.1418 39.0442 20.9719 39.1924C20.8021 39.3406 20.5976 39.4437 20.3775 39.4921C20.1573 39.5406 19.9285 39.5328 19.7121 39.4697C19.4957 39.4065 19.2987 39.2899 19.1391 39.1306L12.235 32.2264C12.0757 32.0669 11.9591 31.8699 11.8959 31.6535C11.8327 31.4371 11.825 31.2083 11.8734 30.9881C11.9219 30.7679 12.025 30.5635 12.1731 30.3936C12.3213 30.2237 12.5099 30.0938 12.7214 30.0159L22.2822 26.4967Z" fill="url(#paint5_radial_188_2163)"/>
<g filter="url(#filter0_i_188_2163)">
<path d="M30.1 4.77006C30.1368 4.75548 30.177 4.75203 30.2157 4.76016C30.2544 4.76828 30.2899 4.78761 30.3177 4.81575L38.2257 12.7842C38.2536 12.8121 38.2727 12.8477 38.2805 12.8864C38.2884 12.9251 38.2848 12.9652 38.27 13.0019C36.3753 17.6513 33.7644 22.5963 30.2693 26.0927C26.8643 29.4978 21.105 32.3989 15.9047 34.5328L8.52612 27.1529C10.66 21.9526 13.5612 16.1946 16.9662 12.7896C20.4734 9.28237 25.4372 6.66609 30.0987 4.7714" fill="url(#paint6_linear_188_2163)"/>
<path d="M30.1 4.77006C30.1368 4.75548 30.177 4.75203 30.2157 4.76016C30.2544 4.76828 30.2899 4.78761 30.3177 4.81575L38.2257 12.7842C38.2536 12.8121 38.2727 12.8477 38.2805 12.8864C38.2884 12.9251 38.2848 12.9652 38.27 13.0019C36.3753 17.6513 33.7644 22.5963 30.2693 26.0927C26.8643 29.4978 21.105 32.3989 15.9047 34.5328L8.52612 27.1529C10.66 21.9526 13.5612 16.1946 16.9662 12.7896C20.4734 9.28237 25.4372 6.66609 30.0987 4.7714" fill="url(#paint7_radial_188_2163)"/>
<path d="M30.1 4.77006C30.1368 4.75548 30.177 4.75203 30.2157 4.76016C30.2544 4.76828 30.2899 4.78761 30.3177 4.81575L38.2257 12.7842C38.2536 12.8121 38.2727 12.8477 38.2805 12.8864C38.2884 12.9251 38.2848 12.9652 38.27 13.0019C36.3753 17.6513 33.7644 22.5963 30.2693 26.0927C26.8643 29.4978 21.105 32.3989 15.9047 34.5328L8.52612 27.1529C10.66 21.9526 13.5612 16.1946 16.9662 12.7896C20.4734 9.28237 25.4372 6.66609 30.0987 4.7714" fill="url(#paint8_radial_188_2163)"/>
<path d="M30.1 4.77006C30.1368 4.75548 30.177 4.75203 30.2157 4.76016C30.2544 4.76828 30.2899 4.78761 30.3177 4.81575L38.2257 12.7842C38.2536 12.8121 38.2727 12.8477 38.2805 12.8864C38.2884 12.9251 38.2848 12.9652 38.27 13.0019C36.3753 17.6513 33.7644 22.5963 30.2693 26.0927C26.8643 29.4978 21.105 32.3989 15.9047 34.5328L8.52612 27.1529C10.66 21.9526 13.5612 16.1946 16.9662 12.7896C20.4734 9.28237 25.4372 6.66609 30.0987 4.7714" fill="url(#paint9_radial_188_2163)"/>
<path d="M30.1 4.77006C30.1368 4.75548 30.177 4.75203 30.2157 4.76016C30.2544 4.76828 30.2899 4.78761 30.3177 4.81575L38.2257 12.7842C38.2536 12.8121 38.2727 12.8477 38.2805 12.8864C38.2884 12.9251 38.2848 12.9652 38.27 13.0019C36.3753 17.6513 33.7644 22.5963 30.2693 26.0927C26.8643 29.4978 21.105 32.3989 15.9047 34.5328L8.52612 27.1529C10.66 21.9526 13.5612 16.1946 16.9662 12.7896C20.4734 9.28237 25.4372 6.66609 30.0987 4.7714" fill="url(#paint10_radial_188_2163)"/>
</g>
<g filter="url(#filter1_dii_188_2163)">
<path d="M32.9219 14.8648C32.9322 15.4642 32.8231 16.0597 32.6009 16.6164C32.3787 17.1732 32.0478 17.6801 31.6276 18.1077C31.2074 18.5352 30.7062 18.8748 30.1534 19.1066C29.6005 19.3384 29.007 19.4577 28.4076 19.4577C27.8081 19.4577 27.2146 19.3384 26.6618 19.1066C26.1089 18.8748 25.6078 18.5352 25.1876 18.1077C24.7674 17.6801 24.4365 17.1732 24.2143 16.6164C23.992 16.0597 23.8829 15.4642 23.8933 14.8648C23.9137 13.6811 24.3983 12.5527 25.2426 11.7227C26.087 10.8928 27.2236 10.4277 28.4076 10.4277C29.5915 10.4277 30.7281 10.8928 31.5725 11.7227C32.4169 12.5527 32.9015 13.6811 32.9219 14.8648Z" fill="url(#paint11_linear_188_2163)"/>
<path d="M32.9219 14.8648C32.9322 15.4642 32.8231 16.0597 32.6009 16.6164C32.3787 17.1732 32.0478 17.6801 31.6276 18.1077C31.2074 18.5352 30.7062 18.8748 30.1534 19.1066C29.6005 19.3384 29.007 19.4577 28.4076 19.4577C27.8081 19.4577 27.2146 19.3384 26.6618 19.1066C26.1089 18.8748 25.6078 18.5352 25.1876 18.1077C24.7674 17.6801 24.4365 17.1732 24.2143 16.6164C23.992 16.0597 23.8829 15.4642 23.8933 14.8648C23.9137 13.6811 24.3983 12.5527 25.2426 11.7227C26.087 10.8928 27.2236 10.4277 28.4076 10.4277C29.5915 10.4277 30.7281 10.8928 31.5725 11.7227C32.4169 12.5527 32.9015 13.6811 32.9219 14.8648Z" fill="url(#paint12_radial_188_2163)"/>
</g>
<path d="M31.5327 14.8645C31.5413 15.2803 31.4669 15.6936 31.3137 16.0803C31.1605 16.467 30.9317 16.8192 30.6407 17.1163C30.3497 17.4135 30.0023 17.6495 29.6188 17.8107C29.2354 17.9718 28.8237 18.0548 28.4078 18.0548C27.9919 18.0548 27.5802 17.9718 27.1967 17.8107C26.8133 17.6495 26.4659 17.4135 26.1749 17.1163C25.8839 16.8192 25.6551 16.467 25.5019 16.0803C25.3487 15.6936 25.2743 15.2803 25.2829 14.8645C25.2999 14.0469 25.6365 13.2686 26.2207 12.6964C26.8049 12.1242 27.5901 11.8037 28.4078 11.8037C29.2255 11.8037 30.0107 12.1242 30.5949 12.6964C31.1791 13.2686 31.5157 14.0469 31.5327 14.8645Z" fill="url(#paint13_radial_188_2163)"/>
<g filter="url(#filter2_i_188_2163)">
<path d="M3.25597 39.685C2.30594 38.735 2.68757 32.1452 6.04694 30.8015C6.04694 30.8015 9.40631 29.4577 11.5711 31.6077C13.7359 33.7577 12.7657 36.1765 12.7657 36.1765C11.8157 39.0265 7.77097 40.1593 7.29528 39.6836C7.03325 39.4216 7.50491 38.9446 7.29528 38.735C7.08566 38.524 6.76047 38.7645 5.87091 39.2093C5.23666 39.5264 3.63625 40.0653 3.25597 39.685Z" fill="url(#paint14_radial_188_2163)"/>
<path d="M3.25597 39.685C2.30594 38.735 2.68757 32.1452 6.04694 30.8015C6.04694 30.8015 9.40631 29.4577 11.5711 31.6077C13.7359 33.7577 12.7657 36.1765 12.7657 36.1765C11.8157 39.0265 7.77097 40.1593 7.29528 39.6836C7.03325 39.4216 7.50491 38.9446 7.29528 38.735C7.08566 38.524 6.76047 38.7645 5.87091 39.2093C5.23666 39.5264 3.63625 40.0653 3.25597 39.685Z" fill="url(#paint15_radial_188_2163)"/>
</g>
<path d="M8.14307 28.1943C8.33025 28.007 8.55251 27.8584 8.79714 27.7571C9.04177 27.6557 9.30398 27.6035 9.56878 27.6035C9.83359 27.6035 10.0958 27.6557 10.3404 27.7571C10.5851 27.8584 10.8073 28.007 10.9945 28.1943L15.7447 32.9458C16.1054 33.3271 16.3033 33.834 16.2961 34.3588C16.2889 34.8836 16.0773 35.385 15.7062 35.7562C15.3352 36.1274 14.834 36.3393 14.3091 36.3467C13.7843 36.3541 13.2773 36.1565 12.8959 35.7959L8.14307 31.0458C7.95576 30.8586 7.80718 30.6363 7.7058 30.3917C7.60442 30.1471 7.55225 29.8849 7.55225 29.6201C7.55225 29.3552 7.60442 29.093 7.7058 28.8484C7.80718 28.6038 7.95576 28.3815 8.14307 28.1943Z" fill="url(#paint16_linear_188_2163)"/>
<path d="M8.14307 28.1943C8.33025 28.007 8.55251 27.8584 8.79714 27.7571C9.04177 27.6557 9.30398 27.6035 9.56878 27.6035C9.83359 27.6035 10.0958 27.6557 10.3404 27.7571C10.5851 27.8584 10.8073 28.007 10.9945 28.1943L15.7447 32.9458C16.1054 33.3271 16.3033 33.834 16.2961 34.3588C16.2889 34.8836 16.0773 35.385 15.7062 35.7562C15.3352 36.1274 14.834 36.3393 14.3091 36.3467C13.7843 36.3541 13.2773 36.1565 12.8959 35.7959L8.14307 31.0458C7.95576 30.8586 7.80718 30.6363 7.7058 30.3917C7.60442 30.1471 7.55225 29.8849 7.55225 29.6201C7.55225 29.3552 7.60442 29.093 7.7058 28.8484C7.80718 28.6038 7.95576 28.3815 8.14307 28.1943Z" fill="url(#paint17_radial_188_2163)"/>
<path d="M8.14307 28.1943C8.33025 28.007 8.55251 27.8584 8.79714 27.7571C9.04177 27.6557 9.30398 27.6035 9.56878 27.6035C9.83359 27.6035 10.0958 27.6557 10.3404 27.7571C10.5851 27.8584 10.8073 28.007 10.9945 28.1943L15.7447 32.9458C16.1054 33.3271 16.3033 33.834 16.2961 34.3588C16.2889 34.8836 16.0773 35.385 15.7062 35.7562C15.3352 36.1274 14.834 36.3393 14.3091 36.3467C13.7843 36.3541 13.2773 36.1565 12.8959 35.7959L8.14307 31.0458C7.95576 30.8586 7.80718 30.6363 7.7058 30.3917C7.60442 30.1471 7.55225 29.8849 7.55225 29.6201C7.55225 29.3552 7.60442 29.093 7.7058 28.8484C7.80718 28.6038 7.95576 28.3815 8.14307 28.1943Z" fill="url(#paint18_radial_188_2163)"/>
<path d="M39.2001 3.85815C37.9276 2.58562 35.6956 2.7294 34.0697 3.2884C32.843 3.70904 31.6269 4.16023 30.4227 4.64155C30.4022 4.6498 30.384 4.66299 30.3698 4.67996C30.3555 4.69693 30.3457 4.71715 30.3412 4.73883C30.3367 4.76051 30.3376 4.78296 30.3438 4.8042C30.3501 4.82545 30.3615 4.84481 30.377 4.86058L38.1842 12.7202C38.1999 12.7355 38.2191 12.7467 38.2401 12.7528C38.2611 12.759 38.2833 12.76 38.3048 12.7556C38.3263 12.7512 38.3463 12.7417 38.3633 12.7278C38.3802 12.7139 38.3935 12.696 38.4019 12.6758C38.8893 11.4589 39.3458 10.2299 39.7712 8.98993C40.3221 7.38549 40.7656 5.42362 39.2001 3.85815Z" fill="url(#paint19_linear_188_2163)"/>
<path d="M39.2001 3.85815C37.9276 2.58562 35.6956 2.7294 34.0697 3.2884C32.843 3.70904 31.6269 4.16023 30.4227 4.64155C30.4022 4.6498 30.384 4.66299 30.3698 4.67996C30.3555 4.69693 30.3457 4.71715 30.3412 4.73883C30.3367 4.76051 30.3376 4.78296 30.3438 4.8042C30.3501 4.82545 30.3615 4.84481 30.377 4.86058L38.1842 12.7202C38.1999 12.7355 38.2191 12.7467 38.2401 12.7528C38.2611 12.759 38.2833 12.76 38.3048 12.7556C38.3263 12.7512 38.3463 12.7417 38.3633 12.7278C38.3802 12.7139 38.3935 12.696 38.4019 12.6758C38.8893 11.4589 39.3458 10.2299 39.7712 8.98993C40.3221 7.38549 40.7656 5.42362 39.2001 3.85815Z" fill="url(#paint20_radial_188_2163)"/>
<path d="M39.2001 3.85815C37.9276 2.58562 35.6956 2.7294 34.0697 3.2884C32.843 3.70904 31.6269 4.16023 30.4227 4.64155C30.4022 4.6498 30.384 4.66299 30.3698 4.67996C30.3555 4.69693 30.3457 4.71715 30.3412 4.73883C30.3367 4.76051 30.3376 4.78296 30.3438 4.8042C30.3501 4.82545 30.3615 4.84481 30.377 4.86058L38.1842 12.7202C38.1999 12.7355 38.2191 12.7467 38.2401 12.7528C38.2611 12.759 38.2833 12.76 38.3048 12.7556C38.3263 12.7512 38.3463 12.7417 38.3633 12.7278C38.3802 12.7139 38.3935 12.696 38.4019 12.6758C38.8893 11.4589 39.3458 10.2299 39.7712 8.98993C40.3221 7.38549 40.7656 5.42362 39.2001 3.85815Z" fill="url(#paint21_linear_188_2163)"/>
<path d="M18.2509 22.4654C19.8634 21.8715 21.4316 23.4396 20.8376 25.0535L17.3197 34.6129C17.2419 34.8247 17.112 35.0135 16.942 35.1619C16.772 35.3102 16.5674 35.4134 16.347 35.4619C16.1266 35.5103 15.8976 35.5025 15.6811 35.4392C15.4645 35.3758 15.2674 35.2589 15.1079 35.0993L8.20371 28.1952C8.04441 28.0356 7.92781 27.8386 7.86464 27.6222C7.80146 27.4058 7.79374 27.177 7.84219 26.9568C7.89064 26.7367 7.9937 26.5322 8.14188 26.3624C8.29006 26.1925 8.4786 26.0626 8.69015 25.9847L18.2509 22.4654Z" fill="url(#paint22_linear_188_2163)"/>
<path d="M18.2509 22.4654C19.8634 21.8715 21.4316 23.4396 20.8376 25.0535L17.3197 34.6129C17.2419 34.8247 17.112 35.0135 16.942 35.1619C16.772 35.3102 16.5674 35.4134 16.347 35.4619C16.1266 35.5103 15.8976 35.5025 15.6811 35.4392C15.4645 35.3758 15.2674 35.2589 15.1079 35.0993L8.20371 28.1952C8.04441 28.0356 7.92781 27.8386 7.86464 27.6222C7.80146 27.4058 7.79374 27.177 7.84219 26.9568C7.89064 26.7367 7.9937 26.5322 8.14188 26.3624C8.29006 26.1925 8.4786 26.0626 8.69015 25.9847L18.2509 22.4654Z" fill="url(#paint23_radial_188_2163)"/>
<path d="M18.2509 22.4654C19.8634 21.8715 21.4316 23.4396 20.8376 25.0535L17.3197 34.6129C17.2419 34.8247 17.112 35.0135 16.942 35.1619C16.772 35.3102 16.5674 35.4134 16.347 35.4619C16.1266 35.5103 15.8976 35.5025 15.6811 35.4392C15.4645 35.3758 15.2674 35.2589 15.1079 35.0993L8.20371 28.1952C8.04441 28.0356 7.92781 27.8386 7.86464 27.6222C7.80146 27.4058 7.79374 27.177 7.84219 26.9568C7.89064 26.7367 7.9937 26.5322 8.14188 26.3624C8.29006 26.1925 8.4786 26.0626 8.69015 25.9847L18.2509 22.4654Z" fill="url(#paint24_radial_188_2163)"/>
<path d="M18.2509 22.4654C19.8634 21.8715 21.4316 23.4396 20.8376 25.0535L17.3197 34.6129C17.2419 34.8247 17.112 35.0135 16.942 35.1619C16.772 35.3102 16.5674 35.4134 16.347 35.4619C16.1266 35.5103 15.8976 35.5025 15.6811 35.4392C15.4645 35.3758 15.2674 35.2589 15.1079 35.0993L8.20371 28.1952C8.04441 28.0356 7.92781 27.8386 7.86464 27.6222C7.80146 27.4058 7.79374 27.177 7.84219 26.9568C7.89064 26.7367 7.9937 26.5322 8.14188 26.3624C8.29006 26.1925 8.4786 26.0626 8.69015 25.9847L18.2509 22.4654Z" fill="url(#paint25_radial_188_2163)"/>
<g filter="url(#filter3_f_188_2163)">
<path d="M12.3694 29.626L19.928 23.7041L15.0569 32.3552L12.3694 29.626Z" fill="url(#paint26_linear_188_2163)"/>
</g>
</g>
</g>
<defs>
<filter id="filter0_i_188_2163" x="8.27612" y="4.25586" width="30.0085" height="30.2773" filterUnits="userSpaceOnUse" color-interpolation-filters="sRGB">
<feFlood flood-opacity="0" result="BackgroundImageFix"/>
<feBlend mode="normal" in="SourceGraphic" in2="BackgroundImageFix" result="shape"/>
<feColorMatrix in="SourceAlpha" type="matrix" values="0 0 0 0 0 0 0 0 0 0 0 0 0 0 0 0 0 0 127 0" result="hardAlpha"/>
<feOffset dx="-0.25" dy="-0.5"/>
<feGaussianBlur stdDeviation="0.75"/>
<feComposite in2="hardAlpha" operator="arithmetic" k2="-1" k3="1"/>
<feColorMatrix type="matrix" values="0 0 0 0 0.745098 0 0 0 0 0.772549 0 0 0 0 0.952941 0 0 0 1 0"/>
<feBlend mode="normal" in2="shape" result="effect1_innerShadow_188_2163"/>
</filter>
<filter id="filter1_dii_188_2163" x="22.8926" y="9.67773" width="11.03" height="11.0303" filterUnits="userSpaceOnUse" color-interpolation-filters="sRGB">
<feFlood flood-opacity="0" result="BackgroundImageFix"/>
<feColorMatrix in="SourceAlpha" type="matrix" values="0 0 0 0 0 0 0 0 0 0 0 0 0 0 0 0 0 0 127 0" result="hardAlpha"/>
<feOffset dy="0.25"/>
<feGaussianBlur stdDeviation="0.5"/>
<feComposite in2="hardAlpha" operator="out"/>
<feColorMatrix type="matrix" values="0 0 0 0 0.866667 0 0 0 0 0.764706 0 0 0 0 0.847059 0 0 0 1 0"/>
<feBlend mode="normal" in2="BackgroundImageFix" result="effect1_dropShadow_188_2163"/>
<feBlend mode="normal" in="SourceGraphic" in2="effect1_dropShadow_188_2163" result="shape"/>
<feColorMatrix in="SourceAlpha" type="matrix" values="0 0 0 0 0 0 0 0 0 0 0 0 0 0 0 0 0 0 127 0" result="hardAlpha"/>
<feOffset dx="-0.1" dy="0.1"/>
<feGaussianBlur stdDeviation="0.05"/>
<feComposite in2="hardAlpha" operator="arithmetic" k2="-1" k3="1"/>
<feColorMatrix type="matrix" values="0 0 0 0 0.721569 0 0 0 0 0.690196 0 0 0 0 0.701961 0 0 0 1 0"/>
<feBlend mode="normal" in2="shape" result="effect2_innerShadow_188_2163"/>
<feColorMatrix in="SourceAlpha" type="matrix" values="0 0 0 0 0 0 0 0 0 0 0 0 0 0 0 0 0 0 127 0" result="hardAlpha"/>
<feOffset dx="0.1" dy="-0.1"/>
<feGaussianBlur stdDeviation="0.05"/>
<feComposite in2="hardAlpha" operator="arithmetic" k2="-1" k3="1"/>
<feColorMatrix type="matrix" values="0 0 0 0 0.615686 0 0 0 0 0.560784 0 0 0 0 0.65098 0 0 0 1 0"/>
<feBlend mode="normal" in2="effect2_innerShadow_188_2163" result="effect3_innerShadow_188_2163"/>
</filter>
<filter id="filter2_i_188_2163" x="2.80493" y="30.1867" width="10.1775" height="9.62871" filterUnits="userSpaceOnUse" color-interpolation-filters="sRGB">
<feFlood flood-opacity="0" result="BackgroundImageFix"/>
<feBlend mode="normal" in="SourceGraphic" in2="BackgroundImageFix" result="shape"/>
<feColorMatrix in="SourceAlpha" type="matrix" values="0 0 0 0 0 0 0 0 0 0 0 0 0 0 0 0 0 0 127 0" result="hardAlpha"/>
<feOffset dy="-0.2"/>
<feGaussianBlur stdDeviation="0.2"/>
<feComposite in2="hardAlpha" operator="arithmetic" k2="-1" k3="1"/>
<feColorMatrix type="matrix" values="0 0 0 0 0.847059 0 0 0 0 0.505882 0 0 0 0 0.360784 0 0 0 1 0"/>
<feBlend mode="normal" in2="shape" result="effect1_innerShadow_188_2163"/>
</filter>
<filter id="filter3_f_188_2163" x="11.3694" y="22.7041" width="9.55859" height="10.6514" filterUnits="userSpaceOnUse" color-interpolation-filters="sRGB">
<feFlood flood-opacity="0" result="BackgroundImageFix"/>
<feBlend mode="normal" in="SourceGraphic" in2="BackgroundImageFix" result="shape"/>
<feGaussianBlur stdDeviation="0.5" result="effect1_foregroundBlur_188_2163"/>
</filter>
<linearGradient id="paint0_linear_188_2163" x1="10.8991" y1="23.2582" x2="4.1804" y2="22.151" gradientUnits="userSpaceOnUse">
<stop stop-color="#EE2452"/>
<stop offset="1" stop-color="#F63E7A"/>
</linearGradient>
<radialGradient id="paint1_radial_188_2163" cx="0" cy="0" r="1" gradientUnits="userSpaceOnUse" gradientTransform="translate(3.2223 22.929) rotate(-19.9576) scale(10.7523 1.82811)">
<stop offset="0.164" stop-color="#FF8DB0"/>
<stop offset="1" stop-color="#FF8DB0" stop-opacity="0"/>
</radialGradient>
<linearGradient id="paint2_linear_188_2163" x1="6.59109" y1="26.5168" x2="7.68624" y2="25.4485" gradientUnits="userSpaceOnUse">
<stop offset="0.491" stop-color="#DD467C"/>
<stop offset="1" stop-color="#DD467C" stop-opacity="0"/>
</linearGradient>
<linearGradient id="paint3_linear_188_2163" x1="24.0425" y1="29.1223" x2="15.687" y2="35.6785" gradientUnits="userSpaceOnUse">
<stop stop-color="#F83267"/>
<stop offset="1" stop-color="#FF3190"/>
</linearGradient>
<radialGradient id="paint4_radial_188_2163" cx="0" cy="0" r="1" gradientUnits="userSpaceOnUse" gradientTransform="translate(19.5913 29.8354) rotate(86.482) scale(10.265 8.85001)">
<stop offset="0.757" stop-color="#E76CBE" stop-opacity="0"/>
<stop offset="0.951" stop-color="#E76CBE"/>
</radialGradient>
<radialGradient id="paint5_radial_188_2163" cx="0" cy="0" r="1" gradientUnits="userSpaceOnUse" gradientTransform="translate(18.0789 35.2525) rotate(-57.346) scale(7.08225 3.11087)">
<stop stop-color="#FF5898"/>
<stop offset="1" stop-color="#FF5898" stop-opacity="0"/>
</radialGradient>
<linearGradient id="paint6_linear_188_2163" x1="18.1218" y1="11.6528" x2="29.963" y2="23.5785" gradientUnits="userSpaceOnUse">
<stop stop-color="#CCBBC0"/>
<stop offset="1" stop-color="#EAD2EC"/>
</linearGradient>
<radialGradient id="paint7_radial_188_2163" cx="0" cy="0" r="1" gradientUnits="userSpaceOnUse" gradientTransform="translate(32.2097 28.9939) rotate(-142.447) scale(22.4096 42.1243)">
<stop offset="0.811" stop-color="#E7E5E5" stop-opacity="0"/>
<stop offset="1" stop-color="#E7E5E5"/>
</radialGradient>
<radialGradient id="paint8_radial_188_2163" cx="0" cy="0" r="1" gradientUnits="userSpaceOnUse" gradientTransform="translate(12.337 28.6351) rotate(-56.929) scale(13.1739 6.1916)">
<stop offset="0.281" stop-color="#B5A3A5"/>
<stop offset="1" stop-color="#B5A3A5" stop-opacity="0"/>
</radialGradient>
<radialGradient id="paint9_radial_188_2163" cx="0" cy="0" r="1" gradientUnits="userSpaceOnUse" gradientTransform="translate(8.52521 26.9967) rotate(-73.625) scale(11.6788 1.97894)">
<stop offset="0.208" stop-color="#B28F96"/>
<stop offset="1" stop-color="#B28F96" stop-opacity="0"/>
</radialGradient>
<radialGradient id="paint10_radial_188_2163" cx="0" cy="0" r="1" gradientUnits="userSpaceOnUse" gradientTransform="translate(36.4291 9.55381) rotate(137.284) scale(17.7039 5.49686)">
<stop stop-color="#FAECF1"/>
<stop offset="1" stop-color="#FAECF1" stop-opacity="0"/>
</radialGradient>
<linearGradient id="paint11_linear_188_2163" x1="23.8933" y1="14.0976" x2="32.9219" y2="14.8648" gradientUnits="userSpaceOnUse">
<stop stop-color="#A796A0"/>
<stop offset="1" stop-color="#A5959F"/>
</linearGradient>
<radialGradient id="paint12_radial_188_2163" cx="0" cy="0" r="1" gradientUnits="userSpaceOnUse" gradientTransform="translate(28.4096 14.8648) rotate(90) scale(4.51417)">
<stop offset="0.587" stop-color="#93859B"/>
<stop offset="1" stop-color="#93859B" stop-opacity="0"/>
</radialGradient>
<radialGradient id="paint13_radial_188_2163" cx="0" cy="0" r="1" gradientUnits="userSpaceOnUse" gradientTransform="translate(28.4071 17.99) rotate(-90) scale(6.51126 5.9881)">
<stop stop-color="#72CDFF"/>
<stop offset="0.738" stop-color="#66ACFF"/>
<stop offset="1" stop-color="#3B57F4"/>
</radialGradient>
<radialGradient id="paint14_radial_188_2163" cx="0" cy="0" r="1" gradientUnits="userSpaceOnUse" gradientTransform="translate(11.0067 32.5819) rotate(135) scale(7.80242 6.13288)">
<stop stop-color="#D46213"/>
<stop offset="1" stop-color="#FF9542"/>
</radialGradient>
<radialGradient id="paint15_radial_188_2163" cx="0" cy="0" r="1" gradientUnits="userSpaceOnUse" gradientTransform="translate(11.1586 38.9285) rotate(-131.186) scale(9.64078 10.1598)">
<stop offset="0.871" stop-color="#FFC484" stop-opacity="0"/>
<stop offset="1" stop-color="#FFC484"/>
</radialGradient>
<linearGradient id="paint16_linear_188_2163" x1="7.791" y1="29.4991" x2="15.1816" y2="36.7634" gradientUnits="userSpaceOnUse">
<stop stop-color="#452860"/>
<stop offset="1" stop-color="#51509F"/>
</linearGradient>
<radialGradient id="paint17_radial_188_2163" cx="0" cy="0" r="1" gradientUnits="userSpaceOnUse" gradientTransform="translate(9.17775 28.8272) rotate(77.8285) scale(2.19085 1.93567)">
<stop stop-color="#8E839A"/>
<stop offset="1" stop-color="#8E839A" stop-opacity="0"/>
</radialGradient>
<radialGradient id="paint18_radial_188_2163" cx="0" cy="0" r="1" gradientUnits="userSpaceOnUse" gradientTransform="translate(9.68435 30.124) rotate(47.9357) scale(8.34778 4.37574)">
<stop offset="0.86" stop-color="#6175B9" stop-opacity="0"/>
<stop offset="1" stop-color="#6175B9"/>
</radialGradient>
<linearGradient id="paint19_linear_188_2163" x1="39.2068" y1="3.86487" x2="34.2672" y2="8.80449" gradientUnits="userSpaceOnUse">
<stop stop-color="#FF3745"/>
<stop offset="1" stop-color="#ED224B"/>
</linearGradient>
<radialGradient id="paint20_radial_188_2163" cx="0" cy="0" r="1" gradientUnits="userSpaceOnUse" gradientTransform="translate(38.6182 5.84277) rotate(135) scale(11.0816 2.66022)">
<stop offset="0.189" stop-color="#FF5971"/>
<stop offset="1" stop-color="#FF5971" stop-opacity="0"/>
</radialGradient>
<linearGradient id="paint21_linear_188_2163" x1="34.6985" y1="9.13371" x2="35.1917" y2="8.61905" gradientUnits="userSpaceOnUse">
<stop stop-color="#D2575E"/>
<stop offset="1" stop-color="#F93251" stop-opacity="0"/>
</linearGradient>
<linearGradient id="paint22_linear_188_2163" x1="20.3714" y1="22.9317" x2="11.6558" y2="31.6472" gradientUnits="userSpaceOnUse">
<stop stop-color="#FF2644"/>
<stop offset="1" stop-color="#FF2982"/>
</linearGradient>
<radialGradient id="paint23_radial_188_2163" cx="0" cy="0" r="1" gradientUnits="userSpaceOnUse" gradientTransform="translate(8.37974 26.0989) rotate(-20.865) scale(10.0214 2.62353)">
<stop stop-color="#FF95AF"/>
<stop offset="1" stop-color="#FF95AF" stop-opacity="0"/>
</radialGradient>
<radialGradient id="paint24_radial_188_2163" cx="0" cy="0" r="1" gradientUnits="userSpaceOnUse" gradientTransform="translate(7.25368 27.2895) rotate(44.7044) scale(6.19497 1.82994)">
<stop offset="0.382" stop-color="#E14678"/>
<stop offset="1" stop-color="#E14678" stop-opacity="0"/>
</radialGradient>
<radialGradient id="paint25_radial_188_2163" cx="0" cy="0" r="1" gradientUnits="userSpaceOnUse" gradientTransform="translate(15.5607 25.72) rotate(84.6743) scale(9.95312 10.6065)">
<stop offset="0.832" stop-color="#E67BC7" stop-opacity="0"/>
<stop offset="1" stop-color="#E67BC7"/>
</radialGradient>
<linearGradient id="paint26_linear_188_2163" x1="18.7939" y1="24.3343" x2="13.2509" y2="30.1299" gradientUnits="userSpaceOnUse">
<stop stop-color="#FF5970"/>
<stop offset="1" stop-color="#FF5794"/>
</linearGradient>
<clipPath id="clip0_188_2163">
<rect width="43" height="43" fill="white"/>
</clipPath>
</defs>
</svg>
