<svg width="current" height="current" viewBox="0 0 30 30" fill="none" xmlns="http://www.w3.org/2000/svg">
<path d="M23.025 3.49664L23.5075 3.56664C24.2575 3.68539 25.0975 3.88414 25.6138 4.40039C26.13 4.91664 26.33 5.75789 26.4488 6.50789L26.5188 6.98914C26.6763 8.12664 26.7175 9.61789 26.4488 11.2729C25.9188 14.5391 24.18 18.4354 19.8138 21.4541C19.7946 21.6774 19.7876 21.9014 19.7925 22.1254L19.8138 22.8041C19.8263 23.2566 19.8188 23.7079 19.6938 24.1416C19.4563 24.9666 18.61 25.5104 17.8188 25.9004L17.4313 26.0841L16.9313 26.3041L16.59 26.4416C15.7063 26.7791 14.64 27.0154 13.9425 26.3166C13.6263 26.0004 13.48 25.5704 13.3625 25.1404L13.305 24.9254C13.105 24.1666 12.8788 23.4129 12.5963 22.6829C12.5183 22.7777 12.4357 22.8687 12.3488 22.9554C11.6675 23.6354 10.7438 23.9779 9.82001 24.2429L9.20626 24.4116L8.59376 24.5741L7.99626 24.7241L7.45626 24.8491L6.81001 24.9866L6.40626 25.0654C6.20489 25.1027 5.99748 25.0904 5.80191 25.0297C5.60635 24.9689 5.42849 24.8615 5.28368 24.7167C5.13888 24.5719 5.03147 24.3941 4.97073 24.1985C4.90998 24.0029 4.89772 23.7955 4.93501 23.5941L5.07376 22.9054L5.23501 22.1829L5.39001 21.5454L5.67126 20.4891C5.95001 19.4641 6.28876 18.4079 7.04626 17.6516L7.17001 17.5329L6.21626 17.1904L5.25751 16.8604C4.69626 16.6754 4.10626 16.4804 3.69876 16.0729C2.95376 15.3279 3.27001 14.1654 3.64126 13.2516L3.84876 12.7679L4.02001 12.3916C4.41626 11.5491 4.97876 10.5791 5.87376 10.3216C6.30751 10.1966 6.75751 10.1891 7.21126 10.2004L7.89001 10.2229C8.11501 10.2287 8.33876 10.2216 8.56126 10.2016C11.5788 5.83539 15.4763 4.09664 18.7425 3.56664C20.1588 3.33328 21.6018 3.30969 23.025 3.49664ZM19.1425 6.03414C16.395 6.48039 13.0563 7.95164 10.4513 11.8704C10.135 12.3454 9.60126 12.5716 9.05751 12.6579C8.75001 12.7079 8.44001 12.7204 8.12876 12.7204L7.19501 12.7066C7.04001 12.7058 6.88459 12.7083 6.72876 12.7141C6.34876 13.2191 6.08376 13.8191 5.88501 14.4154L7.76001 15.0966L8.53126 15.3879C9.94126 15.9404 11.3063 16.6091 12.3563 17.6591C14.125 19.4279 15.0238 21.7416 15.6738 24.1054C16.2438 23.9054 16.8163 23.6504 17.3013 23.2866L17.3088 22.8204L17.295 21.8879C17.295 21.5779 17.3075 21.2679 17.3575 20.9579C17.4425 20.4141 17.67 19.8804 18.145 19.5641C22.0638 16.9591 23.535 13.6204 23.9813 10.8729C24.2063 9.48539 24.1688 8.24539 24.0425 7.33164C23.9939 6.95257 23.9132 6.57831 23.8013 6.21289C23.4358 6.10137 23.0615 6.02109 22.6825 5.97289C21.5058 5.82041 20.3131 5.84021 19.1425 6.03414ZM8.81251 19.4191C8.37501 19.9479 8.17126 20.6416 8.00751 21.3291L7.87251 21.9141L7.80376 22.1966L8.67126 21.9929C9.35876 21.8304 10.0538 21.6241 10.5813 21.1866C10.8156 20.9521 10.9473 20.634 10.9471 20.3025C10.947 19.9709 10.8152 19.6529 10.5806 19.4185C10.3461 19.1841 10.028 19.0525 9.69644 19.0526C9.36485 19.0528 9.04689 19.1846 8.81251 19.4191ZM15.8838 10.5816C16.1159 10.3495 16.3914 10.1652 16.6947 10.0396C16.998 9.91386 17.3231 9.84914 17.6514 9.84908C17.9798 9.84902 18.3049 9.91363 18.6082 10.0392C18.9115 10.1648 19.1872 10.3489 19.4194 10.581C19.6516 10.8131 19.8358 11.0887 19.9615 11.392C20.0872 11.6953 20.1519 12.0204 20.1519 12.3487C20.152 12.677 20.0874 13.0021 19.9618 13.3055C19.8362 13.6088 19.6521 13.8845 19.42 14.1166C18.9511 14.5856 18.3151 14.849 17.6519 14.849C16.9887 14.849 16.3527 14.5856 15.8838 14.1166C15.4148 13.6477 15.1514 13.0117 15.1514 12.3485C15.1514 11.6853 15.4148 11.0493 15.8838 10.5804V10.5816Z" fill="currentColor"/>
</svg>
