<svg width="current" height="current" viewBox="0 0 60 60" fill="none" xmlns="http://www.w3.org/2000/svg">
<rect x="0.5" y="0.5" width="59" height="59" rx="29.5" fill="#CED0FF"/>
<g clip-path="url(#clip0_601_575)">
<mask id="mask0_601_575" style="mask-type:luminance" maskUnits="userSpaceOnUse" x="12" y="12" width="36" height="36">
<path d="M12.5 12.5H47.5V47.5H12.5V12.5Z" fill="white"/>
</mask>
<g mask="url(#mask0_601_575)">
<path d="M24.0741 27.504C25.3866 27.0206 26.663 28.297 26.1795 29.6106L23.3172 37.3915C23.2538 37.5639 23.1481 37.7176 23.0097 37.8383C22.8714 37.9591 22.7048 38.0431 22.5255 38.0825C22.3461 38.122 22.1597 38.1156 21.9834 38.064C21.8071 38.0125 21.6467 37.9173 21.5169 37.7874L15.8972 32.1678C15.7675 32.0379 15.6726 31.8775 15.6212 31.7014C15.5698 31.5253 15.5635 31.339 15.6029 31.1598C15.6424 30.9806 15.7262 30.8142 15.8469 30.6759C15.9675 30.5377 16.1209 30.4319 16.2931 30.3685L24.0741 27.504Z" fill="url(#paint0_linear_601_575)"/>
<path d="M24.0741 27.504C25.3866 27.0206 26.663 28.297 26.1795 29.6106L23.3172 37.3915C23.2538 37.5639 23.1481 37.7176 23.0097 37.8383C22.8714 37.9591 22.7048 38.0431 22.5255 38.0825C22.3461 38.122 22.1597 38.1156 21.9834 38.064C21.8071 38.0125 21.6467 37.9173 21.5169 37.7874L15.8972 32.1678C15.7675 32.0379 15.6726 31.8775 15.6212 31.7014C15.5698 31.5253 15.5635 31.339 15.6029 31.1598C15.6424 30.9806 15.7262 30.8142 15.8469 30.6759C15.9675 30.5377 16.1209 30.4319 16.2931 30.3685L24.0741 27.504Z" fill="url(#paint1_radial_601_575)"/>
<path d="M24.0741 27.504C25.3866 27.0206 26.663 28.297 26.1795 29.6106L23.3172 37.3915C23.2538 37.5639 23.1481 37.7176 23.0097 37.8383C22.8714 37.9591 22.7048 38.0431 22.5255 38.0825C22.3461 38.122 22.1597 38.1156 21.9834 38.064C21.8071 38.0125 21.6467 37.9173 21.5169 37.7874L15.8972 32.1678C15.7675 32.0379 15.6726 31.8775 15.6212 31.7014C15.5698 31.5253 15.5635 31.339 15.6029 31.1598C15.6424 30.9806 15.7262 30.8142 15.8469 30.6759C15.9675 30.5377 16.1209 30.4319 16.2931 30.3685L24.0741 27.504Z" fill="url(#paint2_linear_601_575)"/>
<path d="M30.6365 34.0665C31.949 33.5831 33.2254 34.8595 32.742 36.1731L29.8775 43.954C29.8141 44.1262 29.7084 44.2796 29.5701 44.4003C29.4318 44.5209 29.2654 44.6048 29.0862 44.6442C28.907 44.6836 28.7207 44.6773 28.5446 44.6259C28.3685 44.5745 28.2081 44.4796 28.0783 44.3499L22.4586 38.7303C22.3289 38.6004 22.234 38.44 22.1826 38.2639C22.1312 38.0878 22.1249 37.9015 22.1643 37.7223C22.2038 37.5431 22.2876 37.3767 22.4083 37.2384C22.5289 37.1002 22.6823 36.9944 22.8545 36.931L30.6365 34.0665Z" fill="url(#paint3_linear_601_575)"/>
<path d="M30.6365 34.0665C31.949 33.5831 33.2254 34.8595 32.742 36.1731L29.8775 43.954C29.8141 44.1262 29.7084 44.2796 29.5701 44.4003C29.4318 44.5209 29.2654 44.6048 29.0862 44.6442C28.907 44.6836 28.7207 44.6773 28.5446 44.6259C28.3685 44.5745 28.2081 44.4796 28.0783 44.3499L22.4586 38.7303C22.3289 38.6004 22.234 38.44 22.1826 38.2639C22.1312 38.0878 22.1249 37.9015 22.1643 37.7223C22.2038 37.5431 22.2876 37.3767 22.4083 37.2384C22.5289 37.1002 22.6823 36.9944 22.8545 36.931L30.6365 34.0665Z" fill="url(#paint4_radial_601_575)"/>
<path d="M30.6365 34.0665C31.949 33.5831 33.2254 34.8595 32.742 36.1731L29.8775 43.954C29.8141 44.1262 29.7084 44.2796 29.5701 44.4003C29.4318 44.5209 29.2654 44.6048 29.0862 44.6442C28.907 44.6836 28.7207 44.6773 28.5446 44.6259C28.3685 44.5745 28.2081 44.4796 28.0783 44.3499L22.4586 38.7303C22.3289 38.6004 22.234 38.44 22.1826 38.2639C22.1312 38.0878 22.1249 37.9015 22.1643 37.7223C22.2038 37.5431 22.2876 37.3767 22.4083 37.2384C22.5289 37.1002 22.6823 36.9944 22.8545 36.931L30.6365 34.0665Z" fill="url(#paint5_radial_601_575)"/>
<g filter="url(#filter0_i_601_575)">
<path d="M37 16.3827C37.0299 16.3708 37.0626 16.368 37.0942 16.3746C37.1257 16.3812 37.1545 16.3969 37.1772 16.4198L43.6139 22.9058C43.6366 22.9285 43.6521 22.9575 43.6585 22.989C43.6649 23.0205 43.662 23.0531 43.65 23.083C42.1078 26.8673 39.9826 30.8923 37.1378 33.7383C34.3662 36.5098 29.6784 38.8713 25.4456 40.6081L19.4398 34.6013C21.1767 30.3684 23.5381 25.6817 26.3097 22.9102C29.1643 20.0555 33.2047 17.9259 36.9989 16.3837" fill="url(#paint6_linear_601_575)"/>
<path d="M37 16.3827C37.0299 16.3708 37.0626 16.368 37.0942 16.3746C37.1257 16.3812 37.1545 16.3969 37.1772 16.4198L43.6139 22.9058C43.6366 22.9285 43.6521 22.9575 43.6585 22.989C43.6649 23.0205 43.662 23.0531 43.65 23.083C42.1078 26.8673 39.9826 30.8923 37.1378 33.7383C34.3662 36.5098 29.6784 38.8713 25.4456 40.6081L19.4398 34.6013C21.1767 30.3684 23.5381 25.6817 26.3097 22.9102C29.1643 20.0555 33.2047 17.9259 36.9989 16.3837" fill="url(#paint7_radial_601_575)"/>
<path d="M37 16.3827C37.0299 16.3708 37.0626 16.368 37.0942 16.3746C37.1257 16.3812 37.1545 16.3969 37.1772 16.4198L43.6139 22.9058C43.6366 22.9285 43.6521 22.9575 43.6585 22.989C43.6649 23.0205 43.662 23.0531 43.65 23.083C42.1078 26.8673 39.9826 30.8923 37.1378 33.7383C34.3662 36.5098 29.6784 38.8713 25.4456 40.6081L19.4398 34.6013C21.1767 30.3684 23.5381 25.6817 26.3097 22.9102C29.1643 20.0555 33.2047 17.9259 36.9989 16.3837" fill="url(#paint8_radial_601_575)"/>
<path d="M37 16.3827C37.0299 16.3708 37.0626 16.368 37.0942 16.3746C37.1257 16.3812 37.1545 16.3969 37.1772 16.4198L43.6139 22.9058C43.6366 22.9285 43.6521 22.9575 43.6585 22.989C43.6649 23.0205 43.662 23.0531 43.65 23.083C42.1078 26.8673 39.9826 30.8923 37.1378 33.7383C34.3662 36.5098 29.6784 38.8713 25.4456 40.6081L19.4398 34.6013C21.1767 30.3684 23.5381 25.6817 26.3097 22.9102C29.1643 20.0555 33.2047 17.9259 36.9989 16.3837" fill="url(#paint9_radial_601_575)"/>
<path d="M37 16.3827C37.0299 16.3708 37.0626 16.368 37.0942 16.3746C37.1257 16.3812 37.1545 16.3969 37.1772 16.4198L43.6139 22.9058C43.6366 22.9285 43.6521 22.9575 43.6585 22.989C43.6649 23.0205 43.662 23.0531 43.65 23.083C42.1078 26.8673 39.9826 30.8923 37.1378 33.7383C34.3662 36.5098 29.6784 38.8713 25.4456 40.6081L19.4398 34.6013C21.1767 30.3684 23.5381 25.6817 26.3097 22.9102C29.1643 20.0555 33.2047 17.9259 36.9989 16.3837" fill="url(#paint10_radial_601_575)"/>
</g>
<g filter="url(#filter1_dii_601_575)">
<path d="M39.2969 24.5989C39.3053 25.0868 39.2165 25.5714 39.0356 26.0246C38.8547 26.4778 38.5854 26.8904 38.2434 27.2384C37.9013 27.5864 37.4934 27.8628 37.0434 28.0515C36.5934 28.2401 36.1104 28.3373 35.6224 28.3373C35.1345 28.3373 34.6514 28.2401 34.2014 28.0515C33.7514 27.8628 33.3435 27.5864 33.0015 27.2384C32.6594 26.8904 32.3901 26.4778 32.2092 26.0246C32.0284 25.5714 31.9395 25.0868 31.948 24.5989C31.9646 23.6354 32.359 22.7169 33.0463 22.0414C33.7336 21.3658 34.6587 20.9873 35.6224 20.9873C36.5861 20.9873 37.5112 21.3658 38.1985 22.0414C38.8858 22.7169 39.2802 23.6354 39.2969 24.5989Z" fill="url(#paint11_linear_601_575)"/>
<path d="M39.2969 24.5989C39.3053 25.0868 39.2165 25.5714 39.0356 26.0246C38.8547 26.4778 38.5854 26.8904 38.2434 27.2384C37.9013 27.5864 37.4934 27.8628 37.0434 28.0515C36.5934 28.2401 36.1104 28.3373 35.6224 28.3373C35.1345 28.3373 34.6514 28.2401 34.2014 28.0515C33.7514 27.8628 33.3435 27.5864 33.0015 27.2384C32.6594 26.8904 32.3901 26.4778 32.2092 26.0246C32.0284 25.5714 31.9395 25.0868 31.948 24.5989C31.9646 23.6354 32.359 22.7169 33.0463 22.0414C33.7336 21.3658 34.6587 20.9873 35.6224 20.9873C36.5861 20.9873 37.5112 21.3658 38.1985 22.0414C38.8858 22.7169 39.2802 23.6354 39.2969 24.5989Z" fill="url(#paint12_radial_601_575)"/>
</g>
<path d="M38.1659 24.5997C38.1729 24.9382 38.1123 25.2746 37.9877 25.5894C37.863 25.9041 37.6768 26.1908 37.4399 26.4326C37.203 26.6745 36.9202 26.8666 36.6081 26.9978C36.2961 27.129 35.9609 27.1965 35.6224 27.1965C35.2839 27.1965 34.9487 27.129 34.6367 26.9978C34.3246 26.8666 34.0418 26.6745 33.8049 26.4326C33.568 26.1908 33.3818 25.9041 33.2571 25.5894C33.1325 25.2746 33.0719 24.9382 33.0789 24.5997C33.0927 23.9343 33.3667 23.3007 33.8422 22.835C34.3177 22.3692 34.9568 22.1084 35.6224 22.1084C36.288 22.1084 36.9271 22.3692 37.4026 22.835C37.8781 23.3007 38.1521 23.9343 38.1659 24.5997Z" fill="url(#paint13_radial_601_575)"/>
<g filter="url(#filter2_i_601_575)">
<path d="M15.1501 44.8018C14.3769 44.0285 14.6875 38.6647 17.4219 37.571C17.4219 37.571 20.1562 36.4772 21.9183 38.2272C23.6803 39.9772 22.8906 41.946 22.8906 41.946C22.1173 44.2658 18.8251 45.1878 18.438 44.8007C18.2247 44.5874 18.6086 44.1991 18.438 44.0285C18.2673 43.8568 18.0026 44.0525 17.2786 44.4146C16.7623 44.6727 15.4597 45.1113 15.1501 44.8018Z" fill="url(#paint14_radial_601_575)"/>
<path d="M15.1501 44.8018C14.3769 44.0285 14.6875 38.6647 17.4219 37.571C17.4219 37.571 20.1562 36.4772 21.9183 38.2272C23.6803 39.9772 22.8906 41.946 22.8906 41.946C22.1173 44.2658 18.8251 45.1878 18.438 44.8007C18.2247 44.5874 18.6086 44.1991 18.438 44.0285C18.2673 43.8568 18.0026 44.0525 17.2786 44.4146C16.7623 44.6727 15.4597 45.1113 15.1501 44.8018Z" fill="url(#paint15_radial_601_575)"/>
</g>
<path d="M19.1281 35.4497C19.2805 35.2972 19.4614 35.1763 19.6605 35.0937C19.8596 35.0112 20.073 34.9687 20.2886 34.9688C20.5041 34.9688 20.7176 35.0112 20.9167 35.0937C21.1158 35.1763 21.2967 35.2972 21.4491 35.4497L25.3155 39.3171C25.6091 39.6275 25.7701 40.0401 25.7643 40.4672C25.7585 40.8944 25.5862 41.3025 25.2842 41.6046C24.9822 41.9068 24.5742 42.0792 24.147 42.0853C23.7198 42.0913 23.3072 41.9305 22.9967 41.637L19.1281 37.7706C18.9757 37.6182 18.8547 37.4373 18.7722 37.2382C18.6897 37.0391 18.6472 36.8257 18.6472 36.6101C18.6472 36.3946 18.6897 36.1812 18.7722 35.982C18.8547 35.7829 18.9757 35.602 19.1281 35.4497Z" fill="url(#paint16_linear_601_575)"/>
<path d="M19.1281 35.4497C19.2805 35.2972 19.4614 35.1763 19.6605 35.0937C19.8596 35.0112 20.073 34.9687 20.2886 34.9688C20.5041 34.9688 20.7176 35.0112 20.9167 35.0937C21.1158 35.1763 21.2967 35.2972 21.4491 35.4497L25.3155 39.3171C25.6091 39.6275 25.7701 40.0401 25.7643 40.4672C25.7585 40.8944 25.5862 41.3025 25.2842 41.6046C24.9822 41.9068 24.5742 42.0792 24.147 42.0853C23.7198 42.0913 23.3072 41.9305 22.9967 41.637L19.1281 37.7706C18.9757 37.6182 18.8547 37.4373 18.7722 37.2382C18.6897 37.0391 18.6472 36.8257 18.6472 36.6101C18.6472 36.3946 18.6897 36.1812 18.7722 35.982C18.8547 35.7829 18.9757 35.602 19.1281 35.4497Z" fill="url(#paint17_radial_601_575)"/>
<path d="M19.1281 35.4497C19.2805 35.2972 19.4614 35.1763 19.6605 35.0937C19.8596 35.0112 20.073 34.9687 20.2886 34.9688C20.5041 34.9688 20.7176 35.0112 20.9167 35.0937C21.1158 35.1763 21.2967 35.2972 21.4491 35.4497L25.3155 39.3171C25.6091 39.6275 25.7701 40.0401 25.7643 40.4672C25.7585 40.8944 25.5862 41.3025 25.2842 41.6046C24.9822 41.9068 24.5742 42.0792 24.147 42.0853C23.7198 42.0913 23.3072 41.9305 22.9967 41.637L19.1281 37.7706C18.9757 37.6182 18.8547 37.4373 18.7722 37.2382C18.6897 37.0391 18.6472 36.8257 18.6472 36.6101C18.6472 36.3946 18.6897 36.1812 18.7722 35.982C18.8547 35.7829 18.9757 35.602 19.1281 35.4497Z" fill="url(#paint18_radial_601_575)"/>
<path d="M44.4069 15.6404C43.3711 14.6047 41.5544 14.7217 40.2309 15.1767C39.2325 15.5191 38.2427 15.8863 37.2625 16.2781C37.2458 16.2848 37.231 16.2955 37.2194 16.3094C37.2078 16.3232 37.1998 16.3396 37.1962 16.3573C37.1925 16.3749 37.1932 16.3932 37.1983 16.4105C37.2034 16.4278 37.2127 16.4435 37.2253 16.4564L43.58 22.8537C43.5928 22.8662 43.6084 22.8753 43.6255 22.8803C43.6426 22.8853 43.6607 22.8861 43.6781 22.8825C43.6956 22.879 43.7119 22.8712 43.7257 22.8599C43.7395 22.8486 43.7503 22.8341 43.7572 22.8176C44.1539 21.8271 44.5255 20.8267 44.8717 19.8175C45.3202 18.5115 45.6811 16.9147 44.4069 15.6404Z" fill="url(#paint19_linear_601_575)"/>
<path d="M44.4069 15.6404C43.3711 14.6047 41.5544 14.7217 40.2309 15.1767C39.2325 15.5191 38.2427 15.8863 37.2625 16.2781C37.2458 16.2848 37.231 16.2955 37.2194 16.3094C37.2078 16.3232 37.1998 16.3396 37.1962 16.3573C37.1925 16.3749 37.1932 16.3932 37.1983 16.4105C37.2034 16.4278 37.2127 16.4435 37.2253 16.4564L43.58 22.8537C43.5928 22.8662 43.6084 22.8753 43.6255 22.8803C43.6426 22.8853 43.6607 22.8861 43.6781 22.8825C43.6956 22.879 43.7119 22.8712 43.7257 22.8599C43.7395 22.8486 43.7503 22.8341 43.7572 22.8176C44.1539 21.8271 44.5255 20.8267 44.8717 19.8175C45.3202 18.5115 45.6811 16.9147 44.4069 15.6404Z" fill="url(#paint20_radial_601_575)"/>
<path d="M44.4069 15.6404C43.3711 14.6047 41.5544 14.7217 40.2309 15.1767C39.2325 15.5191 38.2427 15.8863 37.2625 16.2781C37.2458 16.2848 37.231 16.2955 37.2194 16.3094C37.2078 16.3232 37.1998 16.3396 37.1962 16.3573C37.1925 16.3749 37.1932 16.3932 37.1983 16.4105C37.2034 16.4278 37.2127 16.4435 37.2253 16.4564L43.58 22.8537C43.5928 22.8662 43.6084 22.8753 43.6255 22.8803C43.6426 22.8853 43.6607 22.8861 43.6781 22.8825C43.6956 22.879 43.7119 22.8712 43.7257 22.8599C43.7395 22.8486 43.7503 22.8341 43.7572 22.8176C44.1539 21.8271 44.5255 20.8267 44.8717 19.8175C45.3202 18.5115 45.6811 16.9147 44.4069 15.6404Z" fill="url(#paint21_linear_601_575)"/>
<path d="M27.3553 30.7853C28.6678 30.3018 29.9442 31.5782 29.4608 32.8918L26.5973 40.6728C26.534 40.8451 26.4283 40.9988 26.2899 41.1196C26.1515 41.2403 25.985 41.3243 25.8056 41.3638C25.6262 41.4032 25.4398 41.3969 25.2635 41.3453C25.0873 41.2937 24.9268 41.1986 24.797 41.0687L19.1773 35.449C19.0477 35.3192 18.9528 35.1588 18.9013 34.9827C18.8499 34.8065 18.8436 34.6203 18.8831 34.4411C18.9225 34.2619 19.0064 34.0955 19.127 33.9572C19.2476 33.8189 19.4011 33.7132 19.5733 33.6498L27.3553 30.7853Z" fill="url(#paint22_linear_601_575)"/>
<path d="M27.3553 30.7853C28.6678 30.3018 29.9442 31.5782 29.4608 32.8918L26.5973 40.6728C26.534 40.8451 26.4283 40.9988 26.2899 41.1196C26.1515 41.2403 25.985 41.3243 25.8056 41.3638C25.6262 41.4032 25.4398 41.3969 25.2635 41.3453C25.0873 41.2937 24.9268 41.1986 24.797 41.0687L19.1773 35.449C19.0477 35.3192 18.9528 35.1588 18.9013 34.9827C18.8499 34.8065 18.8436 34.6203 18.8831 34.4411C18.9225 34.2619 19.0064 34.0955 19.127 33.9572C19.2476 33.8189 19.4011 33.7132 19.5733 33.6498L27.3553 30.7853Z" fill="url(#paint23_radial_601_575)"/>
<path d="M27.3553 30.7853C28.6678 30.3018 29.9442 31.5782 29.4608 32.8918L26.5973 40.6728C26.534 40.8451 26.4283 40.9988 26.2899 41.1196C26.1515 41.2403 25.985 41.3243 25.8056 41.3638C25.6262 41.4032 25.4398 41.3969 25.2635 41.3453C25.0873 41.2937 24.9268 41.1986 24.797 41.0687L19.1773 35.449C19.0477 35.3192 18.9528 35.1588 18.9013 34.9827C18.8499 34.8065 18.8436 34.6203 18.8831 34.4411C18.9225 34.2619 19.0064 34.0955 19.127 33.9572C19.2476 33.8189 19.4011 33.7132 19.5733 33.6498L27.3553 30.7853Z" fill="url(#paint24_radial_601_575)"/>
<path d="M27.3553 30.7853C28.6678 30.3018 29.9442 31.5782 29.4608 32.8918L26.5973 40.6728C26.534 40.8451 26.4283 40.9988 26.2899 41.1196C26.1515 41.2403 25.985 41.3243 25.8056 41.3638C25.6262 41.4032 25.4398 41.3969 25.2635 41.3453C25.0873 41.2937 24.9268 41.1986 24.797 41.0687L19.1773 35.449C19.0477 35.3192 18.9528 35.1588 18.9013 34.9827C18.8499 34.8065 18.8436 34.6203 18.8831 34.4411C18.9225 34.2619 19.0064 34.0955 19.127 33.9572C19.2476 33.8189 19.4011 33.7132 19.5733 33.6498L27.3553 30.7853Z" fill="url(#paint25_radial_601_575)"/>
<g filter="url(#filter3_f_601_575)">
<path d="M22.568 36.6141L28.7203 31.7939L24.7555 38.8355L22.568 36.6141Z" fill="url(#paint26_linear_601_575)"/>
</g>
</g>
</g>
<defs>
<filter id="filter0_i_601_575" x="19.1898" y="15.8711" width="24.472" height="24.7373" filterUnits="userSpaceOnUse" color-interpolation-filters="sRGB">
<feFlood flood-opacity="0" result="BackgroundImageFix"/>
<feBlend mode="normal" in="SourceGraphic" in2="BackgroundImageFix" result="shape"/>
<feColorMatrix in="SourceAlpha" type="matrix" values="0 0 0 0 0 0 0 0 0 0 0 0 0 0 0 0 0 0 127 0" result="hardAlpha"/>
<feOffset dx="-0.25" dy="-0.5"/>
<feGaussianBlur stdDeviation="0.75"/>
<feComposite in2="hardAlpha" operator="arithmetic" k2="-1" k3="1"/>
<feColorMatrix type="matrix" values="0 0 0 0 0.745098 0 0 0 0 0.772549 0 0 0 0 0.952941 0 0 0 1 0"/>
<feBlend mode="normal" in2="shape" result="effect1_innerShadow_601_575"/>
</filter>
<filter id="filter1_dii_601_575" x="30.9474" y="20.2373" width="9.35001" height="9.34961" filterUnits="userSpaceOnUse" color-interpolation-filters="sRGB">
<feFlood flood-opacity="0" result="BackgroundImageFix"/>
<feColorMatrix in="SourceAlpha" type="matrix" values="0 0 0 0 0 0 0 0 0 0 0 0 0 0 0 0 0 0 127 0" result="hardAlpha"/>
<feOffset dy="0.25"/>
<feGaussianBlur stdDeviation="0.5"/>
<feComposite in2="hardAlpha" operator="out"/>
<feColorMatrix type="matrix" values="0 0 0 0 0.866667 0 0 0 0 0.764706 0 0 0 0 0.847059 0 0 0 1 0"/>
<feBlend mode="normal" in2="BackgroundImageFix" result="effect1_dropShadow_601_575"/>
<feBlend mode="normal" in="SourceGraphic" in2="effect1_dropShadow_601_575" result="shape"/>
<feColorMatrix in="SourceAlpha" type="matrix" values="0 0 0 0 0 0 0 0 0 0 0 0 0 0 0 0 0 0 127 0" result="hardAlpha"/>
<feOffset dx="-0.1" dy="0.1"/>
<feGaussianBlur stdDeviation="0.05"/>
<feComposite in2="hardAlpha" operator="arithmetic" k2="-1" k3="1"/>
<feColorMatrix type="matrix" values="0 0 0 0 0.721569 0 0 0 0 0.690196 0 0 0 0 0.701961 0 0 0 1 0"/>
<feBlend mode="normal" in2="shape" result="effect2_innerShadow_601_575"/>
<feColorMatrix in="SourceAlpha" type="matrix" values="0 0 0 0 0 0 0 0 0 0 0 0 0 0 0 0 0 0 127 0" result="hardAlpha"/>
<feOffset dx="0.1" dy="-0.1"/>
<feGaussianBlur stdDeviation="0.05"/>
<feComposite in2="hardAlpha" operator="arithmetic" k2="-1" k3="1"/>
<feColorMatrix type="matrix" values="0 0 0 0 0.615686 0 0 0 0 0.560784 0 0 0 0 0.65098 0 0 0 1 0"/>
<feBlend mode="normal" in2="effect2_innerShadow_601_575" result="effect3_innerShadow_601_575"/>
</filter>
<filter id="filter2_i_601_575" x="14.783" y="37.0334" width="8.28403" height="7.8748" filterUnits="userSpaceOnUse" color-interpolation-filters="sRGB">
<feFlood flood-opacity="0" result="BackgroundImageFix"/>
<feBlend mode="normal" in="SourceGraphic" in2="BackgroundImageFix" result="shape"/>
<feColorMatrix in="SourceAlpha" type="matrix" values="0 0 0 0 0 0 0 0 0 0 0 0 0 0 0 0 0 0 127 0" result="hardAlpha"/>
<feOffset dy="-0.2"/>
<feGaussianBlur stdDeviation="0.2"/>
<feComposite in2="hardAlpha" operator="arithmetic" k2="-1" k3="1"/>
<feColorMatrix type="matrix" values="0 0 0 0 0.847059 0 0 0 0 0.505882 0 0 0 0 0.360784 0 0 0 1 0"/>
<feBlend mode="normal" in2="shape" result="effect1_innerShadow_601_575"/>
</filter>
<filter id="filter3_f_601_575" x="21.568" y="30.7939" width="8.15234" height="9.04199" filterUnits="userSpaceOnUse" color-interpolation-filters="sRGB">
<feFlood flood-opacity="0" result="BackgroundImageFix"/>
<feBlend mode="normal" in="SourceGraphic" in2="BackgroundImageFix" result="shape"/>
<feGaussianBlur stdDeviation="0.5" result="effect1_foregroundBlur_601_575"/>
</filter>
<linearGradient id="paint0_linear_601_575" x1="21.3714" y1="31.4306" x2="15.9026" y2="30.5293" gradientUnits="userSpaceOnUse">
<stop stop-color="#EE2452"/>
<stop offset="1" stop-color="#F63E7A"/>
</linearGradient>
<radialGradient id="paint1_radial_601_575" cx="0" cy="0" r="1" gradientUnits="userSpaceOnUse" gradientTransform="translate(15.1228 31.1626) rotate(-19.9576) scale(8.75183 1.488)">
<stop offset="0.164" stop-color="#FF8DB0"/>
<stop offset="1" stop-color="#FF8DB0" stop-opacity="0"/>
</radialGradient>
<linearGradient id="paint2_linear_601_575" x1="17.8648" y1="34.0829" x2="18.7562" y2="33.2134" gradientUnits="userSpaceOnUse">
<stop offset="0.491" stop-color="#DD467C"/>
<stop offset="1" stop-color="#DD467C" stop-opacity="0"/>
</linearGradient>
<linearGradient id="paint3_linear_601_575" x1="32.0694" y1="36.2037" x2="25.2684" y2="41.5401" gradientUnits="userSpaceOnUse">
<stop stop-color="#F83267"/>
<stop offset="1" stop-color="#FF3190"/>
</linearGradient>
<radialGradient id="paint4_radial_601_575" cx="0" cy="0" r="1" gradientUnits="userSpaceOnUse" gradientTransform="translate(28.4463 36.7841) rotate(86.482) scale(8.35523 7.2035)">
<stop offset="0.757" stop-color="#E76CBE" stop-opacity="0"/>
<stop offset="0.951" stop-color="#E76CBE"/>
</radialGradient>
<radialGradient id="paint5_radial_601_575" cx="0" cy="0" r="1" gradientUnits="userSpaceOnUse" gradientTransform="translate(27.2153 41.1934) rotate(-57.346) scale(5.76462 2.53211)">
<stop stop-color="#FF5898"/>
<stop offset="1" stop-color="#FF5898" stop-opacity="0"/>
</radialGradient>
<linearGradient id="paint6_linear_601_575" x1="27.2503" y1="21.9848" x2="36.8884" y2="31.6919" gradientUnits="userSpaceOnUse">
<stop stop-color="#CCBBC0"/>
<stop offset="1" stop-color="#EAD2EC"/>
</linearGradient>
<radialGradient id="paint7_radial_601_575" cx="0" cy="0" r="1" gradientUnits="userSpaceOnUse" gradientTransform="translate(38.7172 36.0997) rotate(-142.447) scale(18.2404 34.2872)">
<stop offset="0.811" stop-color="#E7E5E5" stop-opacity="0"/>
<stop offset="1" stop-color="#E7E5E5"/>
</radialGradient>
<radialGradient id="paint8_radial_601_575" cx="0" cy="0" r="1" gradientUnits="userSpaceOnUse" gradientTransform="translate(22.5417 35.8077) rotate(-56.929) scale(10.7229 5.03967)">
<stop offset="0.281" stop-color="#B5A3A5"/>
<stop offset="1" stop-color="#B5A3A5" stop-opacity="0"/>
</radialGradient>
<radialGradient id="paint9_radial_601_575" cx="0" cy="0" r="1" gradientUnits="userSpaceOnUse" gradientTransform="translate(19.4391 34.4741) rotate(-73.625) scale(9.50599 1.61076)">
<stop offset="0.208" stop-color="#B28F96"/>
<stop offset="1" stop-color="#B28F96" stop-opacity="0"/>
</radialGradient>
<radialGradient id="paint10_radial_601_575" cx="0" cy="0" r="1" gradientUnits="userSpaceOnUse" gradientTransform="translate(42.1515 20.2764) rotate(137.284) scale(14.4102 4.47419)">
<stop stop-color="#FAECF1"/>
<stop offset="1" stop-color="#FAECF1" stop-opacity="0"/>
</radialGradient>
<linearGradient id="paint11_linear_601_575" x1="31.948" y1="23.9744" x2="39.2969" y2="24.5989" gradientUnits="userSpaceOnUse">
<stop stop-color="#A796A0"/>
<stop offset="1" stop-color="#A5959F"/>
</linearGradient>
<radialGradient id="paint12_radial_601_575" cx="0" cy="0" r="1" gradientUnits="userSpaceOnUse" gradientTransform="translate(35.6241 24.5989) rotate(90) scale(3.67432)">
<stop offset="0.587" stop-color="#93859B"/>
<stop offset="1" stop-color="#93859B" stop-opacity="0"/>
</radialGradient>
<radialGradient id="paint13_radial_601_575" cx="0" cy="0" r="1" gradientUnits="userSpaceOnUse" gradientTransform="translate(35.6219 27.1438) rotate(-90) scale(5.29986 4.87404)">
<stop stop-color="#72CDFF"/>
<stop offset="0.738" stop-color="#66ACFF"/>
<stop offset="1" stop-color="#3B57F4"/>
</radialGradient>
<radialGradient id="paint14_radial_601_575" cx="0" cy="0" r="1" gradientUnits="userSpaceOnUse" gradientTransform="translate(21.4589 39.0202) rotate(135) scale(6.3508 4.99188)">
<stop stop-color="#D46213"/>
<stop offset="1" stop-color="#FF9542"/>
</radialGradient>
<radialGradient id="paint15_radial_601_575" cx="0" cy="0" r="1" gradientUnits="userSpaceOnUse" gradientTransform="translate(21.5825 44.186) rotate(-131.186) scale(7.84714 8.26958)">
<stop offset="0.871" stop-color="#FFC484" stop-opacity="0"/>
<stop offset="1" stop-color="#FFC484"/>
</radialGradient>
<linearGradient id="paint16_linear_601_575" x1="18.8416" y1="36.5117" x2="24.8572" y2="42.4245" gradientUnits="userSpaceOnUse">
<stop stop-color="#452860"/>
<stop offset="1" stop-color="#51509F"/>
</linearGradient>
<radialGradient id="paint17_radial_601_575" cx="0" cy="0" r="1" gradientUnits="userSpaceOnUse" gradientTransform="translate(19.9703 35.9648) rotate(77.8285) scale(1.78325 1.57555)">
<stop stop-color="#8E839A"/>
<stop offset="1" stop-color="#8E839A" stop-opacity="0"/>
</radialGradient>
<radialGradient id="paint18_radial_601_575" cx="0" cy="0" r="1" gradientUnits="userSpaceOnUse" gradientTransform="translate(20.3826 37.0203) rotate(47.9357) scale(6.7947 3.56165)">
<stop offset="0.86" stop-color="#6175B9" stop-opacity="0"/>
<stop offset="1" stop-color="#6175B9"/>
</radialGradient>
<linearGradient id="paint19_linear_601_575" x1="44.4123" y1="15.6459" x2="40.3917" y2="19.6665" gradientUnits="userSpaceOnUse">
<stop stop-color="#FF3745"/>
<stop offset="1" stop-color="#ED224B"/>
</linearGradient>
<radialGradient id="paint20_radial_601_575" cx="0" cy="0" r="1" gradientUnits="userSpaceOnUse" gradientTransform="translate(43.9333 17.2558) rotate(135) scale(9.01991 2.1653)">
<stop offset="0.189" stop-color="#FF5971"/>
<stop offset="1" stop-color="#FF5971" stop-opacity="0"/>
</radialGradient>
<linearGradient id="paint21_linear_601_575" x1="40.7428" y1="19.9345" x2="41.1442" y2="19.5156" gradientUnits="userSpaceOnUse">
<stop stop-color="#D2575E"/>
<stop offset="1" stop-color="#F93251" stop-opacity="0"/>
</linearGradient>
<linearGradient id="paint22_linear_601_575" x1="29.0812" y1="31.1648" x2="21.9872" y2="38.2588" gradientUnits="userSpaceOnUse">
<stop stop-color="#FF2644"/>
<stop offset="1" stop-color="#FF2982"/>
</linearGradient>
<radialGradient id="paint23_radial_601_575" cx="0" cy="0" r="1" gradientUnits="userSpaceOnUse" gradientTransform="translate(19.3206 33.7428) rotate(-20.865) scale(8.15698 2.13543)">
<stop stop-color="#FF95AF"/>
<stop offset="1" stop-color="#FF95AF" stop-opacity="0"/>
</radialGradient>
<radialGradient id="paint24_radial_601_575" cx="0" cy="0" r="1" gradientUnits="userSpaceOnUse" gradientTransform="translate(18.404 34.7118) rotate(44.7044) scale(5.04242 1.48948)">
<stop offset="0.382" stop-color="#E14678"/>
<stop offset="1" stop-color="#E14678" stop-opacity="0"/>
</radialGradient>
<radialGradient id="paint25_radial_601_575" cx="0" cy="0" r="1" gradientUnits="userSpaceOnUse" gradientTransform="translate(25.1656 33.4343) rotate(84.6743) scale(8.10138 8.6332)">
<stop offset="0.832" stop-color="#E67BC7" stop-opacity="0"/>
<stop offset="1" stop-color="#E67BC7"/>
</radialGradient>
<linearGradient id="paint26_linear_601_575" x1="27.7972" y1="32.3069" x2="23.2855" y2="37.0243" gradientUnits="userSpaceOnUse">
<stop stop-color="#FF5970"/>
<stop offset="1" stop-color="#FF5794"/>
</linearGradient>
<clipPath id="clip0_601_575">
<rect width="35" height="35" fill="white" transform="translate(12.5 12.5)"/>
</clipPath>
</defs>
</svg>
