<svg width="18" height="18" viewBox="0 0 18 18" fill="none" xmlns="http://www.w3.org/2000/svg">
<path d="M17.127 16.0187L12.6576 11.5493C13.7316 10.2599 14.2672 8.60615 14.1529 6.93196C14.0386 5.25777 13.2833 3.6921 12.044 2.56063C10.8048 1.42917 9.17703 0.819034 7.49938 0.857153C5.82173 0.895272 4.22336 1.57871 3.03678 2.7653C1.8502 3.95188 1.16676 5.55025 1.12864 7.2279C1.09052 8.90555 1.70065 10.5333 2.83212 11.7726C3.96358 13.0118 5.52926 13.7672 7.20345 13.8814C8.87763 13.9957 10.5314 13.4601 11.8208 12.3861L16.2901 16.8555L17.127 16.0187ZM2.33173 7.38653C2.33173 6.33309 2.64411 5.30331 3.22937 4.42741C3.81463 3.5515 4.64648 2.86882 5.61973 2.46569C6.59298 2.06255 7.66392 1.95708 8.69712 2.16259C9.73031 2.36811 10.6794 2.87539 11.4243 3.62028C12.1692 4.36517 12.6764 5.31423 12.8819 6.34742C13.0875 7.38062 12.982 8.45156 12.5789 9.42481C12.1757 10.3981 11.493 11.2299 10.6171 11.8152C9.74123 12.4004 8.71145 12.7128 7.65801 12.7128C6.24588 12.7112 4.89203 12.1496 3.89349 11.151C2.89496 10.1525 2.3333 8.79866 2.33173 7.38653Z" fill="#D7D7D7" stroke="#D7D7D7" stroke-width="0.507203"/>
</svg>
