<svg width="24" height="24" viewBox="0 0 24 24" fill="none" xmlns="http://www.w3.org/2000/svg">
<path d="M20.4305 14.9033V20.1834C20.4302 20.9305 20.1333 21.6469 19.605 22.1751C19.0767 22.7034 18.3603 23.0003 17.6133 23.0006H3.81728C3.44595 23.0005 3.07832 22.9269 2.7355 22.7843C2.39268 22.6416 2.08143 22.4326 1.81964 22.1692C1.55785 21.9059 1.35068 21.5934 1.21002 21.2498C1.06937 20.9061 0.998013 20.5381 1.00005 20.1667V6.38622C0.99784 6.01548 1.06923 5.64799 1.21009 5.30505C1.35094 4.9621 1.55846 4.65052 1.82062 4.38837C2.08277 4.12621 2.39435 3.91869 2.7373 3.77784C3.08024 3.63698 3.44773 3.56559 3.81847 3.5678H9.09735" stroke="black" stroke-width="2" stroke-linecap="round" stroke-linejoin="round"/>
<path d="M20.4304 8.42686L15.5725 3.56776M5.85671 16.523V13.9483C5.85908 13.5238 6.02795 13.1159 6.32644 12.815L17.662 1.47952C17.8124 1.32743 17.9914 1.20668 18.1888 1.12427C18.3862 1.04187 18.598 0.999435 18.8119 0.999435C19.0258 0.999435 19.2376 1.04187 19.435 1.12427C19.6324 1.20668 19.8115 1.32743 19.9619 1.47952L22.5199 4.0375C22.672 4.18791 22.7927 4.36699 22.8751 4.56439C22.9575 4.76178 22.9999 4.97356 22.9999 5.18746C22.9999 5.40136 22.9575 5.61314 22.8751 5.81054C22.7927 6.00793 22.672 6.18701 22.5199 6.33742L11.1843 17.6729C10.8829 17.9723 10.4758 18.141 10.051 18.1427H7.4764C7.26361 18.143 7.05285 18.1013 6.8562 18.02C6.65955 17.9387 6.48087 17.8194 6.33041 17.669C6.17994 17.5185 6.06065 17.3398 5.97936 17.1432C5.89807 16.9465 5.85639 16.7358 5.85671 16.523Z" stroke="black" stroke-width="2" stroke-linecap="round" stroke-linejoin="round"/>
</svg>
