<svg width="current" height="current" viewBox="0 0 25 25" fill="none" xmlns="http://www.w3.org/2000/svg">
<path fill-rule="evenodd" clip-rule="evenodd" d="M14.7513 3.41958C15.2991 3.58875 15.8227 3.80625 16.3222 4.07208L18.537 2.74292C18.768 2.6044 19.0386 2.547 19.3059 2.57983C19.5732 2.61267 19.8219 2.73386 20.0124 2.92417L21.2425 4.15425C21.4328 4.3448 21.554 4.59347 21.5868 4.86077C21.6197 5.12807 21.5623 5.39867 21.4237 5.62963L20.0946 7.8445C20.3604 8.34394 20.5779 8.86756 20.7471 9.41533L23.252 10.0425C23.5133 10.1079 23.7452 10.2588 23.9109 10.4712C24.0766 10.6835 24.1667 10.9452 24.1667 11.2145V12.9521C24.1667 13.2215 24.0766 13.4831 23.9109 13.6955C23.7452 13.9079 23.5133 14.0588 23.252 14.1242L20.7471 14.7513C20.5779 15.2991 20.3604 15.8227 20.0946 16.3222L21.4237 18.537C21.5623 18.768 21.6197 19.0386 21.5868 19.3059C21.554 19.5732 21.4328 19.8219 21.2425 20.0124L20.0124 21.2425C19.8219 21.4328 19.5732 21.554 19.3059 21.5868C19.0386 21.6197 18.768 21.5623 18.537 21.4237L16.3222 20.0946C15.8227 20.3604 15.2991 20.5779 14.7513 20.7471L14.1242 23.252C14.0588 23.5133 13.9079 23.7452 13.6955 23.9109C13.4831 24.0766 13.2215 24.1667 12.9521 24.1667H11.2145C10.9452 24.1667 10.6835 24.0766 10.4712 23.9109C10.2588 23.7452 10.1079 23.5133 10.0425 23.252L9.41533 20.7471C8.87242 20.5793 8.3465 20.3608 7.8445 20.0946L5.62963 21.4237C5.39867 21.5623 5.12807 21.6197 4.86077 21.5868C4.59347 21.554 4.3448 21.4328 4.15425 21.2425L2.92417 20.0124C2.73386 19.8219 2.61267 19.5732 2.57983 19.3059C2.547 19.0386 2.6044 18.768 2.74292 18.537L4.07208 16.3222C3.80582 15.8202 3.58735 15.2942 3.41958 14.7513L0.914708 14.1242C0.653611 14.0588 0.421827 13.9081 0.256122 13.696C0.0904159 13.4839 0.000276277 13.2225 0 12.9533V11.2157C7.08136e-06 10.9464 0.0900234 10.6847 0.25575 10.4724C0.421477 10.26 0.65341 10.1091 0.914708 10.0437L3.41958 9.41654C3.58875 8.86876 3.80625 8.34515 4.07208 7.84571L2.74292 5.63083C2.6044 5.39988 2.547 5.12928 2.57983 4.86198C2.61267 4.59468 2.73386 4.34601 2.92417 4.15546L4.15425 2.92417C4.3448 2.73386 4.59347 2.61267 4.86077 2.57983C5.12807 2.547 5.39867 2.6044 5.62963 2.74292L7.8445 4.07208C8.34394 3.80625 8.86756 3.58875 9.41533 3.41958L10.0425 0.914708C10.1079 0.653611 10.2586 0.421827 10.4707 0.256122C10.6828 0.0904159 10.9442 0.000276277 11.2133 0H12.9509C13.2203 7.08136e-06 13.4819 0.0900234 13.6943 0.25575C13.9067 0.421477 14.0575 0.65341 14.123 0.914708L14.7513 3.41958ZM12.0833 16.9167C13.3652 16.9167 14.5946 16.4074 15.501 15.501C16.4074 14.5946 16.9167 13.3652 16.9167 12.0833C16.9167 10.8015 16.4074 9.57208 15.501 8.66565C14.5946 7.75922 13.3652 7.25 12.0833 7.25C10.8015 7.25 9.57208 7.75922 8.66565 8.66565C7.75922 9.57208 7.25 10.8015 7.25 12.0833C7.25 13.3652 7.75922 14.5946 8.66565 15.501C9.57208 16.4074 10.8015 16.9167 12.0833 16.9167Z" fill="currentColor"/>
</svg>
