<svg width="16" height="17" viewBox="0 0 16 17" fill="none" xmlns="http://www.w3.org/2000/svg">
<path d="M12.7267 9.89669V12.8567C12.7265 13.2755 12.5601 13.6771 12.2639 13.9732C11.9678 14.2694 11.5662 14.4358 11.1473 14.436H3.41335C3.20518 14.4359 2.99909 14.3947 2.8069 14.3147C2.61472 14.2348 2.44023 14.1176 2.29347 13.97C2.14671 13.8223 2.03057 13.6472 1.95172 13.4545C1.87287 13.2618 1.83287 13.0555 1.83401 12.8474V5.12202C1.83277 4.91419 1.8728 4.70817 1.95176 4.51592C2.03072 4.32366 2.14706 4.14899 2.29402 4.00203C2.44099 3.85507 2.61566 3.73873 2.80791 3.65977C3.00016 3.5808 3.20618 3.54078 3.41401 3.54202H6.37335" stroke="#3E3E3E" stroke-width="1.1" stroke-linecap="round" stroke-linejoin="round"/>
<path d="M12.7267 6.26634L10.0034 3.54234M4.5567 10.805V9.36167C4.55804 9.12367 4.6527 8.89501 4.82004 8.72634L11.1747 2.37167C11.259 2.28641 11.3594 2.21872 11.4701 2.17252C11.5807 2.12633 11.6995 2.10254 11.8194 2.10254C11.9393 2.10254 12.058 2.12633 12.1687 2.17252C12.2793 2.21872 12.3797 2.28641 12.464 2.37167L13.898 3.80567C13.9833 3.88999 14.051 3.99039 14.0972 4.10104C14.1434 4.2117 14.1672 4.33042 14.1672 4.45034C14.1672 4.57025 14.1434 4.68898 14.0972 4.79963C14.051 4.91029 13.9833 5.01069 13.898 5.09501L7.54337 11.4497C7.37439 11.6175 7.14618 11.7121 6.90804 11.713H5.4647C5.34541 11.7132 5.22726 11.6898 5.11702 11.6442C5.00678 11.5987 4.90661 11.5318 4.82226 11.4474C4.73791 11.3631 4.67103 11.2629 4.62546 11.1527C4.57989 11.0424 4.55653 10.9243 4.5567 10.805Z" stroke="#3E3E3E" stroke-width="1.1" stroke-linecap="round" stroke-linejoin="round"/>
</svg>
