<svg width="current" height="current" viewBox="0 0 29 28" fill="none" xmlns="http://www.w3.org/2000/svg">
<path d="M22.843 15.7653C22.4944 15.7653 22.1601 15.9038 21.9136 16.1502C21.6671 16.3967 21.5286 16.731 21.5286 17.0796V17.5791L19.5834 15.6339C18.8966 14.9524 17.9683 14.5701 17.0008 14.5701C16.0333 14.5701 15.105 14.9524 14.4182 15.6339L13.4981 16.5539L10.2386 13.2944C9.54219 12.6314 8.6175 12.2617 7.65599 12.2617C6.69447 12.2617 5.76978 12.6314 5.07335 13.2944L3.12815 15.2396V7.87937C3.12815 7.53079 3.26663 7.19649 3.51311 6.95C3.75959 6.70352 4.09389 6.56505 4.44247 6.56505H13.6427C13.9913 6.56505 14.3256 6.42658 14.5721 6.18009C14.8186 5.93361 14.957 5.59931 14.957 5.25073C14.957 4.90215 14.8186 4.56785 14.5721 4.32136C14.3256 4.07488 13.9913 3.93641 13.6427 3.93641H4.44247C3.39673 3.93641 2.39383 4.35183 1.65438 5.09127C0.91493 5.83072 0.499512 6.83363 0.499512 7.87937V23.6512C0.499512 24.697 0.91493 25.6999 1.65438 26.4393C2.39383 27.1788 3.39673 27.5942 4.44247 27.5942H20.2143C21.2601 27.5942 22.263 27.1788 23.0024 26.4393C23.7419 25.6999 24.1573 24.697 24.1573 23.6512V17.0796C24.1573 16.731 24.0188 16.3967 23.7723 16.1502C23.5258 15.9038 23.1915 15.7653 22.843 15.7653ZM4.44247 24.9655C4.09389 24.9655 3.75959 24.8271 3.51311 24.5806C3.26663 24.3341 3.12815 23.9998 3.12815 23.6512V18.9591L6.93968 15.1476C7.13277 14.9636 7.38926 14.8609 7.65599 14.8609C7.92271 14.8609 8.1792 14.9636 8.37229 15.1476L12.5387 19.314L18.1903 24.9655H4.44247ZM21.5286 23.6512C21.5258 23.9027 21.443 24.1467 21.2921 24.3478L15.3645 18.3939L16.2845 17.4739C16.3787 17.3777 16.4912 17.3013 16.6153 17.2492C16.7395 17.197 16.8727 17.1702 17.0074 17.1702C17.142 17.1702 17.2753 17.197 17.3994 17.2492C17.5236 17.3013 17.636 17.3777 17.7303 17.4739L21.5286 21.2986V23.6512ZM27.7191 4.31756L23.7761 0.374599C23.6511 0.254942 23.5037 0.161146 23.3424 0.0985918C23.0224 -0.0328639 22.6635 -0.0328639 22.3435 0.0985918C22.1822 0.161146 22.0348 0.254942 21.9098 0.374599L17.9668 4.31756C17.7193 4.56505 17.5803 4.90072 17.5803 5.25073C17.5803 5.60073 17.7193 5.9364 17.9668 6.1839C18.2143 6.43139 18.55 6.57043 18.9 6.57043C19.25 6.57043 19.5857 6.43139 19.8332 6.1839L21.5286 4.47528V11.8223C21.5286 12.1709 21.6671 12.5052 21.9136 12.7517C22.1601 12.9982 22.4944 13.1367 22.843 13.1367C23.1915 13.1367 23.5258 12.9982 23.7723 12.7517C24.0188 12.5052 24.1573 12.1709 24.1573 11.8223V4.47528L25.8528 6.1839C25.9749 6.30709 26.1203 6.40486 26.2805 6.47159C26.4406 6.53832 26.6124 6.57267 26.7859 6.57267C26.9594 6.57267 27.1312 6.53832 27.2914 6.47159C27.4515 6.40486 27.5969 6.30709 27.7191 6.1839C27.8423 6.06171 27.9401 5.91635 28.0068 5.75619C28.0735 5.59602 28.1079 5.42423 28.1079 5.25073C28.1079 5.07722 28.0735 4.90543 28.0068 4.74527C27.9401 4.58511 27.8423 4.43974 27.7191 4.31756Z" fill="currentColor"/>
</svg>
