<svg width="current" height="current" viewBox="0 0 32 33" fill="none" xmlns="http://www.w3.org/2000/svg">
<path d="M2.78416 32.0211C2.47939 32.3267 2.06541 32.499 1.63331 32.5001C1.20121 32.5011 0.786382 32.3309 0.480078 32.0268C0.173773 31.7227 0.00108536 31.3097 5.0987e-06 30.8786C-0.00107516 30.4475 0.16954 30.0336 0.474317 29.7279L20.3897 9.76219C20.6945 9.45658 21.1084 9.28429 21.5405 9.28321C21.9726 9.28213 22.3875 9.45236 22.6938 9.75645C23.0001 10.0605 23.1728 10.4736 23.1739 10.9047C23.1749 11.3358 23.0043 11.7497 22.6995 12.0553L2.78416 32.0211Z" fill="url(#paint0_linear_157_1539)"/>
<path d="M2.78416 32.0211C2.47939 32.3267 2.06541 32.499 1.63331 32.5001C1.20121 32.5011 0.786382 32.3309 0.480078 32.0268C0.173773 31.7227 0.00108536 31.3097 5.0987e-06 30.8786C-0.00107516 30.4475 0.16954 30.0336 0.474317 29.7279L20.3897 9.76219C20.6945 9.45658 21.1084 9.28429 21.5405 9.28321C21.9726 9.28213 22.3875 9.45236 22.6938 9.75645C23.0001 10.0605 23.1728 10.4736 23.1739 10.9047C23.1749 11.3358 23.0043 11.7497 22.6995 12.0553L2.78416 32.0211Z" fill="url(#paint1_linear_157_1539)"/>
<g filter="url(#filter0_ii_157_1539)">
<path fill-rule="evenodd" clip-rule="evenodd" d="M26.8388 7.09774C26.7939 6.88937 26.6913 6.69776 26.5426 6.54474C26.3939 6.39171 26.2052 6.28343 25.9978 6.23221C25.4621 6.08584 24.942 5.88758 24.4449 5.64025C24.3385 5.59081 24.2484 5.51209 24.1853 5.41333C24.1222 5.31457 24.0887 5.19989 24.0887 5.08277C24.0887 4.96566 24.1222 4.85097 24.1853 4.75222C24.2484 4.65346 24.3385 4.57473 24.4449 4.52529C24.942 4.27836 25.4621 4.08048 25.9978 3.93448C26.2052 3.88327 26.3939 3.77498 26.5426 3.62196C26.6913 3.46894 26.7939 3.27733 26.8388 3.06896C26.9679 2.42872 27.1775 1.6379 27.4955 0.865482C27.5332 0.758631 27.6032 0.666088 27.6958 0.600623C27.7885 0.535158 27.8992 0.5 28.0128 0.5C28.1263 0.5 28.237 0.535158 28.3297 0.600623C28.4223 0.666088 28.4923 0.758631 28.53 0.865482C28.848 1.6379 29.0577 2.42872 29.1855 3.06896C29.2317 3.27677 29.3347 3.46772 29.4832 3.62054C29.6317 3.77337 29.8198 3.88205 30.0265 3.93448C30.4954 4.05747 31.0023 4.24828 31.5726 4.52529C32.0449 4.75518 32.0449 5.41036 31.5726 5.64025C31.078 5.88784 30.5601 6.08612 30.0265 6.23221C29.8199 6.28456 29.6319 6.39307 29.4834 6.54567C29.335 6.69828 29.2318 6.88899 29.1855 7.09659C29.0368 7.85048 28.8169 8.58864 28.5289 9.30121C28.4909 9.40767 28.4209 9.49979 28.3284 9.56494C28.2359 9.63009 28.1254 9.66507 28.0122 9.66507C27.8989 9.66507 27.7885 9.63009 27.696 9.56494C27.6034 9.49979 27.5334 9.40767 27.4955 9.30121C27.2081 8.58842 26.9882 7.85146 26.8388 7.09774Z" fill="url(#paint2_linear_157_1539)"/>
</g>
<g filter="url(#filter1_ii_157_1539)">
<path fill-rule="evenodd" clip-rule="evenodd" d="M13.8691 6.58825C13.8355 6.43227 13.7585 6.28887 13.6471 6.17444C13.5357 6.06001 13.3942 5.97916 13.2389 5.94111C12.8387 5.83223 12.4501 5.6844 12.0788 5.49973C11.9993 5.46274 11.9321 5.40388 11.885 5.33007C11.8378 5.25626 11.8128 5.17057 11.8128 5.08306C11.8128 4.99555 11.8378 4.90986 11.885 4.83605C11.9321 4.76224 11.9993 4.70338 12.0788 4.66639C12.5062 4.45949 12.8876 4.31581 13.2389 4.22385C13.3941 4.1859 13.5354 4.10522 13.6468 3.991C13.7582 3.87679 13.8353 3.73364 13.8691 3.57787C13.9636 3.09855 14.1214 2.50889 14.3587 1.92957C14.387 1.8499 14.4394 1.78094 14.5086 1.73218C14.5778 1.68341 14.6605 1.65723 14.7452 1.65723C14.83 1.65723 14.9126 1.68341 14.9818 1.73218C15.051 1.78094 15.1034 1.8499 15.1317 1.92957C15.3691 2.50774 15.5257 3.09855 15.6214 3.57787C15.6551 3.73349 15.7319 3.87654 15.8431 3.99074C15.9543 4.10494 16.0954 4.18571 16.2504 4.22385C16.6017 4.31581 16.9796 4.45834 17.4059 4.66639C17.4854 4.70338 17.5526 4.76224 17.5997 4.83605C17.6468 4.90986 17.6719 4.99555 17.6719 5.08306C17.6719 5.17057 17.6468 5.25626 17.5997 5.33007C17.5526 5.40388 17.4854 5.46274 17.4059 5.49973C17.0361 5.68412 16.649 5.83195 16.2504 5.94111C16.0953 5.97935 15.9541 6.06028 15.8429 6.1747C15.7317 6.28912 15.6549 6.43241 15.6214 6.58825C15.5257 7.06756 15.3691 7.65723 15.1317 8.23539C15.1034 8.31506 15.051 8.38402 14.9818 8.43279C14.9126 8.48156 14.83 8.50774 14.7452 8.50774C14.6605 8.50774 14.5778 8.48156 14.5086 8.43279C14.4394 8.38402 14.387 8.31506 14.3587 8.23539C14.1443 7.70279 13.9804 7.15134 13.8691 6.58825Z" fill="url(#paint3_linear_157_1539)"/>
</g>
<g filter="url(#filter2_ii_157_1539)">
<path fill-rule="evenodd" clip-rule="evenodd" d="M22.0551 21.9327C22.0215 21.7768 21.9448 21.6335 21.8335 21.5191C21.7223 21.4047 21.5811 21.3237 21.426 21.2855C21.0254 21.1763 20.6364 21.0281 20.2648 20.843C20.1856 20.8059 20.1187 20.747 20.0718 20.6733C20.0249 20.5996 20 20.5142 20 20.4269C20 20.3396 20.0249 20.2541 20.0718 20.1804C20.1187 20.1068 20.1856 20.0479 20.2648 20.0108C20.6933 19.8039 21.0735 19.6602 21.426 19.5683C21.5811 19.53 21.7223 19.4491 21.8335 19.3347C21.9448 19.2203 22.0215 19.077 22.0551 18.9211C22.1507 18.443 22.3085 17.8521 22.5447 17.274C22.5728 17.1939 22.6251 17.1245 22.6945 17.0754C22.7638 17.0264 22.8467 17 22.9318 17C23.0168 17 23.0997 17.0264 23.1691 17.0754C23.2384 17.1245 23.2907 17.1939 23.3188 17.274C23.5562 17.8521 23.7128 18.443 23.8085 18.9211C23.842 19.077 23.9188 19.2203 24.03 19.3347C24.1412 19.4491 24.2824 19.53 24.4375 19.5683C24.7877 19.6602 25.1656 19.8027 25.5918 20.0096C25.6716 20.0465 25.7392 20.1054 25.7866 20.1793C25.8339 20.2532 25.8591 20.3391 25.8591 20.4269C25.8591 20.5146 25.8339 20.6005 25.7866 20.6745C25.7392 20.7484 25.6716 20.8073 25.5918 20.8441C25.2224 21.0285 24.8358 21.1763 24.4375 21.2855C24.2824 21.3237 24.1412 21.4047 24.03 21.5191C23.9188 21.6335 23.842 21.7768 23.8085 21.9327C23.6971 22.4957 23.5332 23.0472 23.3188 23.5798C23.2907 23.6599 23.2384 23.7292 23.1691 23.7783C23.0997 23.8274 23.0168 23.8538 22.9318 23.8538C22.8467 23.8538 22.7638 23.8274 22.6945 23.7783C22.6251 23.7292 22.5728 23.6599 22.5447 23.5798C22.3303 23.0472 22.1664 22.4957 22.0551 21.9327Z" fill="url(#paint4_linear_157_1539)"/>
</g>
<path d="M30.5691 14.5154C31.3594 14.5154 32 13.8762 32 13.0878C32 12.2993 31.3594 11.6602 30.5691 11.6602C29.7789 11.6602 29.1383 12.2993 29.1383 13.0878C29.1383 13.8762 29.7789 14.5154 30.5691 14.5154Z" fill="url(#paint5_radial_157_1539)"/>
<path d="M30.5691 14.5154C31.3594 14.5154 32 13.8762 32 13.0878C32 12.2993 31.3594 11.6602 30.5691 11.6602C29.7789 11.6602 29.1383 12.2993 29.1383 13.0878C29.1383 13.8762 29.7789 14.5154 30.5691 14.5154Z" fill="url(#paint6_radial_157_1539)"/>
<path d="M19.354 23.9079C20.1442 23.9079 20.7848 23.2688 20.7848 22.4803C20.7848 21.6919 20.1442 21.0527 19.354 21.0527C18.5638 21.0527 17.9232 21.6919 17.9232 22.4803C17.9232 23.2688 18.5638 23.9079 19.354 23.9079Z" fill="url(#paint7_radial_157_1539)"/>
<path d="M19.354 23.9079C20.1442 23.9079 20.7848 23.2688 20.7848 22.4803C20.7848 21.6919 20.1442 21.0527 19.354 21.0527C18.5638 21.0527 17.9232 21.6919 17.9232 22.4803C17.9232 23.2688 18.5638 23.9079 19.354 23.9079Z" fill="url(#paint8_radial_157_1539)"/>
<path d="M11.3243 14.7015C12.0833 14.7015 12.6987 14.0876 12.6987 13.3303C12.6987 12.5729 12.0833 11.959 11.3243 11.959C10.5652 11.959 9.94989 12.5729 9.94989 13.3303C9.94989 14.0876 10.5652 14.7015 11.3243 14.7015Z" fill="url(#paint9_radial_157_1539)"/>
<path d="M11.3243 14.7015C12.0833 14.7015 12.6987 14.0876 12.6987 13.3303C12.6987 12.5729 12.0833 11.959 11.3243 11.959C10.5652 11.959 9.94989 12.5729 9.94989 13.3303C9.94989 14.0876 10.5652 14.7015 11.3243 14.7015Z" fill="url(#paint10_radial_157_1539)"/>
<path d="M19.377 2.80238C20.0108 2.80238 20.5245 2.28981 20.5245 1.65754C20.5245 1.02526 20.0108 0.512695 19.377 0.512695C18.7433 0.512695 18.2296 1.02526 18.2296 1.65754C18.2296 2.28981 18.7433 2.80238 19.377 2.80238Z" fill="url(#paint11_radial_157_1539)"/>
<path d="M19.377 2.80238C20.0108 2.80238 20.5245 2.28981 20.5245 1.65754C20.5245 1.02526 20.0108 0.512695 19.377 0.512695C18.7433 0.512695 18.2296 1.02526 18.2296 1.65754C18.2296 2.28981 18.7433 2.80238 19.377 2.80238Z" fill="url(#paint12_radial_157_1539)"/>
<g filter="url(#filter3_f_157_1539)">
<path d="M19.7054 12.2705L2.245 29.765" stroke="url(#paint13_linear_157_1539)" stroke-width="0.5"/>
</g>
<path d="M18.4059 11.7519L20.3897 9.76219C20.6945 9.45658 21.1085 9.28429 21.5406 9.28321C21.9727 9.28213 22.3875 9.45236 22.6938 9.75645C23.0001 10.0605 23.1728 10.4736 23.1739 10.9047C23.1749 11.3358 23.0043 11.7497 22.6995 12.0553L20.7249 14.0347L18.4059 11.7519Z" fill="#CFC9D8"/>
<path d="M18.4059 11.7519L20.3897 9.76219C20.6945 9.45658 21.1085 9.28429 21.5406 9.28321C21.9727 9.28213 22.3875 9.45236 22.6938 9.75645C23.0001 10.0605 23.1728 10.4736 23.1739 10.9047C23.1749 11.3358 23.0043 11.7497 22.6995 12.0553L20.7249 14.0347L18.4059 11.7519Z" fill="url(#paint14_linear_157_1539)"/>
<path d="M18.4059 11.7519L20.3897 9.76219C20.6945 9.45658 21.1085 9.28429 21.5406 9.28321C21.9727 9.28213 22.3875 9.45236 22.6938 9.75645C23.0001 10.0605 23.1728 10.4736 23.1739 10.9047C23.1749 11.3358 23.0043 11.7497 22.6995 12.0553L20.7249 14.0347L18.4059 11.7519Z" fill="url(#paint15_linear_157_1539)"/>
<path d="M18.4059 11.7519L20.3897 9.76219C20.6945 9.45658 21.1085 9.28429 21.5406 9.28321C21.9727 9.28213 22.3875 9.45236 22.6938 9.75645C23.0001 10.0605 23.1728 10.4736 23.1739 10.9047C23.1749 11.3358 23.0043 11.7497 22.6995 12.0553L20.7249 14.0347L18.4059 11.7519Z" fill="url(#paint16_radial_157_1539)"/>
<g filter="url(#filter4_i_157_1539)">
<path d="M0.477759 32.0234C1.11484 32.659 2.14822 32.6579 2.7853 32.0211L4.73226 30.0693L2.4201 27.7773L0.475455 29.7279C0.171215 30.0329 0.000606494 30.4458 0.00103842 30.8761C0.00147034 31.3064 0.172907 31.719 0.477759 32.0234Z" fill="#CFC6DD"/>
<path d="M0.477759 32.0234C1.11484 32.659 2.14822 32.6579 2.7853 32.0211L4.73226 30.0693L2.4201 27.7773L0.475455 29.7279C0.171215 30.0329 0.000606494 30.4458 0.00103842 30.8761C0.00147034 31.3064 0.172907 31.719 0.477759 32.0234Z" fill="url(#paint17_linear_157_1539)"/>
</g>
<path d="M0.477759 32.0234C1.11484 32.659 2.14822 32.6579 2.7853 32.0211L4.73226 30.0693L2.4201 27.7773L0.475455 29.7279C0.171215 30.0329 0.000606494 30.4458 0.00103842 30.8761C0.00147034 31.3064 0.172907 31.719 0.477759 32.0234Z" fill="url(#paint18_linear_157_1539)"/>
<path d="M0.477759 32.0234C1.11484 32.659 2.14822 32.6579 2.7853 32.0211L4.73226 30.0693L2.4201 27.7773L0.475455 29.7279C0.171215 30.0329 0.000606494 30.4458 0.00103842 30.8761C0.00147034 31.3064 0.172907 31.719 0.477759 32.0234Z" fill="url(#paint19_radial_157_1539)"/>
<defs>
<filter id="filter0_ii_157_1539" x="23.9387" y="0.35" width="8.13812" height="9.46504" filterUnits="userSpaceOnUse" color-interpolation-filters="sRGB">
<feFlood flood-opacity="0" result="BackgroundImageFix"/>
<feBlend mode="normal" in="SourceGraphic" in2="BackgroundImageFix" result="shape"/>
<feColorMatrix in="SourceAlpha" type="matrix" values="0 0 0 0 0 0 0 0 0 0 0 0 0 0 0 0 0 0 127 0" result="hardAlpha"/>
<feOffset dx="0.15" dy="-0.15"/>
<feGaussianBlur stdDeviation="0.375"/>
<feComposite in2="hardAlpha" operator="arithmetic" k2="-1" k3="1"/>
<feColorMatrix type="matrix" values="0 0 0 0 0.94902 0 0 0 0 0.513726 0 0 0 0 0.392157 0 0 0 1 0"/>
<feBlend mode="normal" in2="shape" result="effect1_innerShadow_157_1539"/>
<feColorMatrix in="SourceAlpha" type="matrix" values="0 0 0 0 0 0 0 0 0 0 0 0 0 0 0 0 0 0 127 0" result="hardAlpha"/>
<feOffset dx="-0.15" dy="0.15"/>
<feGaussianBlur stdDeviation="0.3"/>
<feComposite in2="hardAlpha" operator="arithmetic" k2="-1" k3="1"/>
<feColorMatrix type="matrix" values="0 0 0 0 1 0 0 0 0 0.823529 0 0 0 0 0.407843 0 0 0 1 0"/>
<feBlend mode="normal" in2="effect1_innerShadow_157_1539" result="effect2_innerShadow_157_1539"/>
</filter>
<filter id="filter1_ii_157_1539" x="11.6628" y="1.50723" width="6.15907" height="7.15059" filterUnits="userSpaceOnUse" color-interpolation-filters="sRGB">
<feFlood flood-opacity="0" result="BackgroundImageFix"/>
<feBlend mode="normal" in="SourceGraphic" in2="BackgroundImageFix" result="shape"/>
<feColorMatrix in="SourceAlpha" type="matrix" values="0 0 0 0 0 0 0 0 0 0 0 0 0 0 0 0 0 0 127 0" result="hardAlpha"/>
<feOffset dx="0.15" dy="-0.15"/>
<feGaussianBlur stdDeviation="0.375"/>
<feComposite in2="hardAlpha" operator="arithmetic" k2="-1" k3="1"/>
<feColorMatrix type="matrix" values="0 0 0 0 0.94902 0 0 0 0 0.513726 0 0 0 0 0.392157 0 0 0 1 0"/>
<feBlend mode="normal" in2="shape" result="effect1_innerShadow_157_1539"/>
<feColorMatrix in="SourceAlpha" type="matrix" values="0 0 0 0 0 0 0 0 0 0 0 0 0 0 0 0 0 0 127 0" result="hardAlpha"/>
<feOffset dx="-0.15" dy="0.15"/>
<feGaussianBlur stdDeviation="0.3"/>
<feComposite in2="hardAlpha" operator="arithmetic" k2="-1" k3="1"/>
<feColorMatrix type="matrix" values="0 0 0 0 1 0 0 0 0 0.823529 0 0 0 0 0.407843 0 0 0 1 0"/>
<feBlend mode="normal" in2="effect1_innerShadow_157_1539" result="effect2_innerShadow_157_1539"/>
</filter>
<filter id="filter2_ii_157_1539" x="19.85" y="16.85" width="6.15908" height="7.15352" filterUnits="userSpaceOnUse" color-interpolation-filters="sRGB">
<feFlood flood-opacity="0" result="BackgroundImageFix"/>
<feBlend mode="normal" in="SourceGraphic" in2="BackgroundImageFix" result="shape"/>
<feColorMatrix in="SourceAlpha" type="matrix" values="0 0 0 0 0 0 0 0 0 0 0 0 0 0 0 0 0 0 127 0" result="hardAlpha"/>
<feOffset dx="0.15" dy="-0.15"/>
<feGaussianBlur stdDeviation="0.375"/>
<feComposite in2="hardAlpha" operator="arithmetic" k2="-1" k3="1"/>
<feColorMatrix type="matrix" values="0 0 0 0 0.94902 0 0 0 0 0.513726 0 0 0 0 0.392157 0 0 0 1 0"/>
<feBlend mode="normal" in2="shape" result="effect1_innerShadow_157_1539"/>
<feColorMatrix in="SourceAlpha" type="matrix" values="0 0 0 0 0 0 0 0 0 0 0 0 0 0 0 0 0 0 127 0" result="hardAlpha"/>
<feOffset dx="-0.15" dy="0.15"/>
<feGaussianBlur stdDeviation="0.3"/>
<feComposite in2="hardAlpha" operator="arithmetic" k2="-1" k3="1"/>
<feColorMatrix type="matrix" values="0 0 0 0 1 0 0 0 0 0.823529 0 0 0 0 0.407843 0 0 0 1 0"/>
<feBlend mode="normal" in2="effect1_innerShadow_157_1539" result="effect2_innerShadow_157_1539"/>
</filter>
<filter id="filter3_f_157_1539" x="1.56805" y="11.5938" width="18.8143" height="18.8477" filterUnits="userSpaceOnUse" color-interpolation-filters="sRGB">
<feFlood flood-opacity="0" result="BackgroundImageFix"/>
<feBlend mode="normal" in="SourceGraphic" in2="BackgroundImageFix" result="shape"/>
<feGaussianBlur stdDeviation="0.25" result="effect1_foregroundBlur_157_1539"/>
</filter>
<filter id="filter4_i_157_1539" x="-0.0989624" y="27.2773" width="4.83122" height="5.22168" filterUnits="userSpaceOnUse" color-interpolation-filters="sRGB">
<feFlood flood-opacity="0" result="BackgroundImageFix"/>
<feBlend mode="normal" in="SourceGraphic" in2="BackgroundImageFix" result="shape"/>
<feColorMatrix in="SourceAlpha" type="matrix" values="0 0 0 0 0 0 0 0 0 0 0 0 0 0 0 0 0 0 127 0" result="hardAlpha"/>
<feOffset dx="-0.1" dy="-0.5"/>
<feGaussianBlur stdDeviation="0.5"/>
<feComposite in2="hardAlpha" operator="arithmetic" k2="-1" k3="1"/>
<feColorMatrix type="matrix" values="0 0 0 0 0.698039 0 0 0 0 0.619608 0 0 0 0 0.792157 0 0 0 1 0"/>
<feBlend mode="normal" in2="shape" result="effect1_innerShadow_157_1539"/>
</filter>
<linearGradient id="paint0_linear_157_1539" x1="19.5971" y1="13.168" x2="3.43453" y2="29.7277" gradientUnits="userSpaceOnUse">
<stop stop-color="#60105F"/>
<stop offset="1" stop-color="#54155E"/>
</linearGradient>
<linearGradient id="paint1_linear_157_1539" x1="3.77492" y1="25.8658" x2="5.46349" y2="27.5398" gradientUnits="userSpaceOnUse">
<stop stop-color="#523253"/>
<stop offset="1" stop-color="#523253" stop-opacity="0"/>
</linearGradient>
<linearGradient id="paint2_linear_157_1539" x1="30.826" y1="2.92758" x2="26.2697" y2="7.49771" gradientUnits="userSpaceOnUse">
<stop stop-color="#FFD459"/>
<stop offset="1" stop-color="#FFA271"/>
</linearGradient>
<linearGradient id="paint3_linear_157_1539" x1="16.8483" y1="3.47097" x2="13.4425" y2="6.88791" gradientUnits="userSpaceOnUse">
<stop stop-color="#FFD465"/>
<stop offset="1" stop-color="#FFAF36"/>
</linearGradient>
<linearGradient id="paint4_linear_157_1539" x1="25.0342" y1="18.8154" x2="21.6285" y2="22.2323" gradientUnits="userSpaceOnUse">
<stop stop-color="#FFD465"/>
<stop offset="1" stop-color="#FFAF36"/>
</linearGradient>
<radialGradient id="paint5_radial_157_1539" cx="0" cy="0" r="1" gradientUnits="userSpaceOnUse" gradientTransform="translate(31.2028 12.5268) rotate(127.886) scale(2.15674 2.01831)">
<stop stop-color="#FFD463"/>
<stop offset="1" stop-color="#E68F2B"/>
</radialGradient>
<radialGradient id="paint6_radial_157_1539" cx="0" cy="0" r="1" gradientUnits="userSpaceOnUse" gradientTransform="translate(30.5691 12.1452) rotate(90) scale(2.37017 2.07082)">
<stop offset="0.797" stop-color="#E37A42" stop-opacity="0"/>
<stop offset="1" stop-color="#E37A42"/>
</radialGradient>
<radialGradient id="paint7_radial_157_1539" cx="0" cy="0" r="1" gradientUnits="userSpaceOnUse" gradientTransform="translate(19.9888 21.9183) rotate(127.886) scale(2.15674 2.01831)">
<stop stop-color="#FFD463"/>
<stop offset="1" stop-color="#E68F2B"/>
</radialGradient>
<radialGradient id="paint8_radial_157_1539" cx="0" cy="0" r="1" gradientUnits="userSpaceOnUse" gradientTransform="translate(19.354 21.5378) rotate(90) scale(2.37017 2.07082)">
<stop offset="0.797" stop-color="#E37A42" stop-opacity="0"/>
<stop offset="1" stop-color="#E37A42"/>
</radialGradient>
<radialGradient id="paint9_radial_157_1539" cx="0" cy="0" r="1" gradientUnits="userSpaceOnUse" gradientTransform="translate(11.933 12.7918) rotate(127.886) scale(2.07196 1.93898)">
<stop stop-color="#FFD463"/>
<stop offset="1" stop-color="#E68F2B"/>
</radialGradient>
<radialGradient id="paint10_radial_157_1539" cx="0" cy="0" r="1" gradientUnits="userSpaceOnUse" gradientTransform="translate(11.3243 12.4245) rotate(90) scale(2.27699 1.98942)">
<stop offset="0.797" stop-color="#E37A42" stop-opacity="0"/>
<stop offset="1" stop-color="#E37A42"/>
</radialGradient>
<radialGradient id="paint11_radial_157_1539" cx="0" cy="0" r="1" gradientUnits="userSpaceOnUse" gradientTransform="translate(19.8851 1.20696) rotate(127.886) scale(1.72947 1.61846)">
<stop stop-color="#FFD463"/>
<stop offset="1" stop-color="#E68F2B"/>
</radialGradient>
<radialGradient id="paint12_radial_157_1539" cx="0" cy="0" r="1" gradientUnits="userSpaceOnUse" gradientTransform="translate(19.377 0.902355) rotate(90) scale(1.9006 1.66057)">
<stop offset="0.869" stop-color="#E37A42" stop-opacity="0"/>
<stop offset="1" stop-color="#E37A42"/>
</radialGradient>
<linearGradient id="paint13_linear_157_1539" x1="18.8056" y1="13.528" x2="2.28183" y2="29.8012" gradientUnits="userSpaceOnUse">
<stop stop-color="#692167"/>
<stop offset="1" stop-color="#5B2460"/>
</linearGradient>
<linearGradient id="paint14_linear_157_1539" x1="19.1513" y1="10.8691" x2="20.3031" y2="11.9614" gradientUnits="userSpaceOnUse">
<stop stop-color="#C1BFC3"/>
<stop offset="1" stop-color="#C1BFC3" stop-opacity="0"/>
</linearGradient>
<linearGradient id="paint15_linear_157_1539" x1="22.1178" y1="13.0071" x2="21.3994" y2="12.2514" gradientUnits="userSpaceOnUse">
<stop stop-color="#B0A1BF"/>
<stop offset="1" stop-color="#B0A1BF" stop-opacity="0"/>
</linearGradient>
<radialGradient id="paint16_radial_157_1539" cx="0" cy="0" r="1" gradientUnits="userSpaceOnUse" gradientTransform="translate(22.5498 9.82771) rotate(134.004) scale(1.3733 1.65927)">
<stop offset="0.21" stop-color="#ECE8F2"/>
<stop offset="1" stop-color="#ECE8F2" stop-opacity="0"/>
</radialGradient>
<linearGradient id="paint17_linear_157_1539" x1="1.22083" y1="28.759" x2="2.36337" y2="29.9029" gradientUnits="userSpaceOnUse">
<stop stop-color="#A8A6AD"/>
<stop offset="1" stop-color="#A8A6AD" stop-opacity="0"/>
</linearGradient>
<linearGradient id="paint18_linear_157_1539" x1="0.44435" y1="32.3854" x2="1.34278" y2="31.2696" gradientUnits="userSpaceOnUse">
<stop stop-color="#968FA1"/>
<stop offset="1" stop-color="#968FA1" stop-opacity="0"/>
</linearGradient>
<radialGradient id="paint19_radial_157_1539" cx="0" cy="0" r="1" gradientUnits="userSpaceOnUse" gradientTransform="translate(2.36596 27.967) rotate(98.4915) scale(5.57482 5.70347)">
<stop offset="0.661" stop-color="#8F6EAF" stop-opacity="0"/>
<stop offset="0.918" stop-color="#8F6EAF"/>
</radialGradient>
</defs>
</svg>
