<svg width="279" height="126" viewBox="0 0 279 126" fill="none" xmlns="http://www.w3.org/2000/svg">
<path d="M15.36 65.88V121.14C15.36 123.06 15 124.38 14.28 125.1C13.68 125.7 12.42 126 10.5 126H0.960001V17.1C0.960001 10.86 2.22 6.48 4.74 3.95999C7.38 1.31999 11.82 -8.58307e-06 18.06 -8.58307e-06H43.98C50.22 -8.58307e-06 54.6 1.31999 57.12 3.95999C59.76 6.48 61.08 10.86 61.08 17.1V121.14C61.08 123.06 60.72 124.38 60 125.1C59.4 125.7 58.14 126 56.22 126H46.68V20.7C46.68 17.22 46.2 14.7 45.24 13.14C44.4 11.58 42.42 10.68 39.3 10.44H22.74C19.5 10.68 17.46 11.58 16.62 13.14C15.78 14.7 15.36 17.22 15.36 20.7V55.44H39.48V61.02C39.48 62.94 39.18 64.26 38.58 64.98C38.1 65.58 36.9 65.88 34.98 65.88H15.36ZM109.241 126C107.321 126 106.061 125.7 105.461 125.1C104.981 124.38 104.741 123.06 104.741 121.14V115.56H118.601C122.321 115.56 124.661 114.78 125.621 113.22C126.581 111.66 127.061 109.02 127.061 105.3V76.14C127.061 72.42 126.581 69.78 125.621 68.22C124.661 66.66 122.321 65.88 118.601 65.88H97.5413V126H83.1413V4.85999C83.1413 2.94 83.4413 1.68 84.0413 1.08C84.7613 0.359994 86.0813 -8.58307e-06 88.0013 -8.58307e-06H124.361C130.601 -8.58307e-06 134.981 1.31999 137.501 3.95999C140.141 6.48 141.461 10.86 141.461 17.1V43.38C141.461 52.62 138.161 58.02 131.561 59.58V59.94C135.041 60.9 137.561 62.64 139.121 65.16C140.681 67.68 141.461 71.34 141.461 76.14V108.9C141.461 115.14 140.141 119.58 137.501 122.22C134.981 124.74 130.601 126 124.361 126H109.241ZM97.5413 10.44V55.44H119.681C122.801 55.32 124.781 54.48 125.621 52.92C126.581 51.24 127.061 48.66 127.061 45.18V20.7C127.061 16.98 126.581 14.34 125.621 12.78C124.661 11.22 122.321 10.44 118.601 10.44H97.5413ZM163.213 126V4.85999C163.213 2.94 163.513 1.68 164.113 1.08C164.833 0.359994 166.153 -8.58307e-06 168.073 -8.58307e-06H177.613V115.56H215.593V121.14C215.593 123.06 215.233 124.38 214.513 125.1C213.913 125.7 212.653 126 210.733 126H163.213ZM243.798 65.88V115.56H278.178V121.14C278.178 123.06 277.818 124.38 277.098 125.1C276.498 125.7 275.238 126 273.318 126H229.398V4.85999C229.398 2.94 229.698 1.68 230.298 1.08C231.018 0.359994 232.338 -8.58307e-06 234.258 -8.58307e-06H278.178V5.57999C278.178 7.49999 277.878 8.81999 277.278 9.54C276.798 10.14 275.598 10.44 273.678 10.44H243.798V55.44H272.778V61.02C272.778 62.94 272.478 64.26 271.878 64.98C271.398 65.58 270.198 65.88 268.278 65.88H243.798Z" fill="url(#paint0_linear_1009_3370)"/>
<defs>
<linearGradient id="paint0_linear_1009_3370" x1="137.5" y1="171" x2="137.5" y2="-37" gradientUnits="userSpaceOnUse">
<stop offset="0.385" stop-color="#4C78FF"/>
<stop offset="1" stop-color="#15EAD9"/>
</linearGradient>
</defs>
</svg>
