<?xml version="1.0" encoding="UTF-8"?>
<!DOCTYPE svg PUBLIC "-//W3C//DTD SVG 1.1//EN" "http://www.w3.org/Graphics/SVG/1.1/DTD/svg11.dtd">
<svg xmlns="http://www.w3.org/2000/svg" version="1.1" width="512px" height="512px" style="shape-rendering:geometricPrecision; text-rendering:geometricPrecision; image-rendering:optimizeQuality; fill-rule:evenodd; clip-rule:evenodd" xmlns:xlink="http://www.w3.org/1999/xlink">
<g><path style="opacity:0.992" fill="#f7be47" d="M 38.5,-0.5 C 61.5,-0.5 84.5,-0.5 107.5,-0.5C 111.811,1.6467 114.978,4.98004 117,9.5C 117.5,24.8297 117.667,40.163 117.5,55.5C 87.5,55.5 57.5,55.5 27.5,55.5C 27.3334,41.1628 27.5001,26.8295 28,12.5C 29.148,6.19278 32.648,1.85945 38.5,-0.5 Z"/></g>
<g><path style="opacity:0.997" fill="#f99e49" d="M 157.5,-0.5 C 180.167,-0.5 202.833,-0.5 225.5,-0.5C 230.816,1.31781 234.316,4.98447 236,10.5C 236.5,25.4963 236.667,40.4963 236.5,55.5C 206.5,55.5 176.5,55.5 146.5,55.5C 146.333,40.4963 146.5,25.4963 147,10.5C 148.684,4.98447 152.184,1.31781 157.5,-0.5 Z"/></g>
<g><path style="opacity:0.998" fill="#ff6599" d="M 379.5,-0.5 C 420.5,-0.5 461.5,-0.5 502.5,-0.5C 503.987,0.803551 505.654,1.97022 507.5,3C 508.697,5.01533 510.03,6.84866 511.5,8.5C 511.5,49.8333 511.5,91.1667 511.5,132.5C 464.167,132.5 416.833,132.5 369.5,132.5C 369.5,127.5 369.5,122.5 369.5,117.5C 370.833,87.5 370.833,57.5 369.5,27.5C 369.123,20.7431 369.623,14.0764 371,7.5C 373.074,3.92315 375.907,1.25648 379.5,-0.5 Z"/></g>
<g><path style="opacity:0.983" fill="#e62e6b" d="M 369.5,27.5 C 370.833,57.5 370.833,87.5 369.5,117.5C 354.496,117.667 339.496,117.5 324.5,117C 319.026,115.526 315.526,112.026 314,106.5C 313.333,84.1667 313.333,61.8333 314,39.5C 315.833,33.6667 319.667,29.8333 325.5,28C 340.163,27.5001 354.83,27.3334 369.5,27.5 Z"/></g>
<g><path style="opacity:0.995" fill="#f4dd48" d="M 27.5,55.5 C 57.5,55.5 87.5,55.5 117.5,55.5C 122.5,55.5 127.5,55.5 132.5,55.5C 132.5,102.833 132.5,150.167 132.5,197.5C 91.832,197.667 51.1653,197.5 10.5,197C 5.40601,195.401 1.73934,192.234 -0.5,187.5C -0.5,146.833 -0.5,106.167 -0.5,65.5C 1.6467,61.189 4.98004,58.0223 9.5,56C 15.4908,55.5005 21.4908,55.3338 27.5,55.5 Z"/></g>
<g><path style="opacity:1" fill="#f6be48" d="M 132.5,55.5 C 137.167,55.5 141.833,55.5 146.5,55.5C 176.5,55.5 206.5,55.5 236.5,55.5C 243.589,55.1156 250.589,55.6156 257.5,57C 261.128,59.6383 263.628,63.1383 265,67.5C 265.667,106.833 265.667,146.167 265,185.5C 263.167,191.333 259.333,195.167 253.5,197C 213.168,197.5 172.835,197.667 132.5,197.5C 132.5,150.167 132.5,102.833 132.5,55.5 Z"/></g>
<g><path style="opacity:1" fill="#ff98ba" d="M 511.5,133.5 C 511.5,173.833 511.5,214.167 511.5,254.5C 509.378,258.785 506.045,261.952 501.5,264C 461.167,264.667 420.833,264.667 380.5,264C 374.487,262.488 371.154,258.655 370.5,252.5C 370.5,212.833 370.5,173.167 370.5,133.5C 417.5,133.5 464.5,133.5 511.5,133.5 Z"/></g>
<g><path style="opacity:0.982" fill="#ff6698" d="M 369.5,146.5 C 369.5,176.5 369.5,206.5 369.5,236.5C 355.496,236.667 341.496,236.5 327.5,236C 320.526,235.023 316.026,231.19 314,224.5C 313.333,202.167 313.333,179.833 314,157.5C 315.406,152.427 318.572,148.927 323.5,147C 338.83,146.5 354.163,146.333 369.5,146.5 Z"/></g>
<g><path style="opacity:1" fill="#ff7aa7" d="M 369.5,132.5 C 416.833,132.5 464.167,132.5 511.5,132.5C 511.5,132.833 511.5,133.167 511.5,133.5C 464.5,133.5 417.5,133.5 370.5,133.5C 370.5,173.167 370.5,212.833 370.5,252.5C 369.512,247.36 369.179,242.026 369.5,236.5C 369.5,206.5 369.5,176.5 369.5,146.5C 369.5,141.833 369.5,137.167 369.5,132.5 Z"/></g>
<g><path style="opacity:0.998" fill="#97de3d" d="M 141.5,274.5 C 140.167,304.5 140.167,334.5 141.5,364.5C 141.5,369.167 141.5,373.833 141.5,378.5C 94.1667,378.5 46.8333,378.5 -0.5,378.5C -0.5,337.5 -0.5,296.5 -0.5,255.5C 1.31481,251.521 4.31481,248.688 8.5,247C 49.5,246.333 90.5,246.333 131.5,247C 135.275,248.442 138.108,250.942 140,254.5C 141.377,261.076 141.877,267.743 141.5,274.5 Z"/></g>
<g><path style="opacity:0.985" fill="#59c369" d="M 141.5,274.5 C 156.17,274.333 170.837,274.5 185.5,275C 191.333,276.833 195.167,280.667 197,286.5C 197.667,308.833 197.667,331.167 197,353.5C 195.474,359.026 191.974,362.526 186.5,364C 171.504,364.5 156.504,364.667 141.5,364.5C 140.167,334.5 140.167,304.5 141.5,274.5 Z"/></g>
<g><path style="opacity:0.979" fill="#80bfff" d="M 363.5,369.5 C 333.5,370.833 303.5,370.833 273.5,369.5C 273.333,355.163 273.5,340.829 274,326.5C 275.618,319.216 280.118,315.049 287.5,314C 308.5,313.333 329.5,313.333 350.5,314C 356.268,315.126 360.435,318.293 363,323.5C 363.5,338.83 363.667,354.163 363.5,369.5 Z"/></g>
<g><path style="opacity:0.978" fill="#6699ff" d="M 482.5,369.5 C 452.671,370.498 422.671,370.831 392.5,370.5C 392.5,370.167 392.5,369.833 392.5,369.5C 392.333,354.83 392.5,340.163 393,325.5C 394.942,319.224 399.109,315.39 405.5,314C 426.833,313.333 448.167,313.333 469.5,314C 475.891,315.39 480.058,319.224 482,325.5C 482.5,340.163 482.667,354.83 482.5,369.5 Z"/></g>
<g><path style="opacity:0.998" fill="#99eeff" d="M 273.5,369.5 C 303.5,370.833 333.5,370.833 363.5,369.5C 368.167,369.5 372.833,369.5 377.5,369.5C 377.5,416.833 377.5,464.167 377.5,511.5C 336.5,511.5 295.5,511.5 254.5,511.5C 250.784,508.948 247.951,505.615 246,501.5C 245.333,460.833 245.333,420.167 246,379.5C 247.5,375.333 250.333,372.5 254.5,371C 260.757,369.683 267.091,369.183 273.5,369.5 Z"/></g>
<g><path style="opacity:1" fill="#90deff" d="M 377.5,369.5 C 382.5,369.5 387.5,369.5 392.5,369.5C 392.5,369.833 392.5,370.167 392.5,370.5C 387.833,370.5 383.167,370.5 378.5,370.5C 378.5,417.5 378.5,464.5 378.5,511.5C 378.167,511.5 377.833,511.5 377.5,511.5C 377.5,464.167 377.5,416.833 377.5,369.5 Z"/></g>
<g><path style="opacity:1" fill="#80bfff" d="M 482.5,369.5 C 488.909,369.183 495.243,369.683 501.5,371C 506.843,373.245 510.176,377.078 511.5,382.5C 511.5,421.5 511.5,460.5 511.5,499.5C 509.988,505.012 506.655,509.012 501.5,511.5C 460.5,511.5 419.5,511.5 378.5,511.5C 378.5,464.5 378.5,417.5 378.5,370.5C 383.167,370.5 387.833,370.5 392.5,370.5C 422.671,370.831 452.671,370.498 482.5,369.5 Z"/></g>
<g><path style="opacity:1" fill="#59c369" d="M -0.5,379.5 C 46.5,379.5 93.5,379.5 140.5,379.5C 140.5,419.5 140.5,459.5 140.5,499.5C 139.654,505.671 136.321,509.671 130.5,511.5C 90.1667,511.5 49.8333,511.5 9.5,511.5C 5.14152,509.142 1.80818,505.808 -0.5,501.5C -0.5,460.833 -0.5,420.167 -0.5,379.5 Z"/></g>
<g><path style="opacity:1" fill="#65c755" d="M -0.5,379.5 C -0.5,379.167 -0.5,378.833 -0.5,378.5C 46.8333,378.5 94.1667,378.5 141.5,378.5C 141.5,383.5 141.5,388.5 141.5,393.5C 141.5,423.5 141.5,453.5 141.5,483.5C 141.821,489.026 141.488,494.36 140.5,499.5C 140.5,459.5 140.5,419.5 140.5,379.5C 93.5,379.5 46.5,379.5 -0.5,379.5 Z"/></g>
<g><path style="opacity:0.99" fill="#3eb24b" d="M 141.5,393.5 C 156.837,393.333 172.17,393.5 187.5,394C 192.428,395.927 195.594,399.427 197,404.5C 197.667,426.833 197.667,449.167 197,471.5C 194.974,478.19 190.474,482.023 183.5,483C 169.504,483.5 155.504,483.667 141.5,483.5C 141.5,453.5 141.5,423.5 141.5,393.5 Z"/></g>
</svg>
