<?xml version="1.0" encoding="UTF-8"?>
<!DOCTYPE svg PUBLIC "-//W3C//DTD SVG 1.1//EN" "http://www.w3.org/Graphics/SVG/1.1/DTD/svg11.dtd">
<svg xmlns="http://www.w3.org/2000/svg" version="1.1" width="512px" height="512px" style="shape-rendering:geometricPrecision; text-rendering:geometricPrecision; image-rendering:optimizeQuality; fill-rule:evenodd; clip-rule:evenodd" xmlns:xlink="http://www.w3.org/1999/xlink">
<g><path style="opacity:1" fill="#0282fb" d="M 136.5,-0.5 C 150.5,-0.5 164.5,-0.5 178.5,-0.5C 175.443,1.39512 173.277,4.06178 172,7.5C 171.5,20.4957 171.333,33.4957 171.5,46.5C 156.865,67.1001 156.865,87.7668 171.5,108.5C 171.334,118.506 171.5,128.506 172,138.5C 172.606,141.548 174.106,144.048 176.5,146C 163.504,146.5 150.504,146.667 137.5,146.5C 134.572,145.409 132.406,143.409 131,140.5C 130.5,112.169 130.333,83.8353 130.5,55.5C 130.333,38.83 130.5,22.1633 131,5.5C 132.36,2.97739 134.193,0.977392 136.5,-0.5 Z"/></g>
<g><path style="opacity:1" fill="#0993fb" d="M 178.5,-0.5 C 281.833,-0.5 385.167,-0.5 488.5,-0.5C 490.807,0.977392 492.64,2.97739 494,5.5C 494.667,50.8333 494.667,96.1667 494,141.5C 492.833,144 491,145.833 488.5,147C 482.509,147.499 476.509,147.666 470.5,147.5C 359.332,147.833 248.332,147.499 137.5,146.5C 150.504,146.667 163.504,146.5 176.5,146C 174.106,144.048 172.606,141.548 172,138.5C 171.5,128.506 171.334,118.506 171.5,108.5C 188.974,126.776 209.307,130.61 232.5,120C 235.94,117.958 238.94,115.458 241.5,112.5C 251.764,103.56 256.931,92.2269 257,78.5C 241,77.8333 225,77.1667 209,76.5C 208.5,60.8369 208.333,45.1702 208.5,29.5C 203.547,29.1228 198.881,29.7895 194.5,31.5C 185.296,34.2607 177.629,39.2607 171.5,46.5C 171.333,33.4957 171.5,20.4957 172,7.5C 173.277,4.06178 175.443,1.39512 178.5,-0.5 Z"/></g>
<g><path style="opacity:1" fill="#0173fb" d="M 441.5,14.5 C 452.132,14.5933 454.799,19.0933 449.5,28C 440.945,30.7887 437.112,27.622 438,18.5C 439.376,17.2949 440.542,15.9616 441.5,14.5 Z"/></g>
<g><path style="opacity:1" fill="#0173fb" d="M 463.5,14.5 C 474.132,14.5933 476.799,19.0933 471.5,28C 462.945,30.7887 459.112,27.622 460,18.5C 461.376,17.2949 462.542,15.9616 463.5,14.5 Z"/></g>
<g><path style="opacity:1" fill="#67c948" d="M 236.5,21.5 C 236.5,36.1667 236.5,50.8333 236.5,65.5C 231.167,65.5 225.833,65.5 220.5,65.5C 219.339,50.3389 219.172,35.0055 220,19.5C 223.409,18.3781 226.909,18.2114 230.5,19C 232.852,19.2401 234.852,20.0735 236.5,21.5 Z"/></g>
<g><path style="opacity:1" fill="#7ed063" d="M 236.5,21.5 C 251.818,27.0477 261.985,37.7143 267,53.5C 268.184,57.4489 268.518,61.4489 268,65.5C 252.069,66.8304 236.236,66.8304 220.5,65.5C 225.833,65.5 231.167,65.5 236.5,65.5C 236.5,50.8333 236.5,36.1667 236.5,21.5 Z"/></g>
<g><path style="opacity:1" fill="#7fd163" d="M 342.5,104.5 C 337.5,104.5 332.5,104.5 327.5,104.5C 327.333,80.1644 327.5,55.8311 328,31.5C 332.667,24.8333 337.333,24.8333 342,31.5C 342.5,55.8311 342.667,80.1644 342.5,104.5 Z"/></g>
<g><path style="opacity:1" fill="#fed05b" d="M 241.5,112.5 C 219.865,115.568 202.698,108.234 190,90.5C 181.011,72.6151 181.345,54.9484 191,37.5C 193.118,35.5543 194.284,33.5543 194.5,31.5C 198.881,29.7895 203.547,29.1228 208.5,29.5C 208.333,45.1702 208.5,60.8369 209,76.5C 225,77.1667 241,77.8333 257,78.5C 256.931,92.2269 251.764,103.56 241.5,112.5 Z"/></g>
<g><path style="opacity:1" fill="#fdc245" d="M 194.5,31.5 C 194.284,33.5543 193.118,35.5543 191,37.5C 181.345,54.9484 181.011,72.6151 190,90.5C 202.698,108.234 219.865,115.568 241.5,112.5C 238.94,115.458 235.94,117.958 232.5,120C 209.307,130.61 188.974,126.776 171.5,108.5C 156.865,87.7668 156.865,67.1001 171.5,46.5C 177.629,39.2607 185.296,34.2607 194.5,31.5 Z"/></g>
<g><path style="opacity:1" fill="#fed15b" d="M 369.5,48.5 C 369.5,67.1667 369.5,85.8333 369.5,104.5C 364.833,104.5 360.167,104.5 355.5,104.5C 355.5,85.8333 355.5,67.1667 355.5,48.5C 356.422,44.9167 358.756,43.2501 362.5,43.5C 366.244,43.2501 368.578,44.9167 369.5,48.5 Z"/></g>
<g><path style="opacity:1" fill="#80d162" d="M 424.5,48.5 C 424.5,67.1667 424.5,85.8333 424.5,104.5C 419.833,104.5 415.167,104.5 410.5,104.5C 410.5,85.8333 410.5,67.1667 410.5,48.5C 412.585,43.1239 416.252,41.6239 421.5,44C 423.141,45.129 424.141,46.629 424.5,48.5 Z"/></g>
<g><path style="opacity:0.993" fill="#fdd2a4" d="M 130.5,55.5 C 130.333,83.8353 130.5,112.169 131,140.5C 132.406,143.409 134.572,145.409 137.5,146.5C 248.332,147.499 359.332,147.833 470.5,147.5C 500.616,203.816 508.449,263.15 494,325.5C 487.129,352.3 476.296,377.3 461.5,400.5C 460.501,343.669 460.168,286.669 460.5,229.5C 460.667,214.496 460.5,199.496 460,184.5C 458.749,181.619 456.583,179.786 453.5,179C 341.167,178.5 228.834,178.333 116.5,178.5C 99.4967,178.333 82.4967,178.5 65.5,179C 63,180.167 61.1667,182 60,184.5C 59.5001,199.163 59.3334,213.83 59.5,228.5C 59.5,228.833 59.5,229.167 59.5,229.5C 59.5,290.833 59.5,352.167 59.5,413.5C 31.4896,376.669 15.3229,335.002 11,288.5C 5.57346,197.213 38.7401,123.713 110.5,68C 116.803,63.1863 123.469,59.0197 130.5,55.5 Z"/></g>
<g><path style="opacity:1" fill="#fc9906" d="M 314.5,73.5 C 314.5,83.8333 314.5,94.1667 314.5,104.5C 309.833,104.5 305.167,104.5 300.5,104.5C 300.5,94.5 300.5,84.5 300.5,74.5C 304.601,66.9789 309.268,66.6456 314.5,73.5 Z"/></g>
<g><path style="opacity:1" fill="#fc6571" d="M 452.5,104.5 C 447.5,104.5 442.5,104.5 437.5,104.5C 437.334,97.4921 437.5,90.4921 438,83.5C 442.667,76.8333 447.333,76.8333 452,83.5C 452.5,90.4921 452.666,97.4921 452.5,104.5 Z"/></g>
<g><path style="opacity:1" fill="#eff6f6" d="M 355.5,48.5 C 355.5,67.1667 355.5,85.8333 355.5,104.5C 360.167,104.5 364.833,104.5 369.5,104.5C 369.5,85.8333 369.5,67.1667 369.5,48.5C 370.497,66.9925 370.83,85.6592 370.5,104.5C 374.5,104.5 378.5,104.5 382.5,104.5C 387.5,104.5 392.5,104.5 397.5,104.5C 401.5,104.5 405.5,104.5 409.5,104.5C 409.17,85.6592 409.503,66.9925 410.5,48.5C 410.5,67.1667 410.5,85.8333 410.5,104.5C 415.167,104.5 419.833,104.5 424.5,104.5C 424.5,85.8333 424.5,67.1667 424.5,48.5C 425.497,66.9925 425.83,85.6592 425.5,104.5C 429.5,104.5 433.5,104.5 437.5,104.5C 442.5,104.5 447.5,104.5 452.5,104.5C 457.844,104.334 463.177,104.501 468.5,105C 473.986,110.081 473.653,114.748 467.5,119C 406.5,119.667 345.5,119.667 284.5,119C 280.07,115.222 279.403,110.888 282.5,106C 288.044,104.596 293.71,104.096 299.5,104.5C 299.173,94.3194 299.506,84.3194 300.5,74.5C 300.5,84.5 300.5,94.5 300.5,104.5C 305.167,104.5 309.833,104.5 314.5,104.5C 314.5,94.1667 314.5,83.8333 314.5,73.5C 315.494,83.6532 315.828,93.9865 315.5,104.5C 319.5,104.5 323.5,104.5 327.5,104.5C 332.5,104.5 337.5,104.5 342.5,104.5C 346.5,104.5 350.5,104.5 354.5,104.5C 354.17,85.6592 354.503,66.9925 355.5,48.5 Z"/></g>
<g><path style="opacity:1" fill="#fb9909" d="M 397.5,104.5 C 392.5,104.5 387.5,104.5 382.5,104.5C 382.334,94.1613 382.5,83.828 383,73.5C 387.667,66.8333 392.333,66.8333 397,73.5C 397.5,83.828 397.666,94.1613 397.5,104.5 Z"/></g>
<g><path style="opacity:1" fill="#0182fb" d="M 116.5,178.5 C 114.873,180.63 113.04,182.63 111,184.5C 110.5,199.163 110.333,213.83 110.5,228.5C 93.5,228.5 76.5,228.5 59.5,228.5C 59.3334,213.83 59.5001,199.163 60,184.5C 61.1667,182 63,180.167 65.5,179C 82.4967,178.5 99.4967,178.333 116.5,178.5 Z"/></g>
<g><path style="opacity:1" fill="#0f94fb" d="M 116.5,178.5 C 228.834,178.333 341.167,178.5 453.5,179C 456.583,179.786 458.749,181.619 460,184.5C 460.5,199.496 460.667,214.496 460.5,229.5C 343.833,229.5 227.167,229.5 110.5,229.5C 93.5,229.5 76.5,229.5 59.5,229.5C 59.5,229.167 59.5,228.833 59.5,228.5C 76.5,228.5 93.5,228.5 110.5,228.5C 110.333,213.83 110.5,199.163 111,184.5C 113.04,182.63 114.873,180.63 116.5,178.5 Z"/></g>
<g><path style="opacity:1" fill="#f86572" d="M 380.5,195.5 C 390.163,196.327 392.496,200.827 387.5,209C 379.412,211.875 375.579,209.042 376,200.5C 377.025,198.313 378.525,196.646 380.5,195.5 Z"/></g>
<g><path style="opacity:1" fill="#f8cf60" d="M 402.5,195.5 C 409.706,195.202 412.873,198.535 412,205.5C 407.333,212.167 402.667,212.167 398,205.5C 397.077,201.017 398.577,197.683 402.5,195.5 Z"/></g>
<g><path style="opacity:1" fill="#7ccf67" d="M 423.5,195.5 C 434.132,195.593 436.799,200.093 431.5,209C 422.945,211.789 419.112,208.622 420,199.5C 421.376,198.295 422.542,196.962 423.5,195.5 Z"/></g>
<g><path style="opacity:1" fill="#d7ebfd" d="M 59.5,229.5 C 76.5,229.5 93.5,229.5 110.5,229.5C 110.5,241.167 110.5,252.833 110.5,264.5C 107.881,264.232 105.381,264.565 103,265.5C 102.5,284.83 102.333,304.164 102.5,323.5C 99.1501,323.335 95.8168,323.502 92.5,324C 87.8567,326.072 86.3567,329.572 88,334.5C 88.5,336.333 89.6667,337.5 91.5,338C 136.499,338.5 181.499,338.667 226.5,338.5C 188.004,339.499 149.337,339.832 110.5,339.5C 110.5,344.5 110.5,349.5 110.5,354.5C 104.491,354.334 98.4908,354.501 92.5,355C 87.3106,357.913 86.1439,362.08 89,367.5C 89.7504,368.126 90.5838,368.626 91.5,369C 97.8246,369.5 104.158,369.666 110.5,369.5C 110.5,373.833 110.5,378.167 110.5,382.5C 104.158,382.334 97.8246,382.5 91.5,383C 86.1881,387.572 86.1881,392.239 91.5,397C 97.8246,397.5 104.158,397.666 110.5,397.5C 110.5,401.833 110.5,406.167 110.5,410.5C 104.158,410.334 97.8246,410.5 91.5,411C 88.3171,412.018 86.9838,414.185 87.5,417.5C 87.3361,421.177 89.0028,423.677 92.5,425C 98.4908,425.499 104.491,425.666 110.5,425.5C 110.829,438.344 110.495,451.011 109.5,463.5C 89.8122,449.812 73.1455,433.146 59.5,413.5C 59.5,352.167 59.5,290.833 59.5,229.5 Z"/></g>
<g><path style="opacity:1" fill="#e9f5fe" d="M 110.5,229.5 C 227.167,229.5 343.833,229.5 460.5,229.5C 460.168,286.669 460.501,343.669 461.5,400.5C 461.5,417.167 461.5,433.833 461.5,450.5C 452.887,443.223 444.553,435.557 436.5,427.5C 434.372,424.87 432.039,422.37 429.5,420C 427.071,419.297 424.738,419.463 422.5,420.5C 415.5,414.167 408.833,407.5 402.5,400.5C 417.66,377.042 421.327,352.042 413.5,325.5C 418.167,320.5 422.833,315.5 427.5,310.5C 429.63,312.127 431.63,313.96 433.5,316C 434.784,316.684 435.951,316.517 437,315.5C 439.827,305.198 442.161,294.865 444,284.5C 442.274,283.424 440.441,283.257 438.5,284C 429.735,286.024 421.068,288.358 412.5,291C 411.483,292.049 411.316,293.216 412,294.5C 414.04,296.37 415.873,298.37 417.5,300.5C 414.167,303.5 410.833,306.5 407.5,309.5C 392.989,285.229 371.656,270.896 343.5,266.5C 301.982,263.874 272.149,281.207 254,318.5C 241.437,355.411 248.937,387.578 276.5,415C 295.861,431.397 318.194,438.23 343.5,435.5C 357.665,433.446 370.665,428.446 382.5,420.5C 389.5,426.833 396.167,433.5 402.5,440.5C 401.463,442.738 401.297,445.071 402,447.5C 411.702,457.035 421.202,466.702 430.5,476.5C 414.5,476.5 398.5,476.5 382.5,476.5C 297.833,476.5 213.167,476.5 128.5,476.5C 121.609,472.895 115.275,468.562 109.5,463.5C 110.495,451.011 110.829,438.344 110.5,425.5C 117.724,422.496 119.058,417.829 114.5,411.5C 113.264,410.754 111.93,410.421 110.5,410.5C 110.5,406.167 110.5,401.833 110.5,397.5C 116.24,396.027 118.407,392.36 117,386.5C 115.362,384.266 113.195,382.933 110.5,382.5C 110.5,378.167 110.5,373.833 110.5,369.5C 116.903,367.691 118.736,363.691 116,357.5C 114.512,355.84 112.679,354.84 110.5,354.5C 110.5,349.5 110.5,344.5 110.5,339.5C 149.337,339.832 188.004,339.499 226.5,338.5C 234.408,333.755 234.408,328.922 226.5,324C 221.511,323.501 216.511,323.334 211.5,323.5C 211.667,309.163 211.5,294.829 211,280.5C 201.761,278.8 192.595,278.467 183.5,279.5C 182.883,279.611 182.383,279.944 182,280.5C 181.5,294.829 181.333,309.163 181.5,323.5C 178.167,323.5 174.833,323.5 171.5,323.5C 171.667,312.828 171.5,302.161 171,291.5C 170.5,291 170,290.5 169.5,290C 164.845,289.501 160.179,289.334 155.5,289.5C 151.486,289.334 147.486,289.501 143.5,290C 143,290.5 142.5,291 142,291.5C 141.5,302.161 141.333,312.828 141.5,323.5C 138.167,323.5 134.833,323.5 131.5,323.5C 131.667,304.497 131.5,285.497 131,266.5C 130.5,266 130,265.5 129.5,265C 124.845,264.501 120.179,264.334 115.5,264.5C 113.833,264.5 112.167,264.5 110.5,264.5C 110.5,252.833 110.5,241.167 110.5,229.5 Z"/></g>
<g><path style="opacity:1" fill="#68ca44" d="M 110.5,264.5 C 112.167,264.5 113.833,264.5 115.5,264.5C 114.513,284.091 114.179,303.757 114.5,323.5C 110.5,323.5 106.5,323.5 102.5,323.5C 102.333,304.164 102.5,284.83 103,265.5C 105.381,264.565 107.881,264.232 110.5,264.5 Z"/></g>
<g><path style="opacity:1" fill="#80d261" d="M 115.5,264.5 C 120.179,264.334 124.845,264.501 129.5,265C 130,265.5 130.5,266 131,266.5C 131.5,285.497 131.667,304.497 131.5,323.5C 125.833,323.5 120.167,323.5 114.5,323.5C 114.179,303.757 114.513,284.091 115.5,264.5 Z"/></g>
<g><path style="opacity:1" fill="#fc4957" d="M 343.5,266.5 C 317.603,272.372 297.77,286.705 284,309.5C 283.517,310.448 283.351,311.448 283.5,312.5C 266.243,338.145 266.243,363.812 283.5,389.5C 292.736,408.231 307.069,421.731 326.5,430C 332.249,431.973 337.916,433.806 343.5,435.5C 318.194,438.23 295.861,431.397 276.5,415C 248.937,387.578 241.437,355.411 254,318.5C 272.149,281.207 301.982,263.874 343.5,266.5 Z"/></g>
<g><path style="opacity:1" fill="#fd6570" d="M 343.5,266.5 C 371.656,270.896 392.989,285.229 407.5,309.5C 402.167,315.5 396.5,321.167 390.5,326.5C 381.491,307.171 366.491,295.171 345.5,290.5C 320.646,285.676 299.979,293.009 283.5,312.5C 283.351,311.448 283.517,310.448 284,309.5C 297.77,286.705 317.603,272.372 343.5,266.5 Z"/></g>
<g><path style="opacity:1" fill="#fa8a08" d="M 183.5,279.5 C 187.846,279.334 192.179,279.501 196.5,280C 195.51,294.421 195.176,308.921 195.5,323.5C 190.833,323.5 186.167,323.5 181.5,323.5C 181.333,309.163 181.5,294.829 182,280.5C 182.383,279.944 182.883,279.611 183.5,279.5 Z"/></g>
<g><path style="opacity:1" fill="#fd9b0f" d="M 183.5,279.5 C 192.595,278.467 201.761,278.8 211,280.5C 211.5,294.829 211.667,309.163 211.5,323.5C 206.167,323.5 200.833,323.5 195.5,323.5C 195.176,308.921 195.51,294.421 196.5,280C 192.179,279.501 187.846,279.334 183.5,279.5 Z"/></g>
<g><path style="opacity:1" fill="#63b8ff" d="M 427.5,310.5 C 424.5,306.833 421.167,303.5 417.5,300.5C 415.873,298.37 414.04,296.37 412,294.5C 411.316,293.216 411.483,292.049 412.5,291C 421.068,288.358 429.735,286.024 438.5,284C 440.441,283.257 442.274,283.424 444,284.5C 442.161,294.865 439.827,305.198 437,315.5C 435.951,316.517 434.784,316.684 433.5,316C 431.63,313.96 429.63,312.127 427.5,310.5 Z"/></g>
<g><path style="opacity:1" fill="#f5f6f7" d="M 345.5,290.5 C 323.826,295.338 308.659,308.005 300,328.5C 297.362,335.605 295.862,342.938 295.5,350.5C 287.93,354.216 285.43,360.216 288,368.5C 290.659,374.335 295.159,377.002 301.5,376.5C 310.267,395.602 324.934,407.269 345.5,411.5C 320.621,416.317 299.954,408.983 283.5,389.5C 266.243,363.812 266.243,338.145 283.5,312.5C 299.979,293.009 320.646,285.676 345.5,290.5 Z"/></g>
<g><path style="opacity:1" fill="#fc4d59" d="M 155.5,289.5 C 154.523,300.752 154.189,312.086 154.5,323.5C 150.167,323.5 145.833,323.5 141.5,323.5C 141.333,312.828 141.5,302.161 142,291.5C 142.5,291 143,290.5 143.5,290C 147.486,289.501 151.486,289.334 155.5,289.5 Z"/></g>
<g><path style="opacity:1" fill="#fd6570" d="M 155.5,289.5 C 160.179,289.334 164.845,289.501 169.5,290C 170,290.5 170.5,291 171,291.5C 171.5,302.161 171.667,312.828 171.5,323.5C 165.833,323.5 160.167,323.5 154.5,323.5C 154.189,312.086 154.523,300.752 155.5,289.5 Z"/></g>
<g><path style="opacity:1" fill="#fefefe" d="M 345.5,290.5 C 366.491,295.171 381.491,307.171 390.5,326.5C 383.202,334.298 375.702,341.965 368,349.5C 358.833,340.333 349.667,331.167 340.5,322C 338.635,320.699 336.635,320.365 334.5,321C 324.53,329.97 314.863,339.303 305.5,349C 302.635,349.183 299.969,349.683 297.5,350.5C 296.833,350.5 296.167,350.5 295.5,350.5C 295.862,342.938 297.362,335.605 300,328.5C 308.659,308.005 323.826,295.338 345.5,290.5 Z"/></g>
<g><path style="opacity:1" fill="#8bc9fd" d="M 417.5,300.5 C 421.167,303.5 424.5,306.833 427.5,310.5C 422.833,315.5 418.167,320.5 413.5,325.5C 407.167,331.167 401.167,337.167 395.5,343.5C 387.338,351.495 379.005,359.328 370.5,367C 368.029,367.706 365.695,367.373 363.5,366C 354.652,356.986 345.652,348.152 336.5,339.5C 328.813,346.855 321.146,354.188 313.5,361.5C 311.464,353.142 306.131,349.475 297.5,350.5C 299.969,349.683 302.635,349.183 305.5,349C 314.863,339.303 324.53,329.97 334.5,321C 336.635,320.365 338.635,320.699 340.5,322C 349.667,331.167 358.833,340.333 368,349.5C 375.702,341.965 383.202,334.298 390.5,326.5C 396.5,321.167 402.167,315.5 407.5,309.5C 410.833,306.5 414.167,303.5 417.5,300.5 Z"/></g>
<g><path style="opacity:1" fill="#65b7fb" d="M 102.5,323.5 C 106.5,323.5 110.5,323.5 114.5,323.5C 120.167,323.5 125.833,323.5 131.5,323.5C 134.833,323.5 138.167,323.5 141.5,323.5C 145.833,323.5 150.167,323.5 154.5,323.5C 160.167,323.5 165.833,323.5 171.5,323.5C 174.833,323.5 178.167,323.5 181.5,323.5C 186.167,323.5 190.833,323.5 195.5,323.5C 200.833,323.5 206.167,323.5 211.5,323.5C 216.511,323.334 221.511,323.501 226.5,324C 234.408,328.922 234.408,333.755 226.5,338.5C 181.499,338.667 136.499,338.5 91.5,338C 89.6667,337.5 88.5,336.333 88,334.5C 86.3567,329.572 87.8567,326.072 92.5,324C 95.8168,323.502 99.1501,323.335 102.5,323.5 Z"/></g>
<g><path style="opacity:1" fill="#fd656f" d="M 413.5,325.5 C 421.327,352.042 417.66,377.042 402.5,400.5C 399.864,403.31 397.364,406.31 395,409.5C 390.64,413.032 386.473,416.699 382.5,420.5C 370.665,428.446 357.665,433.446 343.5,435.5C 337.916,433.806 332.249,431.973 326.5,430C 307.069,421.731 292.736,408.231 283.5,389.5C 299.954,408.983 320.621,416.317 345.5,411.5C 369.282,406.014 385.116,391.681 393,368.5C 394.968,360.28 395.801,351.947 395.5,343.5C 401.167,337.167 407.167,331.167 413.5,325.5 Z"/></g>
<g><path style="opacity:1" fill="#fefefe" d="M 395.5,343.5 C 395.801,351.947 394.968,360.28 393,368.5C 385.116,391.681 369.282,406.014 345.5,411.5C 324.934,407.269 310.267,395.602 301.5,376.5C 309.905,375.089 313.905,370.089 313.5,361.5C 321.146,354.188 328.813,346.855 336.5,339.5C 345.652,348.152 354.652,356.986 363.5,366C 365.695,367.373 368.029,367.706 370.5,367C 379.005,359.328 387.338,351.495 395.5,343.5 Z"/></g>
<g><path style="opacity:1" fill="#62b7fe" d="M 295.5,350.5 C 296.167,350.5 296.833,350.5 297.5,350.5C 306.131,349.475 311.464,353.142 313.5,361.5C 313.905,370.089 309.905,375.089 301.5,376.5C 295.159,377.002 290.659,374.335 288,368.5C 285.43,360.216 287.93,354.216 295.5,350.5 Z"/></g>
<g><path style="opacity:1" fill="#63b8ff" d="M 110.5,354.5 C 112.679,354.84 114.512,355.84 116,357.5C 118.736,363.691 116.903,367.691 110.5,369.5C 104.158,369.666 97.8246,369.5 91.5,369C 90.5838,368.626 89.7504,368.126 89,367.5C 86.1439,362.08 87.3106,357.913 92.5,355C 98.4908,354.501 104.491,354.334 110.5,354.5 Z"/></g>
<g><path style="opacity:1" fill="#62b7ff" d="M 128.5,354.5 C 161.168,354.333 193.835,354.5 226.5,355C 234.073,359.187 234.406,363.854 227.5,369C 194.5,369.667 161.5,369.667 128.5,369C 125.523,367.855 123.856,365.688 123.5,362.5C 124.366,359.308 126.032,356.641 128.5,354.5 Z"/></g>
<g><path style="opacity:1" fill="#8bc9fe" d="M 110.5,382.5 C 113.195,382.933 115.362,384.266 117,386.5C 118.407,392.36 116.24,396.027 110.5,397.5C 104.158,397.666 97.8246,397.5 91.5,397C 86.1881,392.239 86.1881,387.572 91.5,383C 97.8246,382.5 104.158,382.334 110.5,382.5 Z"/></g>
<g><path style="opacity:1" fill="#8bc9fe" d="M 128.5,382.5 C 161.502,382.333 194.502,382.5 227.5,383C 234.167,387.667 234.167,392.333 227.5,397C 194.5,397.667 161.5,397.667 128.5,397C 124.723,394.089 123.556,390.256 125,385.5C 126.145,384.364 127.312,383.364 128.5,382.5 Z"/></g>
<g><path style="opacity:1" fill="#6d7ed7" d="M 402.5,400.5 C 408.833,407.5 415.5,414.167 422.5,420.5C 416.167,427.5 409.5,434.167 402.5,440.5C 396.167,433.5 389.5,426.833 382.5,420.5C 386.473,416.699 390.64,413.032 395,409.5C 397.364,406.31 399.864,403.31 402.5,400.5 Z"/></g>
<g><path style="opacity:1" fill="#8ccafe" d="M 110.5,410.5 C 111.93,410.421 113.264,410.754 114.5,411.5C 119.058,417.829 117.724,422.496 110.5,425.5C 104.491,425.666 98.4908,425.499 92.5,425C 89.0028,423.677 87.3361,421.177 87.5,417.5C 86.9838,414.185 88.3171,412.018 91.5,411C 97.8246,410.5 104.158,410.334 110.5,410.5 Z"/></g>
<g><path style="opacity:1" fill="#8dcafe" d="M 127.5,410.5 C 161.168,410.333 194.835,410.5 228.5,411C 234.133,416.487 233.466,421.154 226.5,425C 194.167,425.667 161.833,425.667 129.5,425C 124.776,422.565 123.276,418.731 125,413.5C 126.045,412.627 126.878,411.627 127.5,410.5 Z"/></g>
<g><path style="opacity:1" fill="#324dc9" d="M 436.5,427.5 C 433.269,432.239 429.436,436.572 425,440.5C 423.699,442.365 423.365,444.365 424,446.5C 437.367,461.033 451.2,475.033 465.5,488.5C 456.913,492.878 448.579,492.378 440.5,487C 436.963,483.631 433.629,480.131 430.5,476.5C 421.202,466.702 411.702,457.035 402,447.5C 401.297,445.071 401.463,442.738 402.5,440.5C 409.5,434.167 416.167,427.5 422.5,420.5C 424.738,419.463 427.071,419.297 429.5,420C 432.039,422.37 434.372,424.87 436.5,427.5 Z"/></g>
<g><path style="opacity:0.99" fill="#4f66d0" d="M 436.5,427.5 C 444.553,435.557 452.887,443.223 461.5,450.5C 466.267,454.769 470.1,459.769 473,465.5C 475.547,474.99 473.047,482.656 465.5,488.5C 451.2,475.033 437.367,461.033 424,446.5C 423.365,444.365 423.699,442.365 425,440.5C 429.436,436.572 433.269,432.239 436.5,427.5 Z"/></g>
<g><path style="opacity:0.985" fill="#fed2a4" d="M 128.5,476.5 C 213.167,476.5 297.833,476.5 382.5,476.5C 350.087,495.971 315.087,507.638 277.5,511.5C 262.833,511.5 248.167,511.5 233.5,511.5C 195.913,507.638 160.913,495.971 128.5,476.5 Z"/></g>
</svg>
