<?xml version="1.0" encoding="UTF-8"?>
<!DOCTYPE svg PUBLIC "-//W3C//DTD SVG 1.1//EN" "http://www.w3.org/Graphics/SVG/1.1/DTD/svg11.dtd">
<svg xmlns="http://www.w3.org/2000/svg" version="1.1" width="512px" height="512px" style="shape-rendering:geometricPrecision; text-rendering:geometricPrecision; image-rendering:optimizeQuality; fill-rule:evenodd; clip-rule:evenodd" xmlns:xlink="http://www.w3.org/1999/xlink">
<g><path style="opacity:0.994" fill="#fe3377" d="M 422.5,-0.5 C 435.5,-0.5 448.5,-0.5 461.5,-0.5C 468.008,0.752574 474.675,1.91924 481.5,3C 488.863,4.41693 495.863,6.5836 502.5,9.5C 471.862,38.8042 441.529,68.4708 411.5,98.5C 390.041,81.0056 367.041,78.8389 342.5,92C 339.335,94.3347 336.335,96.8347 333.5,99.5C 322.167,87.5 310.5,75.8333 298.5,64.5C 321.331,37.7264 349.664,18.8931 383.5,8C 396.404,4.07838 409.404,1.24504 422.5,-0.5 Z"/></g>
<g><path style="opacity:0.994" fill="#cc295f" d="M 502.5,9.5 C 506.789,22.6477 509.789,35.981 511.5,49.5C 511.5,62.5 511.5,75.5 511.5,88.5C 505.494,137.346 484.494,178.513 448.5,212C 447.906,212.464 447.239,212.631 446.5,212.5C 435.167,200.5 423.5,188.833 411.5,177.5C 427.37,160.01 431.537,140.01 424,117.5C 421.043,110.561 416.876,104.561 411.5,99.5C 411.5,99.1667 411.5,98.8333 411.5,98.5C 441.529,68.4708 471.862,38.8042 502.5,9.5 Z"/></g>
<g><path style="opacity:0.998" fill="#fef4f4" d="M 298.5,64.5 C 310.5,75.8333 322.167,87.5 333.5,99.5C 319.312,114.917 314.812,132.917 320,153.5C 322.985,162.149 327.485,169.816 333.5,176.5C 295.144,215.856 256.144,254.523 216.5,292.5C 204.448,279.447 191.781,267.114 178.5,255.5C 171.167,247.833 163.833,240.167 156.5,232.5C 189.317,194.172 221.651,155.506 253.5,116.5C 268.5,99.1667 283.5,81.8333 298.5,64.5 Z"/></g>
<g><path style="opacity:1" fill="#293366" d="M 411.5,98.5 C 411.5,98.8333 411.5,99.1667 411.5,99.5C 404.137,105.862 397.471,112.862 391.5,120.5C 390.833,120.167 390.167,119.833 389.5,119.5C 382.506,113.954 374.506,112.121 365.5,114C 349.134,121.41 344.301,133.576 351,150.5C 351.949,152.093 353.115,153.426 354.5,154.5C 354.833,155.167 355.167,155.833 355.5,156.5C 347.862,162.471 340.862,169.137 334.5,176.5C 334.167,176.5 333.833,176.5 333.5,176.5C 327.485,169.816 322.985,162.149 320,153.5C 314.812,132.917 319.312,114.917 333.5,99.5C 336.335,96.8347 339.335,94.3347 342.5,92C 367.041,78.8389 390.041,81.0056 411.5,98.5 Z"/></g>
<g><path style="opacity:1" fill="#111141" d="M 411.5,99.5 C 416.876,104.561 421.043,110.561 424,117.5C 431.537,140.01 427.37,160.01 411.5,177.5C 394.88,192.087 375.88,196.253 354.5,190C 346.591,187.222 339.924,182.722 334.5,176.5C 340.862,169.137 347.862,162.471 355.5,156.5C 366.068,163.919 377.068,164.419 388.5,158C 399.335,146.307 400.335,133.807 391.5,120.5C 397.471,112.862 404.137,105.862 411.5,99.5 Z"/></g>
<g><path style="opacity:1" fill="#eae4f0" d="M 389.5,119.5 C 388.304,122.543 386.47,125.209 384,127.5C 375.167,136.333 366.333,145.167 357.5,154C 356.552,154.483 355.552,154.649 354.5,154.5C 353.115,153.426 351.949,152.093 351,150.5C 344.301,133.576 349.134,121.41 365.5,114C 374.506,112.121 382.506,113.954 389.5,119.5 Z"/></g>
<g><path style="opacity:0.988" fill="#ff3377" d="M 253.5,116.5 C 221.651,155.506 189.317,194.172 156.5,232.5C 141.201,217.702 126.035,202.702 111,187.5C 110.333,186.833 110.333,186.167 111,185.5C 139.744,156.207 173.244,134.04 211.5,119C 225.438,114.294 239.438,113.46 253.5,116.5 Z"/></g>
<g><path style="opacity:1" fill="#cdcde4" d="M 389.5,119.5 C 390.167,119.833 390.833,120.167 391.5,120.5C 400.335,133.807 399.335,146.307 388.5,158C 377.068,164.419 366.068,163.919 355.5,156.5C 355.167,155.833 354.833,155.167 354.5,154.5C 355.552,154.649 356.552,154.483 357.5,154C 366.333,145.167 375.167,136.333 384,127.5C 386.47,125.209 388.304,122.543 389.5,119.5 Z"/></g>
<g><path style="opacity:0.998" fill="#ebe5f1" d="M 333.5,176.5 C 333.833,176.5 334.167,176.5 334.5,176.5C 339.924,182.722 346.591,187.222 354.5,190C 375.88,196.253 394.88,192.087 411.5,177.5C 423.5,188.833 435.167,200.5 446.5,212.5C 429.54,227.973 412.207,242.973 394.5,257.5C 355.494,289.349 316.828,321.683 278.5,354.5C 270.833,347.167 263.167,339.833 255.5,332.5C 243.756,319.253 231.422,306.419 218.5,294C 217.906,293.536 217.239,293.369 216.5,293.5C 216.5,293.167 216.5,292.833 216.5,292.5C 256.144,254.523 295.144,215.856 333.5,176.5 Z"/></g>
<g><path style="opacity:0.986" fill="#cc295f" d="M 394.5,257.5 C 397.54,271.562 396.706,285.562 392,299.5C 376.96,337.756 354.793,371.256 325.5,400C 324.833,400.667 324.167,400.667 323.5,400C 308.298,384.965 293.298,369.799 278.5,354.5C 316.828,321.683 355.494,289.349 394.5,257.5 Z"/></g>
<g><path style="opacity:0.968" fill="#ffe666" d="M -0.5,258.5 C 9.5,258.5 19.5,258.5 29.5,258.5C 29.5,268.833 29.5,279.167 29.5,289.5C 19.5,289.5 9.5,289.5 -0.5,289.5C -0.5,279.167 -0.5,268.833 -0.5,258.5 Z"/></g>
<g><path style="opacity:0.99" fill="#ece4f1" d="M 156.5,277.5 C 169.145,290.479 181.812,303.479 194.5,316.5C 188.015,323.486 181.348,330.319 174.5,337C 173.552,337.483 172.552,337.649 171.5,337.5C 158.833,325.167 146.167,312.833 133.5,300.5C 133.5,300.167 133.5,299.833 133.5,299.5C 141.167,292.167 148.833,284.833 156.5,277.5 Z"/></g>
<g><path style="opacity:0.991" fill="#a4aacc" d="M 216.5,293.5 C 217.239,293.369 217.906,293.536 218.5,294C 231.422,306.419 243.756,319.253 255.5,332.5C 248.5,340.167 241.167,347.5 233.5,354.5C 220.327,342.16 207.66,329.327 195.5,316C 202.326,308.341 209.326,300.841 216.5,293.5 Z"/></g>
<g><path style="opacity:0.991" fill="#ffe565" d="M 133.5,299.5 C 133.5,299.833 133.5,300.167 133.5,300.5C 108.907,329.533 100.24,362.866 107.5,400.5C 107.657,401.873 107.49,403.207 107,404.5C 77.9651,433.368 49.1318,462.368 20.5,491.5C 13.0771,478.875 10.5771,465.209 13,450.5C 15.3968,438.872 20.5635,428.706 28.5,420C 19.1157,413.313 9.449,407.146 -0.5,401.5C -0.5,400.833 -0.5,400.167 -0.5,399.5C 15.6118,345.233 51.6118,312.733 107.5,302C 116.127,300.704 124.793,299.871 133.5,299.5 Z"/></g>
<g><path style="opacity:1" fill="#fe3476" d="M 133.5,300.5 C 146.167,312.833 158.833,325.167 171.5,337.5C 171.5,337.833 171.5,338.167 171.5,338.5C 151.194,360.14 130.194,381.14 108.5,401.5C 108.5,400.833 108.167,400.5 107.5,400.5C 100.24,362.866 108.907,329.533 133.5,300.5 Z"/></g>
<g><path style="opacity:1" fill="#cfcee5" d="M 178.5,255.5 C 191.781,267.114 204.448,279.447 216.5,292.5C 216.5,292.833 216.5,293.167 216.5,293.5C 209.326,300.841 202.326,308.341 195.5,316C 207.66,329.327 220.327,342.16 233.5,354.5C 226.167,362.167 218.833,369.833 211.5,377.5C 211.167,377.5 210.833,377.5 210.5,377.5C 197.833,364.167 184.833,351.167 171.5,338.5C 171.5,338.167 171.5,337.833 171.5,337.5C 172.552,337.649 173.552,337.483 174.5,337C 181.348,330.319 188.015,323.486 194.5,316.5C 181.812,303.479 169.145,290.479 156.5,277.5C 163.5,269.833 170.833,262.5 178.5,255.5 Z"/></g>
<g><path style="opacity:1" fill="#cc295f" d="M 171.5,338.5 C 184.833,351.167 197.833,364.167 210.5,377.5C 180.407,402.524 146.407,410.524 108.5,401.5C 130.194,381.14 151.194,360.14 171.5,338.5 Z"/></g>
<g><path style="opacity:0.99" fill="#fecb65" d="M 210.5,377.5 C 210.833,377.5 211.167,377.5 211.5,377.5C 210.637,414.277 198.47,446.611 175,474.5C 157.617,492.057 137.117,504.39 113.5,511.5C 111.833,511.5 110.167,511.5 108.5,511.5C 94.5908,498.029 77.9241,492.196 58.5,494C 48.519,496.49 39.8523,501.324 32.5,508.5C 27.7045,503.375 23.7045,497.708 20.5,491.5C 49.1318,462.368 77.9651,433.368 107,404.5C 107.49,403.207 107.657,401.873 107.5,400.5C 108.167,400.5 108.5,400.833 108.5,401.5C 146.407,410.524 180.407,402.524 210.5,377.5 Z"/></g>
<g><path style="opacity:0.968" fill="#ffcc66" d="M 251.5,421.5 C 261.833,421.5 272.167,421.5 282.5,421.5C 282.5,431.5 282.5,441.5 282.5,451.5C 272.167,451.5 261.833,451.5 251.5,451.5C 251.5,441.5 251.5,431.5 251.5,421.5 Z"/></g>
<g><path style="opacity:0.968" fill="#ffcc66" d="M 252.5,511.5 C 242.167,511.5 231.833,511.5 221.5,511.5C 221.5,501.5 221.5,491.5 221.5,481.5C 231.833,481.5 242.167,481.5 252.5,481.5C 252.5,491.5 252.5,501.5 252.5,511.5 Z"/></g>
</svg>
